{
.appVersion = "1352";
DisplayStrings = (
"ABCDEFGHIJKLMNOPQRSTUVWXYZ\012HH/Placeholder HO/Placeholder OO\012A/Placeholder A/space B/Placeholder B/space C/Placeholder C/space D/Placeholder D/space E/Placeholder E/space F/Placeholder F/space G/Placeholder G/space H/Placeholder H/space I/Placeholder I/space J/Placeholder J/space K/Placeholder K/space L/Placeholder L/space M/Placeholder M/space N/Placeholder N/space O/Placeholder O/space P/Placeholder P/space Q/Placeholder Q/space R/Placeholder R/space S/Placeholder S/space T/Placeholder T/space U/Placeholder U/space V/Placeholder V/space W/Placeholder W/space X/Placeholder X/space Y/Placeholder Y/space Z/Placeholder Z/space HH/Placeholder HO/Placeholder OO\012HHUYJAUKMHHBCDEFGHIJKLMNOPQRSTUVWXYZ",
abcodefghijklmnopqrstuvwxyz,
"A/Placeholder A/space B/Placeholder B/space C/Placeholder C/space D/Placeholder D/space E/Placeholder E/space F/Placeholder F/space G/Placeholder G/space H/Placeholder H/space I/Placeholder I/space J/Placeholder J/space K/Placeholder K/space L/Placeholder L/space M/Placeholder M/space N/Placeholder N/space O/Placeholder O/space P/Placeholder P/space Q/Placeholder Q/space R/Placeholder R/space S/Placeholder S/space T/Placeholder T/space U/Placeholder U/space V/Placeholder V/space W/Placeholder W/space X/Placeholder X/space Y/Placeholder Y/space Z/Placeholder Z/space HH/Placeholder HO/Placeholder OO\012ABOCDEFGHIJKOLMNOPQRSOTOUOVOWOXOYOZ/space Over/space",

glyphs = (
{
color = 7;
glyphname = A;
lastChange = "2021-09-09 18:56:22 +0000";
layers = (
{
anchors = (
{
name = bottom;
position = "{310, 0}";
},
{
name = ogonek;
position = "{588, 10}";
},
{
name = top;
position = "{375, 460}";
}
);
background = {
anchors = (
{
name = bottom;
position = "{310, 0}";
},
{
name = ogonek;
position = "{588, 10}";
},
{
name = top;
position = "{375, 460}";
}
);
hints = (
{
horizontal = 1;
place = "{64, 151}";
type = Stem;
},
{
horizontal = 1;
place = "{460, -20}";
target = down;
type = TopGhost;
},
{
place = "{26, 685}";
type = Stem;
},
{
horizontal = 1;
place = "{0, 215}";
type = Stem;
}
);
paths = (
{
closed = 1;
nodes = (
"138 0 LINE",
"190 86 LINE",
"368 86 LINE",
"399 0 LINE",
"646 0 LINE",
"522 374 LINE",
"502 434 OFFCURVE",
"452 464 OFFCURVE",
"375 464 CURVE",
"276 464 OFFCURVE",
"230 430 OFFCURVE",
"195 374 CURVE",
"-35 0 LINE"
);
},
{
closed = 1;
nodes = (
"299 265 LINE",
"301 269 OFFCURVE",
"304 274 OFFCURVE",
"304 274 CURVE",
"304 274 OFFCURVE",
"305 269 OFFCURVE",
"306 265 CURVE",
"338 169 LINE",
"237 169 LINE"
);
}
);
};
layerId = "C7668D88-AC50-4107-9C4B-DB5D26A8FA6C";
paths = (
{
closed = 1;
nodes = (
"138 0 LINE",
"190 86 LINE",
"368 86 LINE",
"399 0 LINE",
"646 0 LINE",
"522 374 LINE",
"502 434 OFFCURVE",
"452 464 OFFCURVE",
"375 464 CURVE",
"276 464 OFFCURVE",
"230 430 OFFCURVE",
"195 374 CURVE",
"-35 0 LINE"
);
},
{
closed = 1;
nodes = (
"299 265 LINE",
"301 269 OFFCURVE",
"304 274 OFFCURVE",
"304 274 CURVE",
"304 274 OFFCURVE",
"305 269 OFFCURVE",
"306 265 CURVE",
"338 169 LINE",
"237 169 LINE"
);
}
);
width = 678;
},
{
anchors = (
{
name = bottom;
position = "{196, 0}";
},
{
name = ogonek;
position = "{390, 10}";
},
{
name = top;
position = "{255, 460}";
}
);
background = {
anchors = (
{
name = bottom;
position = "{196, 0}";
},
{
name = ogonek;
position = "{390, 10}";
},
{
name = top;
position = "{255, 460}";
}
);
paths = (
{
closed = 1;
nodes = (
"8 0 LINE",
"70 142 LINE",
"348 142 LINE",
"371 0 LINE",
"391 0 LINE",
"327 400 LINE SMOOTH",
"320 445 OFFCURVE",
"310 464 OFFCURVE",
"255 464 CURVE SMOOTH",
"200 464 OFFCURVE",
"182 441 OFFCURVE",
"164 400 CURVE SMOOTH",
"-9 0 LINE"
);
},
{
closed = 1;
nodes = (
"181 400 LINE SMOOTH",
"191 424 OFFCURVE",
"202 449 OFFCURVE",
"252 449 CURVE SMOOTH",
"296 449 OFFCURVE",
"303 425 OFFCURVE",
"307 400 CURVE SMOOTH",
"346 159 LINE",
"78 159 LINE"
);
}
);
};
layerId = "B4E8C596-9C01-4F8A-BDA4-90320E25C0E6";
paths = (
{
closed = 1;
nodes = (
"8 0 LINE",
"70 142 LINE",
"348 142 LINE",
"371 0 LINE",
"391 0 LINE",
"327 400 LINE SMOOTH",
"320 445 OFFCURVE",
"310 464 OFFCURVE",
"255 464 CURVE SMOOTH",
"200 464 OFFCURVE",
"182 441 OFFCURVE",
"164 400 CURVE SMOOTH",
"-9 0 LINE"
);
},
{
closed = 1;
nodes = (
"181 400 LINE SMOOTH",
"191 424 OFFCURVE",
"202 449 OFFCURVE",
"252 449 CURVE SMOOTH",
"296 449 OFFCURVE",
"303 425 OFFCURVE",
"307 400 CURVE SMOOTH",
"346 159 LINE",
"78 159 LINE"
);
}
);
width = 440;
}
);
leftKerningGroup = A;
note = A;
rightKerningGroup = A;
unicode = 0041;
},
{
color = 7;
glyphname = AE;
lastChange = "2021-09-08 23:18:03 +0000";
layers = (
{
anchors = (
{
name = bottom;
position = "{456, 0}";
},
{
name = top;
position = "{754, 460}";
}
);
background = {
anchors = (
{
name = bottom;
position = "{456, 0}";
},
{
name = top;
position = "{754, 460}";
}
);
paths = (
{
closed = 1;
nodes = (
"157 0 LINE",
"180 25 OFFCURVE",
"205 49 OFFCURVE",
"228 74 CURVE",
"386 74 LINE",
"376 0 LINE",
"557 0 OFFCURVE",
"737 0 OFFCURVE",
"918 0 CURVE",
"935 123 LINE",
"612 123 LINE",
"618 167 LINE",
"715 167 OFFCURVE",
"811 167 OFFCURVE",
"908 167 CURVE",
"925 290 LINE",
"635 290 LINE",
"642 337 LINE",
"965 337 LINE",
"971 378 OFFCURVE",
"977 419 OFFCURVE",
"982 460 CURVE",
"564 460 LINE SMOOTH",
"506 460 OFFCURVE",
"448 460 OFFCURVE",
"391 402 CURVE SMOOTH",
"203 208 OFFCURVE",
"173 177 OFFCURVE",
"3 0 CURVE"
);
},
{
closed = 1;
nodes = (
"341 191 OFFCURVE",
"366 219 OFFCURVE",
"393 248 CURVE SMOOTH",
"395 250 OFFCURVE",
"397 253 OFFCURVE",
"400 255 CURVE SMOOTH",
"404 260 OFFCURVE",
"409 265 OFFCURVE",
"414 270 CURVE",
"409 234 OFFCURVE",
"404 198 OFFCURVE",
"398 162 CURVE",
"370 162 OFFCURVE",
"342 162 OFFCURVE",
"314 162 CURVE"
);
}
);
};
layerId = "C7668D88-AC50-4107-9C4B-DB5D26A8FA6C";
paths = (
{
closed = 1;
nodes = (
"157 0 LINE",
"180 25 OFFCURVE",
"205 49 OFFCURVE",
"228 74 CURVE",
"386 74 LINE",
"376 0 LINE",
"557 0 OFFCURVE",
"737 0 OFFCURVE",
"918 0 CURVE",
"935 123 LINE",
"612 123 LINE",
"618 167 LINE",
"715 167 OFFCURVE",
"811 167 OFFCURVE",
"908 167 CURVE",
"925 290 LINE",
"635 290 LINE",
"642 337 LINE",
"965 337 LINE",
"971 378 OFFCURVE",
"977 419 OFFCURVE",
"982 460 CURVE",
"564 460 LINE SMOOTH",
"506 460 OFFCURVE",
"448 460 OFFCURVE",
"391 402 CURVE SMOOTH",
"203 208 OFFCURVE",
"173 177 OFFCURVE",
"3 0 CURVE"
);
},
{
closed = 1;
nodes = (
"341 191 OFFCURVE",
"366 219 OFFCURVE",
"393 248 CURVE SMOOTH",
"395 250 OFFCURVE",
"397 253 OFFCURVE",
"400 255 CURVE SMOOTH",
"404 260 OFFCURVE",
"409 265 OFFCURVE",
"414 270 CURVE",
"409 234 OFFCURVE",
"404 198 OFFCURVE",
"398 162 CURVE",
"370 162 OFFCURVE",
"342 162 OFFCURVE",
"314 162 CURVE"
);
}
);
width = 968;
},
{
anchors = (
{
name = bottom;
position = "{324, 0}";
},
{
name = top;
position = "{508, 460}";
}
);
background = {
anchors = (
{
name = bottom;
position = "{324, 0}";
},
{
name = top;
position = "{508, 460}";
}
);
paths = (
{
closed = 1;
nodes = (
"-14 0 LINE",
"21 47 OFFCURVE",
"56 95 OFFCURVE",
"92 142 CURVE",
"307 142 LINE",
"287 0 LINE",
"408 0 OFFCURVE",
"530 0 OFFCURVE",
"651 0 CURVE",
"653 17 LINE",
"309 17 LINE",
"340 236 LINE",
"446 236 OFFCURVE",
"552 236 OFFCURVE",
"658 236 CURVE",
"660 253 LINE",
"342 253 LINE",
"369 443 LINE",
"713 443 LINE",
"714 449 OFFCURVE",
"714 454 OFFCURVE",
"715 460 CURVE",
"362 460 LINE SMOOTH",
"333 460 OFFCURVE",
"301 454 OFFCURVE",
"259 396 CURVE SMOOTH",
"162 264 OFFCURVE",
"64 132 OFFCURVE",
"-33 0 CURVE"
);
},
{
closed = 1;
nodes = (
"163 239 OFFCURVE",
"223 319 OFFCURVE",
"282 399 CURVE SMOOTH",
"299 424 OFFCURVE",
"319 443 OFFCURVE",
"343 443 CURVE SMOOTH",
"345 443 OFFCURVE",
"347 443 OFFCURVE",
"349 443 CURVE",
"336 348 OFFCURVE",
"322 254 OFFCURVE",
"309 159 CURVE",
"241 159 OFFCURVE",
"172 159 OFFCURVE",
"104 159 CURVE"
);
}
);
};
layerId = "B4E8C596-9C01-4F8A-BDA4-90320E25C0E6";
paths = (
{
closed = 1;
nodes = (
"-14 0 LINE",
"21 47 OFFCURVE",
"56 95 OFFCURVE",
"92 142 CURVE",
"307 142 LINE",
"287 0 LINE",
"408 0 OFFCURVE",
"530 0 OFFCURVE",
"651 0 CURVE",
"653 17 LINE",
"309 17 LINE",
"340 236 LINE",
"446 236 OFFCURVE",
"552 236 OFFCURVE",
"658 236 CURVE",
"660 253 LINE",
"342 253 LINE",
"369 443 LINE",
"713 443 LINE",
"714 449 OFFCURVE",
"714 454 OFFCURVE",
"715 460 CURVE",
"362 460 LINE SMOOTH",
"333 460 OFFCURVE",
"301 454 OFFCURVE",
"259 396 CURVE SMOOTH",
"162 264 OFFCURVE",
"64 132 OFFCURVE",
"-33 0 CURVE"
);
},
{
closed = 1;
nodes = (
"163 239 OFFCURVE",
"223 319 OFFCURVE",
"282 399 CURVE SMOOTH",
"299 424 OFFCURVE",
"319 443 OFFCURVE",
"343 443 CURVE SMOOTH",
"345 443 OFFCURVE",
"347 443 OFFCURVE",
"349 443 CURVE",
"336 348 OFFCURVE",
"322 254 OFFCURVE",
"309 159 CURVE",
"241 159 OFFCURVE",
"172 159 OFFCURVE",
"104 159 CURVE"
);
}
);
width = 704;
}
);
note = AE;
unicode = 00C6;
},
{
color = 7;
glyphname = B;
lastChange = "2021-09-09 18:59:20 +0000";
layers = (
{
background = {
hints = (
{
horizontal = 1;
place = "{0, 103}";
type = Stem;
},
{
horizontal = 1;
place = "{189, 97}";
type = Stem;
},
{
horizontal = 1;
place = "{372, 88}";
type = Stem;
},
{
place = "{40, 228}";
type = Stem;
},
{
place = "{434, 227}";
type = Stem;
}
);
paths = (
{
closed = 1;
nodes = (
"7 0 LINE",
"36 -1 OFFCURVE",
"313 -1 OFFCURVE",
"429 -1 CURVE SMOOTH",
"594 -1 OFFCURVE",
"631 22 OFFCURVE",
"647 137 CURVE SMOOTH",
"658 218 OFFCURVE",
"637 245 OFFCURVE",
"553 245 CURVE",
"580 245 OFFCURVE",
"647 255 OFFCURVE",
"661 348 CURVE SMOOTH",
"670 413 OFFCURVE",
"646 452 OFFCURVE",
"570 459 CURVE SMOOTH",
"513 464 OFFCURVE",
"405 462 OFFCURVE",
"118 460 CURVE SMOOTH",
"88 460 OFFCURVE",
"70 453 OFFCURVE",
"65 414 CURVE SMOOTH"
);
},
{
closed = 1;
nodes = (
"234 286 LINE",
"233 279 OFFCURVE",
"216 189 OFFCURVE",
"230 189 CURVE SMOOTH",
"381 189 LINE SMOOTH",
"421 189 OFFCURVE",
"425 177 OFFCURVE",
"421 147 CURVE SMOOTH",
"415 103 OFFCURVE",
"404 103 OFFCURVE",
"368 103 CURVE SMOOTH",
"254 103 OFFCURVE",
"265 103 OFFCURVE",
"249 103 CURVE",
"283 344 LINE SMOOTH",
"286 369 OFFCURVE",
"308 372 OFFCURVE",
"313 372 CURVE SMOOTH",
"347 372 OFFCURVE",
"381 372 OFFCURVE",
"404 372 CURVE SMOOTH",
"430 372 OFFCURVE",
"434 358 OFFCURVE",
"430 330 CURVE SMOOTH",
"424 286 OFFCURVE",
"412 286 OFFCURVE",
"388 286 CURVE SMOOTH"
);
}
);
};
layerId = "C7668D88-AC50-4107-9C4B-DB5D26A8FA6C";
paths = (
{
closed = 1;
nodes = (
"7 0 LINE",
"36 -1 OFFCURVE",
"313 -1 OFFCURVE",
"429 -1 CURVE SMOOTH",
"594 -1 OFFCURVE",
"631 22 OFFCURVE",
"647 137 CURVE SMOOTH",
"658 218 OFFCURVE",
"637 245 OFFCURVE",
"553 245 CURVE",
"580 245 OFFCURVE",
"647 255 OFFCURVE",
"661 348 CURVE SMOOTH",
"670 413 OFFCURVE",
"646 452 OFFCURVE",
"570 459 CURVE SMOOTH",
"513 464 OFFCURVE",
"405 462 OFFCURVE",
"118 460 CURVE SMOOTH",
"88 460 OFFCURVE",
"70 453 OFFCURVE",
"65 414 CURVE SMOOTH"
);
},
{
closed = 1;
nodes = (
"234 286 LINE",
"233 279 OFFCURVE",
"216 189 OFFCURVE",
"230 189 CURVE SMOOTH",
"381 189 LINE SMOOTH",
"421 189 OFFCURVE",
"425 177 OFFCURVE",
"421 147 CURVE SMOOTH",
"415 103 OFFCURVE",
"404 103 OFFCURVE",
"368 103 CURVE SMOOTH",
"254 103 OFFCURVE",
"265 103 OFFCURVE",
"249 103 CURVE",
"283 344 LINE SMOOTH",
"286 369 OFFCURVE",
"308 372 OFFCURVE",
"313 372 CURVE SMOOTH",
"347 372 OFFCURVE",
"381 372 OFFCURVE",
"404 372 CURVE SMOOTH",
"430 372 OFFCURVE",
"434 358 OFFCURVE",
"430 330 CURVE SMOOTH",
"424 286 OFFCURVE",
"412 286 OFFCURVE",
"388 286 CURVE SMOOTH"
);
}
);
width = 684;
},
{
background = {
paths = (
{
closed = 1;
nodes = (
"67 0 LINE",
"96 -2 OFFCURVE",
"152 -3 OFFCURVE",
"263 -3 CURVE SMOOTH",
"344 -3 OFFCURVE",
"464 -4 OFFCURVE",
"482 123 CURVE SMOOTH",
"497 232 OFFCURVE",
"436 238 OFFCURVE",
"402 238 CURVE",
"435 243 OFFCURVE",
"484 269 OFFCURVE",
"495 348 CURVE SMOOTH",
"504 413 OFFCURVE",
"480 452 OFFCURVE",
"404 459 CURVE SMOOTH",
"347 464 OFFCURVE",
"239 462 OFFCURVE",
"178 460 CURVE SMOOTH",
"148 459 OFFCURVE",
"130 453 OFFCURVE",
"125 414 CURVE SMOOTH"
);
},
{
closed = 1;
nodes = (
"166 244 LINE",
"165 237 OFFCURVE",
"163 227 OFFCURVE",
"175 227 CURVE SMOOTH",
"346 227 LINE SMOOTH",
"447 227 OFFCURVE",
"472 203 OFFCURVE",
"461 124 CURVE SMOOTH",
"446 14 OFFCURVE",
"351 14 OFFCURVE",
"266 14 CURVE SMOOTH",
"152 14 OFFCURVE",
"98 15 OFFCURVE",
"89 16 CURVE",
"145 416 LINE SMOOTH",
"149 441 OFFCURVE",
"171 443 OFFCURVE",
"176 443 CURVE SMOOTH",
"221 445 OFFCURVE",
"334 449 OFFCURVE",
"405 441 CURVE SMOOTH",
"461 435 OFFCURVE",
"481 403 OFFCURVE",
"474 350 CURVE SMOOTH",
"462 263 OFFCURVE",
"404 244 OFFCURVE",
"347 244 CURVE SMOOTH"
);
}
);
};
layerId = "B4E8C596-9C01-4F8A-BDA4-90320E25C0E6";
paths = (
{
closed = 1;
nodes = (
"67 0 LINE",
"96 -2 OFFCURVE",
"152 -3 OFFCURVE",
"263 -3 CURVE SMOOTH",
"344 -3 OFFCURVE",
"464 -4 OFFCURVE",
"482 123 CURVE SMOOTH",
"497 232 OFFCURVE",
"436 238 OFFCURVE",
"402 238 CURVE",
"435 243 OFFCURVE",
"484 269 OFFCURVE",
"495 348 CURVE SMOOTH",
"504 413 OFFCURVE",
"480 452 OFFCURVE",
"404 459 CURVE SMOOTH",
"347 464 OFFCURVE",
"239 462 OFFCURVE",
"178 460 CURVE SMOOTH",
"148 459 OFFCURVE",
"130 453 OFFCURVE",
"125 414 CURVE SMOOTH"
);
},
{
closed = 1;
nodes = (
"166 244 LINE",
"165 237 OFFCURVE",
"163 227 OFFCURVE",
"175 227 CURVE SMOOTH",
"346 227 LINE SMOOTH",
"447 227 OFFCURVE",
"472 203 OFFCURVE",
"461 124 CURVE SMOOTH",
"446 14 OFFCURVE",
"351 14 OFFCURVE",
"266 14 CURVE SMOOTH",
"152 14 OFFCURVE",
"98 15 OFFCURVE",
"89 16 CURVE",
"145 416 LINE SMOOTH",
"149 441 OFFCURVE",
"171 443 OFFCURVE",
"176 443 CURVE SMOOTH",
"221 445 OFFCURVE",
"334 449 OFFCURVE",
"405 441 CURVE SMOOTH",
"461 435 OFFCURVE",
"481 403 OFFCURVE",
"474 350 CURVE SMOOTH",
"462 263 OFFCURVE",
"404 244 OFFCURVE",
"347 244 CURVE SMOOTH"
);
}
);
width = 560;
}
);
leftKerningGroup = H;
leftMetricsKey = "=H-5";
note = B;
rightKerningGroup = B;
unicode = 0042;
},
{
color = 7;
glyphname = C;
lastChange = "2021-09-09 18:56:22 +0000";
layers = (
{
anchors = (
{
name = bottom;
position = "{313, 0}";
},
{
name = top;
position = "{378, 460}";
}
);
background = {
anchors = (
{
name = bottom;
position = "{313, 0}";
},
{
name = top;
position = "{378, 460}";
}
);
paths = (
{
closed = 1;
nodes = (
"-5 25 OFFCURVE",
"113 -6 OFFCURVE",
"358 -6 CURVE SMOOTH",
"417 -6 OFFCURVE",
"476 -4 OFFCURVE",
"530 4 CURVE SMOOTH",
"601 12 OFFCURVE",
"621 39 OFFCURVE",
"627 82 CURVE SMOOTH",
"636 146 LINE",
"536 127 OFFCURVE",
"471 117 OFFCURVE",
"412 117 CURVE SMOOTH",
"291 117 OFFCURVE",
"243 126 OFFCURVE",
"257 227 CURVE SMOOTH",
"272 334 OFFCURVE",
"322 339 OFFCURVE",
"426 339 CURVE SMOOTH",
"489 339 OFFCURVE",
"589 327 OFFCURVE",
"659 304 CURVE",
"668 373 LINE SMOOTH",
"675 419 OFFCURVE",
"662 444 OFFCURVE",
"597 452 CURVE SMOOTH",
"543 459 OFFCURVE",
"493 462 OFFCURVE",
"433 462 CURVE SMOOTH",
"229 462 OFFCURVE",
"55 451 OFFCURVE",
"24 226 CURVE SMOOTH"
);
}
);
};
layerId = "C7668D88-AC50-4107-9C4B-DB5D26A8FA6C";
paths = (
{
closed = 1;
nodes = (
"-5 25 OFFCURVE",
"113 -6 OFFCURVE",
"358 -6 CURVE SMOOTH",
"417 -6 OFFCURVE",
"476 -4 OFFCURVE",
"530 4 CURVE SMOOTH",
"601 12 OFFCURVE",
"621 39 OFFCURVE",
"627 82 CURVE SMOOTH",
"636 146 LINE",
"536 127 OFFCURVE",
"471 117 OFFCURVE",
"412 117 CURVE SMOOTH",
"291 117 OFFCURVE",
"243 126 OFFCURVE",
"257 227 CURVE SMOOTH",
"272 334 OFFCURVE",
"322 339 OFFCURVE",
"426 339 CURVE SMOOTH",
"489 339 OFFCURVE",
"589 327 OFFCURVE",
"659 304 CURVE",
"668 373 LINE SMOOTH",
"675 419 OFFCURVE",
"662 444 OFFCURVE",
"597 452 CURVE SMOOTH",
"543 459 OFFCURVE",
"493 462 OFFCURVE",
"433 462 CURVE SMOOTH",
"229 462 OFFCURVE",
"55 451 OFFCURVE",
"24 226 CURVE SMOOTH"
);
}
);
width = 663;
},
{
anchors = (
{
name = bottom;
position = "{244, 0}";
},
{
name = top;
position = "{308, 460}";
}
);
background = {
anchors = (
{
name = bottom;
position = "{244, 0}";
},
{
name = top;
position = "{308, 460}";
}
);
paths = (
{
closed = 1;
nodes = (
"26 33 OFFCURVE",
"83 -8 OFFCURVE",
"246 -8 CURVE SMOOTH",
"292 -8 OFFCURVE",
"336 -5 OFFCURVE",
"382 4 CURVE SMOOTH",
"412 9 OFFCURVE",
"419 16 OFFCURVE",
"420 25 CURVE SMOOTH",
"421 33 LINE",
"391 18 OFFCURVE",
"300 8 OFFCURVE",
"246 8 CURVE SMOOTH",
"85 8 OFFCURVE",
"51 63 OFFCURVE",
"74 230 CURVE SMOOTH",
"97 395 OFFCURVE",
"154 450 OFFCURVE",
"308 450 CURVE SMOOTH",
"362 450 OFFCURVE",
"451 440 OFFCURVE",
"477 425 CURVE",
"478 433 LINE SMOOTH",
"479 442 OFFCURVE",
"474 449 OFFCURVE",
"446 454 CURVE SMOOTH",
"402 463 OFFCURVE",
"358 466 OFFCURVE",
"312 466 CURVE SMOOTH",
"156 466 OFFCURVE",
"81 422 OFFCURVE",
"54 230 CURVE SMOOTH"
);
}
);
};
layerId = "B4E8C596-9C01-4F8A-BDA4-90320E25C0E6";
paths = (
{
closed = 1;
nodes = (
"26 33 OFFCURVE",
"83 -8 OFFCURVE",
"246 -8 CURVE SMOOTH",
"292 -8 OFFCURVE",
"336 -5 OFFCURVE",
"382 4 CURVE SMOOTH",
"412 9 OFFCURVE",
"419 16 OFFCURVE",
"420 25 CURVE SMOOTH",
"421 33 LINE",
"391 18 OFFCURVE",
"300 8 OFFCURVE",
"246 8 CURVE SMOOTH",
"85 8 OFFCURVE",
"51 63 OFFCURVE",
"74 230 CURVE SMOOTH",
"97 395 OFFCURVE",
"154 450 OFFCURVE",
"308 450 CURVE SMOOTH",
"362 450 OFFCURVE",
"451 440 OFFCURVE",
"477 425 CURVE",
"478 433 LINE SMOOTH",
"479 442 OFFCURVE",
"474 449 OFFCURVE",
"446 454 CURVE SMOOTH",
"402 463 OFFCURVE",
"358 466 OFFCURVE",
"312 466 CURVE SMOOTH",
"156 466 OFFCURVE",
"81 422 OFFCURVE",
"54 230 CURVE SMOOTH"
);
}
);
width = 476;
}
);
leftKerningGroup = O;
leftMetricsKey = O;
note = C;
rightKerningGroup = C;
unicode = 0043;
},
{
color = 7;
glyphname = D;
lastChange = "2021-09-09 18:56:22 +0000";
layers = (
{
anchors = (
{
name = bottom;
position = "{288, 0}";
},
{
name = center;
position = "{364, 230}";
},
{
name = top;
position = "{366, 460}";
}
);
background = {
anchors = (
{
name = bottom;
position = "{288, 0}";
},
{
name = center;
position = "{364, 230}";
},
{
name = top;
position = "{366, 460}";
}
);
paths = (
{
closed = 1;
nodes = (
"706 450 OFFCURVE",
"584 460 OFFCURVE",
"419 460 CURVE SMOOTH",
"330 460 OFFCURVE",
"242 460 OFFCURVE",
"153 460 CURVE SMOOTH",
"91 460 OFFCURVE",
"74 437 OFFCURVE",
"66 381 CURVE SMOOTH",
"13 0 LINE",
"107 0 OFFCURVE",
"201 0 OFFCURVE",
"295 0 CURVE SMOOTH",
"508 0 OFFCURVE",
"643 4 OFFCURVE",
"674 226 CURVE SMOOTH"
);
},
{
closed = 1;
nodes = (
"285 318 LINE",
"287 328 OFFCURVE",
"288 339 OFFCURVE",
"290 349 CURVE",
"315 349 OFFCURVE",
"341 349 OFFCURVE",
"366 349 CURVE SMOOTH",
"440 349 OFFCURVE",
"465 342 OFFCURVE",
"449 227 CURVE SMOOTH",
"439 158 OFFCURVE",
"413 112 OFFCURVE",
"341 112 CURVE SMOOTH",
"313 112 OFFCURVE",
"284 112 OFFCURVE",
"256 112 CURVE"
);
},
{
closed = 1;
nodes = (
"223 117 OFFCURVE",
"274 168 OFFCURVE",
"274 231 CURVE SMOOTH",
"274 294 OFFCURVE",
"223 345 OFFCURVE",
"160 345 CURVE SMOOTH",
"97 345 OFFCURVE",
"46 294 OFFCURVE",
"46 231 CURVE SMOOTH",
"46 168 OFFCURVE",
"97 117 OFFCURVE",
"160 117 CURVE SMOOTH"
);
}
);
};
layerId = "C7668D88-AC50-4107-9C4B-DB5D26A8FA6C";
paths = (
{
closed = 1;
nodes = (
"706 450 OFFCURVE",
"584 460 OFFCURVE",
"419 460 CURVE SMOOTH",
"330 460 OFFCURVE",
"242 460 OFFCURVE",
"153 460 CURVE SMOOTH",
"91 460 OFFCURVE",
"74 437 OFFCURVE",
"66 381 CURVE SMOOTH",
"13 0 LINE",
"107 0 OFFCURVE",
"201 0 OFFCURVE",
"295 0 CURVE SMOOTH",
"508 0 OFFCURVE",
"643 4 OFFCURVE",
"674 226 CURVE SMOOTH"
);
},
{
closed = 1;
nodes = (
"285 318 LINE",
"287 328 OFFCURVE",
"288 339 OFFCURVE",
"290 349 CURVE",
"315 349 OFFCURVE",
"341 349 OFFCURVE",
"366 349 CURVE SMOOTH",
"440 349 OFFCURVE",
"465 342 OFFCURVE",
"449 227 CURVE SMOOTH",
"439 158 OFFCURVE",
"413 112 OFFCURVE",
"341 112 CURVE SMOOTH",
"313 112 OFFCURVE",
"284 112 OFFCURVE",
"256 112 CURVE"
);
}
);
width = 690;
},
{
anchors = (
{
name = bottom;
position = "{253, 0}";
},
{
name = center;
position = "{305, 230}";
},
{
name = top;
position = "{318, 460}";
}
);
background = {
anchors = (
{
name = bottom;
position = "{253, 0}";
},
{
name = center;
position = "{305, 230}";
},
{
name = top;
position = "{318, 460}";
}
);
paths = (
{
closed = 1;
nodes = (
"553 450 OFFCURVE",
"478 455 OFFCURVE",
"360 462 CURVE SMOOTH",
"323 464 OFFCURVE",
"207 462 OFFCURVE",
"181 460 CURVE SMOOTH",
"135 456 OFFCURVE",
"134 438 OFFCURVE",
"128 398 CURVE SMOOTH",
"72 0 LINE",
"92 0 OFFCURVE",
"194 -3 OFFCURVE",
"241 -3 CURVE SMOOTH",
"383 -3 OFFCURVE",
"488 -10 OFFCURVE",
"521 225 CURVE SMOOTH"
);
},
{
closed = 1;
nodes = (
"148 404 LINE SMOOTH",
"152 434 OFFCURVE",
"160 438 OFFCURVE",
"175 441 CURVE SMOOTH",
"202 446 OFFCURVE",
"295 446 OFFCURVE",
"324 446 CURVE SMOOTH",
"485 446 OFFCURVE",
"527 408 OFFCURVE",
"501 224 CURVE SMOOTH",
"476 42 OFFCURVE",
"417 14 OFFCURVE",
"256 14 CURVE SMOOTH",
"223 14 OFFCURVE",
"110 16 OFFCURVE",
"94 17 CURVE"
);
}
);
};
layerId = "B4E8C596-9C01-4F8A-BDA4-90320E25C0E6";
paths = (
{
closed = 1;
nodes = (
"553 450 OFFCURVE",
"478 455 OFFCURVE",
"360 462 CURVE SMOOTH",
"323 464 OFFCURVE",
"207 462 OFFCURVE",
"181 460 CURVE SMOOTH",
"135 456 OFFCURVE",
"134 438 OFFCURVE",
"128 398 CURVE SMOOTH",
"72 0 LINE",
"92 0 OFFCURVE",
"194 -3 OFFCURVE",
"241 -3 CURVE SMOOTH",
"383 -3 OFFCURVE",
"488 -10 OFFCURVE",
"521 225 CURVE SMOOTH"
);
},
{
closed = 1;
nodes = (
"148 404 LINE SMOOTH",
"152 434 OFFCURVE",
"160 438 OFFCURVE",
"175 441 CURVE SMOOTH",
"202 446 OFFCURVE",
"295 446 OFFCURVE",
"324 446 CURVE SMOOTH",
"485 446 OFFCURVE",
"527 408 OFFCURVE",
"501 224 CURVE SMOOTH",
"476 42 OFFCURVE",
"417 14 OFFCURVE",
"256 14 CURVE SMOOTH",
"223 14 OFFCURVE",
"110 16 OFFCURVE",
"94 17 CURVE"
);
}
);
width = 567;
}
);
leftKerningGroup = H;
leftMetricsKey = H;
note = D;
rightKerningGroup = O;
rightMetricsKey = O;
unicode = 0044;
},
{
color = 7;
glyphname = E;
lastChange = "2021-09-09 18:56:22 +0000";
layers = (
{
anchors = (
{
name = bottom;
position = "{308, 0}";
},
{
name = ogonek;
position = "{575, 10}";
},
{
name = top;
position = "{373, 460}";
},
{
name = topleft;
position = "{61, 460}";
}
);
background = {
anchors = (
{
name = bottom;
position = "{308, 0}";
},
{
name = ogonek;
position = "{575, 10}";
},
{
name = top;
position = "{373, 460}";
},
{
name = topleft;
position = "{61, 460}";
}
);
paths = (
{
closed = 1;
nodes = (
"596 0 LINE",
"612 116 LINE",
"257 116 LINE",
"265 174 LINE",
"585 174 LINE",
"601 289 LINE",
"281 289 LINE",
"289 344 LINE",
"644 344 LINE",
"660 460 LINE",
"150 460 LINE SMOOTH",
"76 460 OFFCURVE",
"74 440 OFFCURVE",
"65 380 CURVE SMOOTH",
"12 0 LINE"
);
}
);
};
layerId = "C7668D88-AC50-4107-9C4B-DB5D26A8FA6C";
paths = (
{
closed = 1;
nodes = (
"596 0 LINE",
"612 116 LINE",
"257 116 LINE",
"265 174 LINE",
"585 174 LINE",
"601 289 LINE",
"281 289 LINE",
"289 344 LINE",
"644 344 LINE",
"660 460 LINE",
"150 460 LINE SMOOTH",
"76 460 OFFCURVE",
"74 440 OFFCURVE",
"65 380 CURVE SMOOTH",
"12 0 LINE"
);
}
);
width = 649;
},
{
anchors = (
{
name = bottom;
position = "{252, 0}";
},
{
name = ogonek;
position = "{435, 10}";
},
{
name = top;
position = "{317, 460}";
},
{
name = topleft;
position = "{109, 460}";
}
);
background = {
anchors = (
{
name = bottom;
position = "{252, 0}";
},
{
name = ogonek;
position = "{435, 10}";
},
{
name = top;
position = "{317, 460}";
},
{
name = topleft;
position = "{109, 460}";
}
);
paths = (
{
closed = 1;
nodes = (
"436 0 LINE",
"438 17 LINE",
"94 17 LINE",
"125 236 LINE",
"443 236 LINE",
"445 253 LINE",
"127 253 LINE",
"154 443 LINE",
"498 443 LINE",
"500 460 LINE",
"146 460 LINE SMOOTH",
"136 460 OFFCURVE",
"135 453 OFFCURVE",
"134 441 CURVE SMOOTH",
"72 0 LINE"
);
}
);
};
layerId = "B4E8C596-9C01-4F8A-BDA4-90320E25C0E6";
paths = (
{
closed = 1;
nodes = (
"436 0 LINE",
"438 17 LINE",
"94 17 LINE",
"125 236 LINE",
"443 236 LINE",
"445 253 LINE",
"127 253 LINE",
"154 443 LINE",
"498 443 LINE",
"500 460 LINE",
"146 460 LINE SMOOTH",
"136 460 OFFCURVE",
"135 453 OFFCURVE",
"134 441 CURVE SMOOTH",
"72 0 LINE"
);
}
);
width = 507;
}
);
leftKerningGroup = H;
leftMetricsKey = H;
note = E;
rightKerningGroup = E;
unicode = 0045;
},
{
color = 7;
glyphname = F;
lastChange = "2021-09-09 18:56:22 +0000";
layers = (
{
background = {
paths = (
{
closed = 1;
nodes = (
"241 0 LINE",
"265 174 LINE",
"585 174 LINE",
"601 289 LINE",
"281 289 LINE",
"289 344 LINE",
"644 344 LINE",
"660 460 LINE",
"150 460 LINE SMOOTH",
"76 460 OFFCURVE",
"74 440 OFFCURVE",
"65 380 CURVE SMOOTH",
"12 0 LINE"
);
}
);
};
layerId = "C7668D88-AC50-4107-9C4B-DB5D26A8FA6C";
paths = (
{
closed = 1;
nodes = (
"241 0 LINE",
"265 174 LINE",
"585 174 LINE",
"601 289 LINE",
"281 289 LINE",
"289 344 LINE",
"644 344 LINE",
"660 460 LINE",
"150 460 LINE SMOOTH",
"76 460 OFFCURVE",
"74 440 OFFCURVE",
"65 380 CURVE SMOOTH",
"12 0 LINE"
);
}
);
width = 643;
},
{
background = {
paths = (
{
closed = 1;
nodes = (
"92 0 LINE",
"125 236 LINE",
"443 236 LINE",
"445 253 LINE",
"127 253 LINE",
"154 443 LINE",
"498 443 LINE",
"500 460 LINE",
"146 460 LINE SMOOTH",
"136 460 OFFCURVE",
"135 453 OFFCURVE",
"134 441 CURVE SMOOTH",
"72 0 LINE"
);
}
);
};
layerId = "B4E8C596-9C01-4F8A-BDA4-90320E25C0E6";
paths = (
{
closed = 1;
nodes = (
"92 0 LINE",
"125 236 LINE",
"443 236 LINE",
"445 253 LINE",
"127 253 LINE",
"154 443 LINE",
"498 443 LINE",
"500 460 LINE",
"146 460 LINE SMOOTH",
"136 460 OFFCURVE",
"135 453 OFFCURVE",
"134 441 CURVE SMOOTH",
"72 0 LINE"
);
}
);
width = 500;
}
);
leftKerningGroup = H;
leftMetricsKey = H;
note = F;
rightKerningGroup = F;
unicode = 0046;
},
{
color = 7;
glyphname = G;
lastChange = "2021-09-09 18:56:22 +0000";
layers = (
{
anchors = (
{
name = bottom;
position = "{335, 0}";
},
{
name = top;
position = "{400, 460}";
}
);
background = {
anchors = (
{
name = bottom;
position = "{335, 0}";
},
{
name = top;
position = "{400, 460}";
}
);
paths = (
{
closed = 1;
nodes = (
"293 -3 OFFCURVE",
"308 -3 OFFCURVE",
"323 -3 CURVE SMOOTH",
"527 -3 OFFCURVE",
"665 -3 OFFCURVE",
"688 158 CURVE SMOOTH",
"707 290 LINE",
"419 290 LINE SMOOTH",
"325 290 OFFCURVE",
"315 263 OFFCURVE",
"303 174 CURVE",
"493 174 LINE",
"492 168 OFFCURVE",
"491 163 OFFCURVE",
"491 157 CURVE SMOOTH",
"487 131 OFFCURVE",
"463 117 OFFCURVE",
"356 117 CURVE SMOOTH",
"276 117 OFFCURVE",
"236 130 OFFCURVE",
"249 227 CURVE SMOOTH",
"265 337 OFFCURVE",
"305 348 OFFCURVE",
"443 348 CURVE SMOOTH",
"470 348 OFFCURVE",
"679 346 OFFCURVE",
"693 316 CURVE",
"701 370 LINE SMOOTH",
"705 402 OFFCURVE",
"709 441 OFFCURVE",
"644 454 CURVE SMOOTH",
"613 462 OFFCURVE",
"524 465 OFFCURVE",
"434 465 CURVE SMOOTH",
"202 465 OFFCURVE",
"55 443 OFFCURVE",
"24 226 CURVE SMOOTH",
"-3 34 OFFCURVE",
"91 2 OFFCURVE",
"278 -3 CURVE SMOOTH"
);
}
);
};
layerId = "C7668D88-AC50-4107-9C4B-DB5D26A8FA6C";
paths = (
{
closed = 1;
nodes = (
"293 -3 OFFCURVE",
"308 -3 OFFCURVE",
"323 -3 CURVE SMOOTH",
"527 -3 OFFCURVE",
"665 -3 OFFCURVE",
"688 158 CURVE SMOOTH",
"707 290 LINE",
"419 290 LINE SMOOTH",
"325 290 OFFCURVE",
"315 263 OFFCURVE",
"303 174 CURVE",
"493 174 LINE",
"492 168 OFFCURVE",
"491 163 OFFCURVE",
"491 157 CURVE SMOOTH",
"487 131 OFFCURVE",
"463 117 OFFCURVE",
"356 117 CURVE SMOOTH",
"276 117 OFFCURVE",
"236 130 OFFCURVE",
"249 227 CURVE SMOOTH",
"265 337 OFFCURVE",
"305 348 OFFCURVE",
"443 348 CURVE SMOOTH",
"470 348 OFFCURVE",
"679 346 OFFCURVE",
"693 316 CURVE",
"701 370 LINE SMOOTH",
"705 402 OFFCURVE",
"709 441 OFFCURVE",
"644 454 CURVE SMOOTH",
"613 462 OFFCURVE",
"524 465 OFFCURVE",
"434 465 CURVE SMOOTH",
"202 465 OFFCURVE",
"55 443 OFFCURVE",
"24 226 CURVE SMOOTH",
"-3 34 OFFCURVE",
"91 2 OFFCURVE",
"278 -3 CURVE SMOOTH"
);
}
);
width = 717;
},
{
anchors = (
{
name = bottom;
position = "{232, 0}";
},
{
name = top;
position = "{297, 460}";
}
);
background = {
anchors = (
{
name = bottom;
position = "{232, 0}";
},
{
name = top;
position = "{297, 460}";
}
);
paths = (
{
closed = 1;
nodes = (
"231 -9 OFFCURVE",
"232 -9 OFFCURVE",
"234 -9 CURVE SMOOTH",
"368 -9 OFFCURVE",
"441 32 OFFCURVE",
"463 187 CURVE SMOOTH",
"471 246 LINE",
"267 246 LINE SMOOTH",
"252 246 OFFCURVE",
"250 244 OFFCURVE",
"248 229 CURVE",
"449 229 LINE",
"448 222 OFFCURVE",
"447 206 OFFCURVE",
"443 185 CURVE SMOOTH",
"417 39 OFFCURVE",
"364 8 OFFCURVE",
"235 8 CURVE SMOOTH",
"84 8 OFFCURVE",
"51 67 OFFCURVE",
"74 230 CURVE SMOOTH",
"97 395 OFFCURVE",
"154 450 OFFCURVE",
"308 450 CURVE SMOOTH",
"362 450 OFFCURVE",
"451 440 OFFCURVE",
"477 425 CURVE",
"478 433 LINE SMOOTH",
"479 442 OFFCURVE",
"474 449 OFFCURVE",
"446 454 CURVE SMOOTH",
"402 463 OFFCURVE",
"358 466 OFFCURVE",
"312 466 CURVE SMOOTH",
"158 466 OFFCURVE",
"81 422 OFFCURVE",
"54 230 CURVE SMOOTH",
"28 40 OFFCURVE",
"83 -8 OFFCURVE",
"229 -9 CURVE SMOOTH"
);
}
);
};
layerId = "B4E8C596-9C01-4F8A-BDA4-90320E25C0E6";
paths = (
{
closed = 1;
nodes = (
"231 -9 OFFCURVE",
"232 -9 OFFCURVE",
"234 -9 CURVE SMOOTH",
"368 -9 OFFCURVE",
"441 32 OFFCURVE",
"463 187 CURVE SMOOTH",
"471 246 LINE",
"267 246 LINE SMOOTH",
"252 246 OFFCURVE",
"250 244 OFFCURVE",
"248 229 CURVE",
"449 229 LINE",
"448 222 OFFCURVE",
"447 206 OFFCURVE",
"443 185 CURVE SMOOTH",
"417 39 OFFCURVE",
"364 8 OFFCURVE",
"235 8 CURVE SMOOTH",
"84 8 OFFCURVE",
"51 67 OFFCURVE",
"74 230 CURVE SMOOTH",
"97 395 OFFCURVE",
"154 450 OFFCURVE",
"308 450 CURVE SMOOTH",
"362 450 OFFCURVE",
"451 440 OFFCURVE",
"477 425 CURVE",
"478 433 LINE SMOOTH",
"479 442 OFFCURVE",
"474 449 OFFCURVE",
"446 454 CURVE SMOOTH",
"402 463 OFFCURVE",
"358 466 OFFCURVE",
"312 466 CURVE SMOOTH",
"158 466 OFFCURVE",
"81 422 OFFCURVE",
"54 230 CURVE SMOOTH",
"28 40 OFFCURVE",
"83 -8 OFFCURVE",
"229 -9 CURVE SMOOTH"
);
}
);
width = 507;
}
);
leftKerningGroup = O;
leftMetricsKey = O;
note = G;
rightKerningGroup = G;
unicode = 0047;
},
{
color = 7;
glyphname = H;
lastChange = "2021-09-09 18:56:22 +0000";
layers = (
{
anchors = (
{
name = bottom;
position = "{328, 0}";
},
{
name = center;
position = "{360, 230}";
},
{
name = top;
position = "{393, 460}";
},
{
name = topleft;
position = "{61, 460}";
}
);
background = {
anchors = (
{
name = bottom;
position = "{328, 0}";
},
{
name = center;
position = "{360, 230}";
},
{
name = top;
position = "{393, 460}";
},
{
name = topleft;
position = "{61, 460}";
}
);
paths = (
{
closed = 1;
nodes = (
"240 0 LINE",
"265 182 LINE",
"433 182 LINE",
"408 0 LINE",
"570 0 LINE SMOOTH",
"642 0 OFFCURVE",
"641 36 OFFCURVE",
"646 77 CURVE SMOOTH",
"700 460 LINE",
"472 460 LINE",
"449 297 LINE",
"281 297 LINE",
"304 460 LINE",
"150 460 LINE SMOOTH",
"76 460 OFFCURVE",
"73 435 OFFCURVE",
"67 395 CURVE SMOOTH",
"12 0 LINE"
);
}
);
};
layerId = "C7668D88-AC50-4107-9C4B-DB5D26A8FA6C";
paths = (
{
closed = 1;
nodes = (
"240 0 LINE",
"265 182 LINE",
"433 182 LINE",
"408 0 LINE",
"570 0 LINE SMOOTH",
"642 0 OFFCURVE",
"641 36 OFFCURVE",
"646 77 CURVE SMOOTH",
"700 460 LINE",
"472 460 LINE",
"449 297 LINE",
"281 297 LINE",
"304 460 LINE",
"150 460 LINE SMOOTH",
"76 460 OFFCURVE",
"73 435 OFFCURVE",
"67 395 CURVE SMOOTH",
"12 0 LINE"
);
}
);
width = 704;
},
{
anchors = (
{
name = bottom;
position = "{273, 0}";
},
{
name = center;
position = "{305, 230}";
},
{
name = top;
position = "{334, 460}";
},
{
name = topleft;
position = "{109, 460}";
}
);
background = {
anchors = (
{
name = bottom;
position = "{273, 0}";
},
{
name = center;
position = "{305, 230}";
},
{
name = top;
position = "{334, 460}";
},
{
name = topleft;
position = "{109, 460}";
}
);
paths = (
{
closed = 1;
nodes = (
"92 0 LINE",
"124 229 LINE",
"478 229 LINE",
"446 0 LINE",
"454 0 LINE SMOOTH",
"464 0 OFFCURVE",
"466 3 OFFCURVE",
"468 18 CURVE SMOOTH",
"530 460 LINE",
"510 460 LINE",
"480 246 LINE",
"126 246 LINE",
"156 460 LINE",
"148 460 LINE SMOOTH",
"138 460 OFFCURVE",
"136 457 OFFCURVE",
"134 442 CURVE SMOOTH",
"72 0 LINE"
);
}
);
};
layerId = "B4E8C596-9C01-4F8A-BDA4-90320E25C0E6";
paths = (
{
closed = 1;
nodes = (
"92 0 LINE",
"124 229 LINE",
"478 229 LINE",
"446 0 LINE",
"454 0 LINE SMOOTH",
"464 0 OFFCURVE",
"466 3 OFFCURVE",
"468 18 CURVE SMOOTH",
"530 460 LINE",
"510 460 LINE",
"480 246 LINE",
"126 246 LINE",
"156 460 LINE",
"148 460 LINE SMOOTH",
"138 460 OFFCURVE",
"136 457 OFFCURVE",
"134 442 CURVE SMOOTH",
"72 0 LINE"
);
}
);
width = 594;
}
);
leftKerningGroup = H;
note = H;
rightKerningGroup = H;
unicode = 0048;
},
{
color = 7;
glyphname = I;
lastChange = "2021-09-09 18:56:22 +0000";
layers = (
{
anchors = (
{
name = bottom;
position = "{126, 0}";
},
{
name = ogonek;
position = "{194, 10}";
},
{
name = top;
position = "{198, 460}";
},
{
name = topleft;
position = "{61, 460}";
}
);
background = {
anchors = (
{
name = bottom;
position = "{126, 0}";
},
{
name = ogonek;
position = "{194, 10}";
},
{
name = top;
position = "{198, 460}";
},
{
name = topleft;
position = "{61, 460}";
}
);
paths = (
{
closed = 1;
nodes = (
"240 0 LINE",
"304 460 LINE",
"150 460 LINE",
"77 460 OFFCURVE",
"73 436 OFFCURVE",
"67 394 CURVE SMOOTH",
"49 263 OFFCURVE",
"30 131 OFFCURVE",
"12 0 CURVE"
);
}
);
};
layerId = "C7668D88-AC50-4107-9C4B-DB5D26A8FA6C";
paths = (
{
closed = 1;
nodes = (
"240 0 LINE",
"304 460 LINE",
"150 460 LINE",
"77 460 OFFCURVE",
"73 436 OFFCURVE",
"67 394 CURVE SMOOTH",
"49 263 OFFCURVE",
"30 131 OFFCURVE",
"12 0 CURVE"
);
}
);
width = 308;
},
{
anchors = (
{
name = bottom;
position = "{82, 0}";
},
{
name = ogonek;
position = "{92, 7}";
},
{
name = top;
position = "{149, 460}";
},
{
name = topleft;
position = "{73, 460}";
}
);
background = {
anchors = (
{
name = bottom;
position = "{82, 0}";
},
{
name = ogonek;
position = "{92, 7}";
},
{
name = top;
position = "{149, 460}";
},
{
name = topleft;
position = "{73, 460}";
}
);
paths = (
{
closed = 1;
nodes = (
"92 0 LINE",
"156 460 LINE",
"146 460 LINE SMOOTH",
"136 460 OFFCURVE",
"135 453 OFFCURVE",
"134 441 CURVE SMOOTH",
"113 294 OFFCURVE",
"92 147 OFFCURVE",
"72 0 CURVE"
);
}
);
};
layerId = "B4E8C596-9C01-4F8A-BDA4-90320E25C0E6";
paths = (
{
closed = 1;
nodes = (
"92 0 LINE",
"156 460 LINE",
"146 460 LINE SMOOTH",
"136 460 OFFCURVE",
"135 453 OFFCURVE",
"134 441 CURVE SMOOTH",
"113 294 OFFCURVE",
"92 147 OFFCURVE",
"72 0 CURVE"
);
}
);
width = 220;
}
);
leftKerningGroup = I;
leftMetricsKey = H;
note = I;
rightKerningGroup = I;
rightMetricsKey = H;
unicode = 0049;
},
{
color = 7;
glyphname = J;
lastChange = "2021-09-09 18:56:22 +0000";
layers = (
{
anchors = (
{
name = bottom;
position = "{174, 0}";
},
{
name = top;
position = "{280, 460}";
}
);
background = {
anchors = (
{
name = bottom;
position = "{174, 0}";
},
{
name = top;
position = "{280, 460}";
}
);
paths = (
{
closed = 1;
nodes = (
"386 379 LINE SMOOTH",
"393 433 OFFCURVE",
"402 460 OFFCURVE",
"324 460 CURVE SMOOTH",
"170 460 LINE",
"127 157 LINE SMOOTH",
"124 137 OFFCURVE",
"115 118 OFFCURVE",
"91 118 CURVE SMOOTH",
"68 118 OFFCURVE",
"28 129 OFFCURVE",
"11 136 CURVE",
"-7 6 LINE",
"68 -1 OFFCURVE",
"104 -5 OFFCURVE",
"184 -1 CURVE SMOOTH",
"243 2 OFFCURVE",
"319 15 OFFCURVE",
"343 90 CURVE SMOOTH",
"348 105 OFFCURVE",
"351 126 OFFCURVE",
"354 148 CURVE SMOOTH"
);
}
);
};
layerId = "C7668D88-AC50-4107-9C4B-DB5D26A8FA6C";
paths = (
{
closed = 1;
nodes = (
"386 379 LINE SMOOTH",
"393 433 OFFCURVE",
"402 460 OFFCURVE",
"324 460 CURVE SMOOTH",
"170 460 LINE",
"127 157 LINE SMOOTH",
"124 137 OFFCURVE",
"115 118 OFFCURVE",
"91 118 CURVE SMOOTH",
"68 118 OFFCURVE",
"28 129 OFFCURVE",
"11 136 CURVE",
"-7 6 LINE",
"68 -1 OFFCURVE",
"104 -5 OFFCURVE",
"184 -1 CURVE SMOOTH",
"243 2 OFFCURVE",
"319 15 OFFCURVE",
"343 90 CURVE SMOOTH",
"348 105 OFFCURVE",
"351 126 OFFCURVE",
"354 148 CURVE SMOOTH"
);
}
);
width = 396;
},
{
anchors = (
{
name = bottom;
position = "{92, 0}";
},
{
name = top;
position = "{186, 460}";
}
);
background = {
anchors = (
{
name = bottom;
position = "{92, 0}";
},
{
name = top;
position = "{186, 460}";
}
);
paths = (
{
closed = 1;
nodes = (
"195 445 LINE SMOOTH",
"196 454 OFFCURVE",
"197 460 OFFCURVE",
"188 460 CURVE SMOOTH",
"178 460 LINE",
"123 69 LINE SMOOTH",
"117 26 OFFCURVE",
"97 13 OFFCURVE",
"53 13 CURVE SMOOTH",
"43 13 OFFCURVE",
"21 16 OFFCURVE",
"15 19 CURVE",
"12 2 LINE",
"30 -3 OFFCURVE",
"56 -3 OFFCURVE",
"65 -3 CURVE SMOOTH",
"110 -3 OFFCURVE",
"130 25 OFFCURVE",
"138 49 CURVE SMOOTH",
"145 73 OFFCURVE",
"150 122 OFFCURVE",
"154 150 CURVE SMOOTH"
);
}
);
};
layerId = "B4E8C596-9C01-4F8A-BDA4-90320E25C0E6";
paths = (
{
closed = 1;
nodes = (
"195 445 LINE SMOOTH",
"196 454 OFFCURVE",
"197 460 OFFCURVE",
"188 460 CURVE SMOOTH",
"178 460 LINE",
"123 69 LINE SMOOTH",
"117 26 OFFCURVE",
"97 13 OFFCURVE",
"53 13 CURVE SMOOTH",
"43 13 OFFCURVE",
"21 16 OFFCURVE",
"15 19 CURVE",
"12 2 LINE",
"30 -3 OFFCURVE",
"56 -3 OFFCURVE",
"65 -3 CURVE SMOOTH",
"110 -3 OFFCURVE",
"130 25 OFFCURVE",
"138 49 CURVE SMOOTH",
"145 73 OFFCURVE",
"150 122 OFFCURVE",
"154 150 CURVE SMOOTH"
);
}
);
width = 256;
}
);
leftKerningGroup = J;
note = J;
rightKerningGroup = J;
rightMetricsKey = "=H-5";
unicode = 004A;
},
{
color = 7;
glyphname = K;
lastChange = "2021-09-10 04:18:22 +0000";
layers = (
{
anchors = (
{
name = bottom;
position = "{324, 0}";
},
{
name = top;
position = "{389, 460}";
}
);
background = {
anchors = (
{
name = bottom;
position = "{324, 0}";
},
{
name = top;
position = "{389, 460}";
}
);
hints = (
{
horizontal = 1;
place = "{0, 21}";
target = up;
type = BottomGhost;
},
{
horizontal = 1;
place = "{446, 22}";
type = Stem;
},
{
place = "{40, 227}";
type = Stem;
}
);
paths = (
{
closed = 1;
nodes = (
"665 417 LINE SMOOTH",
"677 424 OFFCURVE",
"720 453 OFFCURVE",
"725 456 CURVE",
"721 459 OFFCURVE",
"512 482 OFFCURVE",
"447 439 CURVE SMOOTH",
"408 413 OFFCURVE",
"333 364 OFFCURVE",
"321 356 CURVE SMOOTH",
"305 346 OFFCURVE",
"293 338 OFFCURVE",
"289 335 CURVE",
"289 335 OFFCURVE",
"285 333 OFFCURVE",
"285 333 CURVE",
"291 371 OFFCURVE",
"298 422 OFFCURVE",
"303 460 CURVE",
"252 460 OFFCURVE",
"200 460 OFFCURVE",
"149 460 CURVE SMOOTH",
"77 460 OFFCURVE",
"73 436 OFFCURVE",
"67 393 CURVE SMOOTH",
"12 0 LINE",
"88 0 OFFCURVE",
"163 0 OFFCURVE",
"239 0 CURVE",
"244 37 OFFCURVE",
"251 85 OFFCURVE",
"256 122 CURVE",
"258 121 OFFCURVE",
"261 117 OFFCURVE",
"266 112 CURVE",
"279 100 OFFCURVE",
"282 96 OFFCURVE",
"298 81 CURVE SMOOTH",
"416 -31 OFFCURVE",
"464 -18 OFFCURVE",
"514 -18 CURVE SMOOTH",
"615 -18 OFFCURVE",
"675 50 OFFCURVE",
"675 50 CURVE",
"598 126 OFFCURVE",
"523 202 OFFCURVE",
"447 278 CURVE"
);
},
{
closed = 1;
nodes = (
"665 417 LINE SMOOTH",
"677 424 OFFCURVE",
"720 453 OFFCURVE",
"725 456 CURVE",
"721 459 OFFCURVE",
"512 482 OFFCURVE",
"447 439 CURVE SMOOTH",
"408 413 OFFCURVE",
"333 364 OFFCURVE",
"321 356 CURVE SMOOTH",
"305 346 OFFCURVE",
"293 338 OFFCURVE",
"289 335 CURVE",
"289 335 OFFCURVE",
"285 333 OFFCURVE",
"285 333 CURVE",
"291 371 OFFCURVE",
"298 422 OFFCURVE",
"303 460 CURVE",
"252 460 OFFCURVE",
"200 460 OFFCURVE",
"149 460 CURVE SMOOTH",
"77 460 OFFCURVE",
"73 436 OFFCURVE",
"67 393 CURVE SMOOTH",
"12 0 LINE",
"88 0 OFFCURVE",
"163 0 OFFCURVE",
"239 0 CURVE",
"244 37 OFFCURVE",
"251 85 OFFCURVE",
"256 122 CURVE",
"258 121 OFFCURVE",
"261 117 OFFCURVE",
"266 112 CURVE",
"279 100 OFFCURVE",
"282 96 OFFCURVE",
"298 81 CURVE SMOOTH",
"416 -31 OFFCURVE",
"464 -18 OFFCURVE",
"514 -18 CURVE SMOOTH",
"615 -18 OFFCURVE",
"675 50 OFFCURVE",
"675 50 CURVE",
"598 126 OFFCURVE",
"523 202 OFFCURVE",
"447 278 CURVE"
);
}
);
};
layerId = "C7668D88-AC50-4107-9C4B-DB5D26A8FA6C";
paths = (
{
closed = 1;
nodes = (
"595 -18 OFFCURVE",
"654 30 OFFCURVE",
"671 50 CURVE",
"563 131 OFFCURVE",
"460 216 OFFCURVE",
"378 293 CURVE",
"368 225 LINE",
"449 289 OFFCURVE",
"567 360 OFFCURVE",
"660 417 CURVE SMOOTH",
"671 424 OFFCURVE",
"709 453 OFFCURVE",
"714 456 CURVE",
"672 462 OFFCURVE",
"645 467 OFFCURVE",
"593 467 CURVE SMOOTH",
"521 467 OFFCURVE",
"473 458 OFFCURVE",
"428 428 CURVE SMOOTH",
"403 413 OFFCURVE",
"336 365 OFFCURVE",
"323 354 CURVE SMOOTH",
"309 342 OFFCURVE",
"300 335 OFFCURVE",
"292 329 CURVE SMOOTH",
"280 320 LINE",
"286 358 OFFCURVE",
"294 420 OFFCURVE",
"300 460 CURVE",
"249 460 OFFCURVE",
"197 460 OFFCURVE",
"146 460 CURVE SMOOTH",
"74 460 OFFCURVE",
"70 436 OFFCURVE",
"64 393 CURVE SMOOTH",
"8 0 LINE",
"235 0 LINE",
"255 137 LINE",
"263 127 LINE SMOOTH",
"276 112 OFFCURVE",
"284 103 OFFCURVE",
"300 86 CURVE SMOOTH",
"330 53 OFFCURVE",
"358 34 OFFCURVE",
"383 15 CURVE SMOOTH",
"413 -9 OFFCURVE",
"459 -18 OFFCURVE",
"511 -18 CURVE SMOOTH"
);
}
);
width = 697;
},
{
anchors = (
{
name = bottom;
position = "{229, 0}";
},
{
name = top;
position = "{285, 460}";
}
);
background = {
anchors = (
{
name = bottom;
position = "{229, 0}";
},
{
name = top;
position = "{285, 460}";
}
);
hints = (
{
horizontal = 1;
place = "{0, 21}";
target = up;
type = BottomGhost;
},
{
horizontal = 1;
place = "{231, 16}";
type = Stem;
},
{
place = "{53, 20}";
type = Stem;
}
);
paths = (
{
closed = 1;
nodes = (
"-151 349 LINE SMOOTH",
"-141 358 OFFCURVE",
"-43 453 OFFCURVE",
"-38 456 CURVE",
"-42 459 OFFCURVE",
"-51 466 OFFCURVE",
"-65 453 CURVE SMOOTH",
"-128 391 OFFCURVE",
"-193 329 OFFCURVE",
"-257 267 CURVE SMOOTH",
"-271 253 OFFCURVE",
"-277 247 OFFCURVE",
"-300 247 CURVE",
"-300 247 OFFCURVE",
"-353 247 OFFCURVE",
"-369 247 CURVE",
"-363 285 OFFCURVE",
"-344 422 OFFCURVE",
"-339 460 CURVE",
"-343 460 OFFCURVE",
"-345 460 OFFCURVE",
"-351 460 CURVE SMOOTH",
"-355 460 OFFCURVE",
"-359 456 OFFCURVE",
"-360 447 CURVE SMOOTH",
"-423 0 LINE",
"-413 0 OFFCURVE",
"-411 0 OFFCURVE",
"-403 0 CURVE",
"-398 37 OFFCURVE",
"-376 194 OFFCURVE",
"-371 231 CURVE",
"-283 231 OFFCURVE",
"-276 232 OFFCURVE",
"-267 218 CURVE",
"-247 189 OFFCURVE",
"-135 31 OFFCURVE",
"-121 12 CURVE SMOOTH",
"-113 2 OFFCURVE",
"-106 -1 OFFCURVE",
"-100 -1 CURVE SMOOTH",
"-90 -1 OFFCURVE",
"-91 -1 OFFCURVE",
"-86 0 CURVE",
"-131 60 OFFCURVE",
"-201 163 OFFCURVE",
"-259 244 CURVE"
);
},
{
closed = 1;
nodes = (
"-151 349 LINE SMOOTH",
"-141 358 OFFCURVE",
"-43 453 OFFCURVE",
"-38 456 CURVE",
"-42 459 OFFCURVE",
"-51 466 OFFCURVE",
"-65 453 CURVE SMOOTH",
"-128 391 OFFCURVE",
"-193 329 OFFCURVE",
"-257 267 CURVE SMOOTH",
"-271 253 OFFCURVE",
"-277 247 OFFCURVE",
"-300 247 CURVE",
"-300 247 OFFCURVE",
"-353 247 OFFCURVE",
"-369 247 CURVE",
"-363 285 OFFCURVE",
"-344 422 OFFCURVE",
"-339 460 CURVE",
"-343 460 OFFCURVE",
"-345 460 OFFCURVE",
"-351 460 CURVE SMOOTH",
"-355 460 OFFCURVE",
"-359 456 OFFCURVE",
"-360 447 CURVE SMOOTH",
"-423 0 LINE",
"-413 0 OFFCURVE",
"-411 0 OFFCURVE",
"-403 0 CURVE",
"-398 37 OFFCURVE",
"-376 194 OFFCURVE",
"-371 231 CURVE",
"-283 231 OFFCURVE",
"-276 232 OFFCURVE",
"-267 218 CURVE",
"-247 189 OFFCURVE",
"-135 31 OFFCURVE",
"-121 12 CURVE SMOOTH",
"-113 2 OFFCURVE",
"-106 -1 OFFCURVE",
"-100 -1 CURVE SMOOTH",
"-90 -1 OFFCURVE",
"-91 -1 OFFCURVE",
"-86 0 CURVE",
"-131 60 OFFCURVE",
"-201 163 OFFCURVE",
"-259 244 CURVE"
);
},
{
closed = 1;
nodes = (
"402 -1 OFFCURVE",
"406 -1 OFFCURVE",
"408 0 CURVE",
"339 93 OFFCURVE",
"253 230 OFFCURVE",
"237 239 CURVE",
"234 242 LINE",
"274 280 OFFCURVE",
"325 329 OFFCURVE",
"374 376 CURVE SMOOTH",
"404 405 OFFCURVE",
"453 453 OFFCURVE",
"458 456 CURVE",
"456 458 OFFCURVE",
"452 461 OFFCURVE",
"447 461 CURVE SMOOTH",
"442 461 OFFCURVE",
"437 459 OFFCURVE",
"431 453 CURVE SMOOTH",
"366 389 OFFCURVE",
"302 327 OFFCURVE",
"239 267 CURVE SMOOTH",
"225 253 OFFCURVE",
"219 247 OFFCURVE",
"196 247 CURVE SMOOTH",
"127 247 LINE",
"133 285 OFFCURVE",
"152 422 OFFCURVE",
"157 460 CURVE",
"153 460 OFFCURVE",
"151 460 OFFCURVE",
"145 460 CURVE SMOOTH",
"140 460 OFFCURVE",
"137 456 OFFCURVE",
"135 447 CURVE SMOOTH",
"73 0 LINE",
"93 0 LINE",
"125 231 LINE",
"193 231 LINE SMOOTH",
"219 231 OFFCURVE",
"225 227 OFFCURVE",
"235 212 CURVE SMOOTH",
"251 189 OFFCURVE",
"361 31 OFFCURVE",
"375 12 CURVE SMOOTH",
"383 2 OFFCURVE",
"390 -1 OFFCURVE",
"398 -1 CURVE SMOOTH"
);
}
);
};
layerId = "B4E8C596-9C01-4F8A-BDA4-90320E25C0E6";
paths = (
{
closed = 1;
nodes = (
"402 -1 OFFCURVE",
"406 -1 OFFCURVE",
"408 0 CURVE",
"339 93 OFFCURVE",
"253 228 OFFCURVE",
"237 239 CURVE",
"234 242 LINE",
"274 280 OFFCURVE",
"325 329 OFFCURVE",
"374 376 CURVE SMOOTH",
"404 405 OFFCURVE",
"453 453 OFFCURVE",
"458 456 CURVE",
"456 458 OFFCURVE",
"452 461 OFFCURVE",
"447 461 CURVE SMOOTH",
"442 461 OFFCURVE",
"437 459 OFFCURVE",
"431 453 CURVE SMOOTH",
"366 389 OFFCURVE",
"301 327 OFFCURVE",
"238 267 CURVE SMOOTH",
"224 253 OFFCURVE",
"218 247 OFFCURVE",
"195 247 CURVE SMOOTH",
"127 247 LINE",
"133 285 OFFCURVE",
"152 422 OFFCURVE",
"157 460 CURVE",
"153 460 OFFCURVE",
"151 460 OFFCURVE",
"145 460 CURVE SMOOTH",
"140 460 OFFCURVE",
"136 456 OFFCURVE",
"135 447 CURVE SMOOTH",
"73 0 LINE",
"93 0 LINE",
"125 231 LINE",
"193 231 LINE SMOOTH",
"220 231 OFFCURVE",
"225 227 OFFCURVE",
"236 212 CURVE SMOOTH",
"253 189 OFFCURVE",
"363 31 OFFCURVE",
"377 12 CURVE SMOOTH",
"385 2 OFFCURVE",
"390 -1 OFFCURVE",
"398 -1 CURVE SMOOTH"
);
}
);
width = 464;
}
);
leftKerningGroup = H;
leftMetricsKey = H;
note = K;
rightKerningGroup = K;
unicode = 004B;
},
{
color = 7;
glyphname = L;
lastChange = "2021-09-09 18:56:22 +0000";
layers = (
{
anchors = (
{
name = bottom;
position = "{258, 0}";
},
{
name = center;
position = "{309, 230}";
},
{
name = top;
position = "{214, 460}";
},
{
name = topright;
position = "{409, 460}";
}
);
background = {
anchors = (
{
name = bottom;
position = "{258, 0}";
},
{
name = center;
position = "{309, 230}";
},
{
name = top;
position = "{214, 460}";
},
{
name = topright;
position = "{409, 460}";
}
);
paths = (
{
closed = 1;
nodes = (
"151 460 LINE SMOOTH",
"76 460 OFFCURVE",
"74 437 OFFCURVE",
"67 390 CURVE SMOOTH",
"13 0 LINE",
"539 0 LINE",
"555 116 LINE",
"258 116 LINE",
"306 460 LINE"
);
}
);
};
layerId = "C7668D88-AC50-4107-9C4B-DB5D26A8FA6C";
paths = (
{
closed = 1;
nodes = (
"151 460 LINE SMOOTH",
"76 460 OFFCURVE",
"74 437 OFFCURVE",
"67 390 CURVE SMOOTH",
"13 0 LINE",
"539 0 LINE",
"555 116 LINE",
"258 116 LINE",
"306 460 LINE"
);
}
);
width = 576;
},
{
anchors = (
{
name = bottom;
position = "{238, 0}";
},
{
name = center;
position = "{257, 230}";
},
{
name = top;
position = "{148, 460}";
},
{
name = topright;
position = "{285, 460}";
}
);
background = {
anchors = (
{
name = bottom;
position = "{238, 0}";
},
{
name = center;
position = "{257, 230}";
},
{
name = top;
position = "{148, 460}";
},
{
name = topright;
position = "{285, 460}";
}
);
paths = (
{
closed = 1;
nodes = (
"146 460 LINE SMOOTH",
"136 460 OFFCURVE",
"136 453 OFFCURVE",
"134 441 CURVE SMOOTH",
"72 0 LINE",
"406 0 LINE",
"408 17 LINE",
"94 17 LINE",
"156 460 LINE"
);
}
);
};
layerId = "B4E8C596-9C01-4F8A-BDA4-90320E25C0E6";
paths = (
{
closed = 1;
nodes = (
"146 460 LINE SMOOTH",
"136 460 OFFCURVE",
"136 453 OFFCURVE",
"134 441 CURVE SMOOTH",
"72 0 LINE",
"406 0 LINE",
"408 17 LINE",
"94 17 LINE",
"156 460 LINE"
);
}
);
width = 446;
}
);
leftKerningGroup = H;
leftMetricsKey = H;
note = L;
rightKerningGroup = L;
unicode = 004C;
},
{
color = 7;
glyphname = Lslash;
lastChange = "2021-09-08 23:18:03 +0000";
layers = (
{
background = {
components = (
{
name = L;
transform = "{1, 0, 0, 1, 29, 0}";
}
);
paths = (
{
closed = 1;
nodes = (
"-20 130 LINE",
"0 79 LINE",
"379 206 LINE",
"363 258 LINE"
);
}
);
};
components = (
{
name = L;
transform = "{1, 0, 0, 1, 29, 0}";
}
);
layerId = "C7668D88-AC50-4107-9C4B-DB5D26A8FA6C";
paths = (
{
closed = 1;
nodes = (
"-20 130 LINE",
"0 79 LINE",
"379 206 LINE",
"363 258 LINE"
);
}
);
width = 599;
},
{
background = {
components = (
{
name = L;
transform = "{1, 0, 0, 1, 29, 0}";
}
);
hints = (
{
horizontal = 1;
place = "{0, 96}";
type = Stem;
},
{
horizontal = 1;
place = "{180, 97}";
type = Stem;
},
{
horizontal = 1;
place = "{364, 96}";
type = Stem;
},
{
place = "{175, 8}";
type = Stem;
}
);
paths = (
{
closed = 1;
nodes = (
"0 137 LINE",
"5 123 LINE",
"184 189 LINE",
"180 202 LINE"
);
}
);
};
components = (
{
name = L;
transform = "{1, 0, 0, 1, 29, 0}";
}
);
layerId = "B4E8C596-9C01-4F8A-BDA4-90320E25C0E6";
paths = (
{
closed = 1;
nodes = (
"0 137 LINE",
"5 123 LINE",
"184 189 LINE",
"180 202 LINE"
);
}
);
width = 408;
}
);
note = Lslash;
unicode = 0141;
},
{
color = 7;
glyphname = M;
lastChange = "2021-09-09 18:56:22 +0000";
layers = (
{
background = {
paths = (
{
closed = 1;
nodes = (
"171 0 LINE",
"201 218 LINE",
"204 179 LINE",
"253 0 LINE",
"386 0 LINE",
"485 179 LINE",
"498 218 LINE",
"468 0 LINE",
"617 0 LINE SMOOTH",
"682 0 OFFCURVE",
"700 0 OFFCURVE",
"709 66 CURVE SMOOTH",
"755 393 LINE SMOOTH",
"762 446 OFFCURVE",
"753 460 OFFCURVE",
"689 460 CURVE SMOOTH",
"499 460 LINE",
"397 276 LINE",
"394 263 LINE",
"392 263 LINE",
"391 276 LINE",
"335 460 LINE",
"159 460 LINE SMOOTH",
"92 460 OFFCURVE",
"75 453 OFFCURVE",
"68 400 CURVE SMOOTH",
"12 0 LINE"
);
}
);
};
layerId = "C7668D88-AC50-4107-9C4B-DB5D26A8FA6C";
paths = (
{
closed = 1;
nodes = (
"171 0 LINE",
"201 218 LINE",
"204 179 LINE",
"253 0 LINE",
"386 0 LINE",
"485 179 LINE",
"498 218 LINE",
"468 0 LINE",
"617 0 LINE SMOOTH",
"682 0 OFFCURVE",
"700 0 OFFCURVE",
"709 66 CURVE SMOOTH",
"755 393 LINE SMOOTH",
"762 446 OFFCURVE",
"753 460 OFFCURVE",
"689 460 CURVE SMOOTH",
"499 460 LINE",
"397 276 LINE",
"394 263 LINE",
"392 263 LINE",
"391 276 LINE",
"335 460 LINE",
"159 460 LINE SMOOTH",
"92 460 OFFCURVE",
"75 453 OFFCURVE",
"68 400 CURVE SMOOTH",
"12 0 LINE"
);
}
);
width = 768;
},
{
background = {
paths = (
{
closed = 1;
nodes = (
"89 0 LINE",
"148 425 LINE",
"150 421 LINE",
"283 0 LINE",
"304 0 LINE",
"561 430 LINE",
"565 436 LINE",
"504 0 LINE",
"514 0 LINE SMOOTH",
"523 0 OFFCURVE",
"524 5 OFFCURVE",
"526 18 CURVE SMOOTH",
"586 444 LINE SMOOTH",
"589 462 OFFCURVE",
"584 460 OFFCURVE",
"571 460 CURVE SMOOTH",
"560 460 LINE",
"302 28 LINE",
"299 23 LINE",
"297 20 LINE",
"296 25 LINE",
"159 460 LINE",
"150 460 LINE SMOOTH",
"135 460 OFFCURVE",
"136 458 OFFCURVE",
"132 429 CURVE SMOOTH",
"72 0 LINE"
);
}
);
};
layerId = "B4E8C596-9C01-4F8A-BDA4-90320E25C0E6";
paths = (
{
closed = 1;
nodes = (
"89 0 LINE",
"148 425 LINE",
"150 421 LINE",
"283 0 LINE",
"304 0 LINE",
"561 430 LINE",
"565 436 LINE",
"504 0 LINE",
"514 0 LINE SMOOTH",
"523 0 OFFCURVE",
"524 5 OFFCURVE",
"526 18 CURVE SMOOTH",
"586 444 LINE SMOOTH",
"589 462 OFFCURVE",
"584 460 OFFCURVE",
"571 460 CURVE SMOOTH",
"560 460 LINE",
"302 28 LINE",
"299 23 LINE",
"297 20 LINE",
"296 25 LINE",
"159 460 LINE",
"150 460 LINE SMOOTH",
"135 460 OFFCURVE",
"136 458 OFFCURVE",
"132 429 CURVE SMOOTH",
"72 0 LINE"
);
}
);
width = 652;
}
);
leftKerningGroup = H;
leftMetricsKey = H;
note = M;
rightKerningGroup = H;
rightMetricsKey = H;
unicode = 004D;
},
{
color = 7;
glyphname = N;
lastChange = "2021-09-09 18:56:22 +0000";
layers = (
{
anchors = (
{
name = bottom;
position = "{330, 0}";
},
{
name = top;
position = "{395, 460}";
}
);
background = {
anchors = (
{
name = bottom;
position = "{330, 0}";
},
{
name = top;
position = "{395, 460}";
}
);
paths = (
{
closed = 1;
nodes = (
"174 0 LINE",
"213 279 LINE",
"214 240 LINE",
"349 0 LINE",
"547 0 LINE SMOOTH",
"612 0 OFFCURVE",
"635 5 OFFCURVE",
"643 56 CURVE SMOOTH",
"689 386 LINE SMOOTH",
"692 409 OFFCURVE",
"698 455 OFFCURVE",
"703 460 CURVE",
"538 460 LINE",
"501 191 LINE",
"499 230 LINE",
"371 460 LINE",
"152 460 LINE SMOOTH",
"86 460 OFFCURVE",
"74 446 OFFCURVE",
"67 393 CURVE SMOOTH",
"12 0 LINE"
);
}
);
};
layerId = "C7668D88-AC50-4107-9C4B-DB5D26A8FA6C";
paths = (
{
closed = 1;
nodes = (
"174 0 LINE",
"213 279 LINE",
"214 240 LINE",
"349 0 LINE",
"547 0 LINE SMOOTH",
"612 0 OFFCURVE",
"635 5 OFFCURVE",
"643 56 CURVE SMOOTH",
"689 386 LINE SMOOTH",
"692 409 OFFCURVE",
"698 455 OFFCURVE",
"703 460 CURVE",
"538 460 LINE",
"501 191 LINE",
"499 230 LINE",
"371 460 LINE",
"152 460 LINE SMOOTH",
"86 460 OFFCURVE",
"74 446 OFFCURVE",
"67 393 CURVE SMOOTH",
"12 0 LINE"
);
}
);
width = 706;
},
{
anchors = (
{
name = bottom;
position = "{273, 0}";
},
{
name = top;
position = "{338, 460}";
}
);
background = {
anchors = (
{
name = bottom;
position = "{273, 0}";
},
{
name = top;
position = "{338, 460}";
}
);
paths = (
{
closed = 1;
nodes = (
"89 0 LINE",
"149 429 LINE",
"150 438 LINE",
"439 0 LINE",
"450 0 LINE SMOOTH",
"465 0 OFFCURVE",
"464 2 OFFCURVE",
"468 31 CURVE SMOOTH",
"525 438 LINE SMOOTH",
"526 447 OFFCURVE",
"528 457 OFFCURVE",
"530 460 CURVE",
"511 460 LINE",
"451 34 LINE",
"450 22 LINE",
"160 460 LINE",
"150 460 LINE SMOOTH",
"135 460 OFFCURVE",
"136 458 OFFCURVE",
"132 429 CURVE SMOOTH",
"72 0 LINE"
);
}
);
};
layerId = "B4E8C596-9C01-4F8A-BDA4-90320E25C0E6";
paths = (
{
closed = 1;
nodes = (
"89 0 LINE",
"149 429 LINE",
"150 438 LINE",
"439 0 LINE",
"450 0 LINE SMOOTH",
"465 0 OFFCURVE",
"464 2 OFFCURVE",
"468 31 CURVE SMOOTH",
"525 438 LINE SMOOTH",
"526 447 OFFCURVE",
"528 457 OFFCURVE",
"530 460 CURVE",
"511 460 LINE",
"451 34 LINE",
"450 22 LINE",
"160 460 LINE",
"150 460 LINE SMOOTH",
"135 460 OFFCURVE",
"136 458 OFFCURVE",
"132 429 CURVE SMOOTH",
"72 0 LINE"
);
}
);
width = 593;
}
);
leftKerningGroup = H;
leftMetricsKey = H;
note = N;
rightKerningGroup = H;
rightMetricsKey = H;
unicode = 004E;
},
{
color = 7;
glyphname = Eng;
lastChange = "2021-09-08 23:18:03 +0000";
layers = (
{
background = {
paths = (
{
closed = 1;
nodes = (
"76 0 OFFCURVE",
"131 0 OFFCURVE",
"187 0 CURVE",
"199 83 OFFCURVE",
"211 167 OFFCURVE",
"222 250 CURVE",
"362 0 LINE",
"381 0 OFFCURVE",
"401 0 OFFCURVE",
"420 0 CURVE",
"418 -16 OFFCURVE",
"416 -31 OFFCURVE",
"414 -47 CURVE SMOOTH",
"411 -67 OFFCURVE",
"402 -86 OFFCURVE",
"378 -86 CURVE SMOOTH",
"355 -86 OFFCURVE",
"315 -75 OFFCURVE",
"298 -68 CURVE",
"292 -111 OFFCURVE",
"285 -155 OFFCURVE",
"279 -198 CURVE",
"354 -205 OFFCURVE",
"391 -209 OFFCURVE",
"470 -205 CURVE SMOOTH",
"530 -202 OFFCURVE",
"606 -189 OFFCURVE",
"629 -114 CURVE SMOOTH",
"634 -99 OFFCURVE",
"637 -78 OFFCURVE",
"640 -56 CURVE SMOOTH",
"661 91 OFFCURVE",
"682 239 OFFCURVE",
"702 386 CURVE SMOOTH",
"706 409 OFFCURVE",
"711 455 OFFCURVE",
"717 460 CURVE",
"662 460 OFFCURVE",
"607 460 OFFCURVE",
"552 460 CURVE",
"541 380 OFFCURVE",
"529 300 OFFCURVE",
"518 220 CURVE",
"473 300 OFFCURVE",
"430 380 OFFCURVE",
"385 460 CURVE",
"316 460 OFFCURVE",
"248 460 OFFCURVE",
"179 460 CURVE SMOOTH",
"113 460 OFFCURVE",
"88 446 OFFCURVE",
"80 393 CURVE SMOOTH",
"65 280 OFFCURVE",
"49 166 OFFCURVE",
"33 53 CURVE SMOOTH",
"29 28 OFFCURVE",
"23 4 OFFCURVE",
"20 0 CURVE"
);
}
);
};
layerId = "C7668D88-AC50-4107-9C4B-DB5D26A8FA6C";
paths = (
{
closed = 1;
nodes = (
"76 0 OFFCURVE",
"131 0 OFFCURVE",
"187 0 CURVE",
"199 83 OFFCURVE",
"211 167 OFFCURVE",
"222 250 CURVE",
"362 0 LINE",
"381 0 OFFCURVE",
"401 0 OFFCURVE",
"420 0 CURVE",
"418 -16 OFFCURVE",
"416 -31 OFFCURVE",
"414 -47 CURVE SMOOTH",
"411 -67 OFFCURVE",
"402 -86 OFFCURVE",
"378 -86 CURVE SMOOTH",
"355 -86 OFFCURVE",
"315 -75 OFFCURVE",
"298 -68 CURVE",
"292 -111 OFFCURVE",
"285 -155 OFFCURVE",
"279 -198 CURVE",
"354 -205 OFFCURVE",
"391 -209 OFFCURVE",
"470 -205 CURVE SMOOTH",
"530 -202 OFFCURVE",
"606 -189 OFFCURVE",
"629 -114 CURVE SMOOTH",
"634 -99 OFFCURVE",
"637 -78 OFFCURVE",
"640 -56 CURVE SMOOTH",
"661 91 OFFCURVE",
"682 239 OFFCURVE",
"702 386 CURVE SMOOTH",
"706 409 OFFCURVE",
"711 455 OFFCURVE",
"717 460 CURVE",
"662 460 OFFCURVE",
"607 460 OFFCURVE",
"552 460 CURVE",
"541 380 OFFCURVE",
"529 300 OFFCURVE",
"518 220 CURVE",
"473 300 OFFCURVE",
"430 380 OFFCURVE",
"385 460 CURVE",
"316 460 OFFCURVE",
"248 460 OFFCURVE",
"179 460 CURVE SMOOTH",
"113 460 OFFCURVE",
"88 446 OFFCURVE",
"80 393 CURVE SMOOTH",
"65 280 OFFCURVE",
"49 166 OFFCURVE",
"33 53 CURVE SMOOTH",
"29 28 OFFCURVE",
"23 4 OFFCURVE",
"20 0 CURVE"
);
}
);
width = 714;
},
{
background = {
paths = (
{
closed = 1;
nodes = (
"39 0 OFFCURVE",
"46 0 OFFCURVE",
"52 0 CURVE",
"72 146 OFFCURVE",
"93 292 OFFCURVE",
"113 438 CURVE",
"405 -6 LINE",
"405 -6 OFFCURVE",
"406 -6 OFFCURVE",
"406 -6 CURVE",
"401 -42 OFFCURVE",
"396 -78 OFFCURVE",
"391 -114 CURVE SMOOTH",
"385 -157 OFFCURVE",
"365 -170 OFFCURVE",
"321 -170 CURVE SMOOTH",
"311 -170 OFFCURVE",
"289 -167 OFFCURVE",
"283 -164 CURVE",
"282 -170 OFFCURVE",
"281 -175 OFFCURVE",
"280 -181 CURVE",
"299 -186 OFFCURVE",
"325 -186 OFFCURVE",
"334 -186 CURVE SMOOTH",
"379 -186 OFFCURVE",
"399 -158 OFFCURVE",
"406 -134 CURVE SMOOTH",
"413 -110 OFFCURVE",
"418 -61 OFFCURVE",
"422 -33 CURVE SMOOTH",
"444 124 OFFCURVE",
"466 281 OFFCURVE",
"488 438 CURVE SMOOTH",
"490 447 OFFCURVE",
"491 457 OFFCURVE",
"493 460 CURVE",
"487 460 OFFCURVE",
"480 460 OFFCURVE",
"474 460 CURVE",
"454 314 OFFCURVE",
"433 168 OFFCURVE",
"413 22 CURVE",
"316 168 OFFCURVE",
"220 314 OFFCURVE",
"123 460 CURVE",
"120 460 OFFCURVE",
"116 460 OFFCURVE",
"113 460 CURVE SMOOTH",
"98 460 OFFCURVE",
"99 458 OFFCURVE",
"95 429 CURVE SMOOTH",
"76 293 OFFCURVE",
"57 158 OFFCURVE",
"38 22 CURVE SMOOTH",
"37 13 OFFCURVE",
"35 3 OFFCURVE",
"33 0 CURVE"
);
}
);
};
layerId = "B4E8C596-9C01-4F8A-BDA4-90320E25C0E6";
paths = (
{
closed = 1;
nodes = (
"39 0 OFFCURVE",
"46 0 OFFCURVE",
"52 0 CURVE",
"72 146 OFFCURVE",
"93 292 OFFCURVE",
"113 438 CURVE",
"405 -6 LINE",
"405 -6 OFFCURVE",
"406 -6 OFFCURVE",
"406 -6 CURVE",
"401 -42 OFFCURVE",
"396 -78 OFFCURVE",
"391 -114 CURVE SMOOTH",
"385 -157 OFFCURVE",
"365 -170 OFFCURVE",
"321 -170 CURVE SMOOTH",
"311 -170 OFFCURVE",
"289 -167 OFFCURVE",
"283 -164 CURVE",
"282 -170 OFFCURVE",
"281 -175 OFFCURVE",
"280 -181 CURVE",
"299 -186 OFFCURVE",
"325 -186 OFFCURVE",
"334 -186 CURVE SMOOTH",
"379 -186 OFFCURVE",
"399 -158 OFFCURVE",
"406 -134 CURVE SMOOTH",
"413 -110 OFFCURVE",
"418 -61 OFFCURVE",
"422 -33 CURVE SMOOTH",
"444 124 OFFCURVE",
"466 281 OFFCURVE",
"488 438 CURVE SMOOTH",
"490 447 OFFCURVE",
"491 457 OFFCURVE",
"493 460 CURVE",
"487 460 OFFCURVE",
"480 460 OFFCURVE",
"474 460 CURVE",
"454 314 OFFCURVE",
"433 168 OFFCURVE",
"413 22 CURVE",
"316 168 OFFCURVE",
"220 314 OFFCURVE",
"123 460 CURVE",
"120 460 OFFCURVE",
"116 460 OFFCURVE",
"113 460 CURVE SMOOTH",
"98 460 OFFCURVE",
"99 458 OFFCURVE",
"95 429 CURVE SMOOTH",
"76 293 OFFCURVE",
"57 158 OFFCURVE",
"38 22 CURVE SMOOTH",
"37 13 OFFCURVE",
"35 3 OFFCURVE",
"33 0 CURVE"
);
}
);
width = 499;
}
);
leftKerningGroup = E;
note = Eng;
rightKerningGroup = H;
unicode = 014A;
},
{
color = 7;
glyphname = O;
lastChange = "2021-09-10 04:15:15 +0000";
layers = (
{
anchors = (
{
name = bottom;
position = "{308, 0}";
},
{
name = center;
position = "{361, 230}";
},
{
name = ogonek;
position = "{374, 10}";
},
{
name = top;
position = "{394, 460}";
},
{
name = topleft;
position = "{65, 460}";
},
{
name = topright;
position = "{517, 460}";
}
);
background = {
anchors = (
{
name = bottom;
position = "{308, 0}";
},
{
name = center;
position = "{361, 230}";
},
{
name = ogonek;
position = "{374, 10}";
},
{
name = top;
position = "{394, 460}";
},
{
name = topleft;
position = "{65, 460}";
},
{
name = topright;
position = "{517, 460}";
}
);
paths = (
{
closed = 1;
nodes = (
"-2 15 OFFCURVE",
"135 -7 OFFCURVE",
"316 -7 CURVE SMOOTH",
"494 -7 OFFCURVE",
"654 9 OFFCURVE",
"685 230 CURVE SMOOTH",
"715 446 OFFCURVE",
"575 467 OFFCURVE",
"397 467 CURVE SMOOTH",
"220 467 OFFCURVE",
"59 451 OFFCURVE",
"28 230 CURVE SMOOTH"
);
},
{
closed = 1;
nodes = (
"445 120 OFFCURVE",
"402 105 OFFCURVE",
"339 105 CURVE SMOOTH",
"273 105 OFFCURVE",
"237 120 OFFCURVE",
"252 228 CURVE SMOOTH",
"267 336 OFFCURVE",
"308 351 OFFCURVE",
"374 351 CURVE SMOOTH",
"437 351 OFFCURVE",
"475 336 OFFCURVE",
"460 228 CURVE SMOOTH"
);
},
{
closed = 1;
nodes = (
"-2 15 OFFCURVE",
"135 -7 OFFCURVE",
"316 -7 CURVE SMOOTH",
"494 -7 OFFCURVE",
"654 9 OFFCURVE",
"685 230 CURVE SMOOTH",
"715 446 OFFCURVE",
"575 467 OFFCURVE",
"397 467 CURVE SMOOTH",
"220 467 OFFCURVE",
"59 451 OFFCURVE",
"28 230 CURVE SMOOTH"
);
},
{
closed = 1;
nodes = (
"445 120 OFFCURVE",
"402 105 OFFCURVE",
"339 105 CURVE SMOOTH",
"273 105 OFFCURVE",
"237 120 OFFCURVE",
"252 228 CURVE SMOOTH",
"267 336 OFFCURVE",
"308 351 OFFCURVE",
"374 351 CURVE SMOOTH",
"437 351 OFFCURVE",
"475 336 OFFCURVE",
"460 228 CURVE SMOOTH"
);
}
);
};
layerId = "C7668D88-AC50-4107-9C4B-DB5D26A8FA6C";
paths = (
{
closed = 1;
nodes = (
"570 -7 OFFCURVE",
"656 55 OFFCURVE",
"681 230 CURVE SMOOTH",
"706 405 OFFCURVE",
"636 467 OFFCURVE",
"386 467 CURVE SMOOTH",
"136 467 OFFCURVE",
"49 405 OFFCURVE",
"24 230 CURVE SMOOTH",
"-1 55 OFFCURVE",
"70 -7 OFFCURVE",
"320 -7 CURVE SMOOTH"
);
},
{
closed = 1;
nodes = (
"264 109 OFFCURVE",
"245 138 OFFCURVE",
"258 230 CURVE SMOOTH",
"271 322 OFFCURVE",
"298 351 OFFCURVE",
"370 351 CURVE SMOOTH",
"442 351 OFFCURVE",
"460 322 OFFCURVE",
"447 230 CURVE SMOOTH",
"434 138 OFFCURVE",
"408 109 OFFCURVE",
"336 109 CURVE SMOOTH"
);
}
);
width = 697;
},
{
anchors = (
{
name = bottom;
position = "{242, 0}";
},
{
name = center;
position = "{284, 230}";
},
{
name = ogonek;
position = "{249, -3}";
},
{
name = top;
position = "{317, 460}";
},
{
name = topleft;
position = "{70, 460}";
},
{
name = topright;
position = "{408, 460}";
}
);
background = {
anchors = (
{
name = bottom;
position = "{242, 0}";
},
{
name = center;
position = "{284, 230}";
},
{
name = ogonek;
position = "{249, -3}";
},
{
name = top;
position = "{317, 460}";
},
{
name = topleft;
position = "{70, 460}";
},
{
name = topright;
position = "{408, 460}";
}
);
paths = (
{
closed = 1;
nodes = (
"24 15 OFFCURVE",
"118 -7 OFFCURVE",
"241 -7 CURVE SMOOTH",
"363 -7 OFFCURVE",
"475 9 OFFCURVE",
"506 231 CURVE SMOOTH",
"536 447 OFFCURVE",
"442 469 OFFCURVE",
"319 469 CURVE SMOOTH",
"197 469 OFFCURVE",
"85 453 OFFCURVE",
"54 231 CURVE SMOOTH"
);
},
{
closed = 1;
nodes = (
"457 35 OFFCURVE",
"377 9 OFFCURVE",
"248 9 CURVE SMOOTH",
"120 9 OFFCURVE",
"47 35 OFFCURVE",
"75 230 CURVE SMOOTH",
"102 426 OFFCURVE",
"182 453 OFFCURVE",
"310 453 CURVE SMOOTH",
"439 453 OFFCURVE",
"512 426 OFFCURVE",
"485 230 CURVE SMOOTH"
);
}
);
};
layerId = "B4E8C596-9C01-4F8A-BDA4-90320E25C0E6";
paths = (
{
closed = 1;
nodes = (
"363 -7 OFFCURVE",
"475 9 OFFCURVE",
"506 231 CURVE SMOOTH",
"536 447 OFFCURVE",
"442 469 OFFCURVE",
"319 469 CURVE SMOOTH",
"197 469 OFFCURVE",
"85 453 OFFCURVE",
"54 231 CURVE SMOOTH",
"24 15 OFFCURVE",
"118 -7 OFFCURVE",
"241 -7 CURVE SMOOTH"
);
},
{
closed = 1;
nodes = (
"120 9 OFFCURVE",
"47 35 OFFCURVE",
"75 230 CURVE SMOOTH",
"102 426 OFFCURVE",
"182 453 OFFCURVE",
"310 453 CURVE SMOOTH",
"439 453 OFFCURVE",
"512 426 OFFCURVE",
"485 230 CURVE SMOOTH",
"457 35 OFFCURVE",
"377 9 OFFCURVE",
"248 9 CURVE SMOOTH"
);
}
);
width = 552;
}
);
leftKerningGroup = O;
note = O;
rightKerningGroup = O;
unicode = 004F;
},
{
color = 7;
glyphname = Oslash;
lastChange = "2021-09-08 23:18:03 +0000";
layers = (
{
anchors = (
{
name = bottom;
position = "{321, 0}";
},
{
name = top;
position = "{386, 460}";
}
);
background = {
anchors = (
{
name = bottom;
position = "{321, 0}";
},
{
name = top;
position = "{386, 460}";
}
);
paths = (
{
closed = 1;
nodes = (
"-9 15 OFFCURVE",
"128 -7 OFFCURVE",
"309 -7 CURVE SMOOTH",
"487 -7 OFFCURVE",
"647 9 OFFCURVE",
"678 230 CURVE SMOOTH",
"709 446 OFFCURVE",
"569 467 OFFCURVE",
"391 467 CURVE SMOOTH",
"214 467 OFFCURVE",
"53 451 OFFCURVE",
"21 230 CURVE SMOOTH"
);
},
{
closed = 1;
nodes = (
"438 120 OFFCURVE",
"396 105 OFFCURVE",
"333 105 CURVE SMOOTH",
"267 105 OFFCURVE",
"230 120 OFFCURVE",
"245 228 CURVE SMOOTH",
"260 336 OFFCURVE",
"301 351 OFFCURVE",
"367 351 CURVE SMOOTH",
"430 351 OFFCURVE",
"468 336 OFFCURVE",
"453 228 CURVE SMOOTH"
);
},
{
closed = 1;
nodes = (
"210 -86 LINE",
"532 525 LINE",
"474 525 LINE",
"153 -86 LINE"
);
}
);
};
layerId = "C7668D88-AC50-4107-9C4B-DB5D26A8FA6C";
paths = (
{
closed = 1;
nodes = (
"-9 15 OFFCURVE",
"128 -7 OFFCURVE",
"309 -7 CURVE SMOOTH",
"487 -7 OFFCURVE",
"647 9 OFFCURVE",
"678 230 CURVE SMOOTH",
"709 446 OFFCURVE",
"569 467 OFFCURVE",
"391 467 CURVE SMOOTH",
"214 467 OFFCURVE",
"53 451 OFFCURVE",
"21 230 CURVE SMOOTH"
);
},
{
closed = 1;
nodes = (
"438 120 OFFCURVE",
"396 105 OFFCURVE",
"333 105 CURVE SMOOTH",
"267 105 OFFCURVE",
"230 120 OFFCURVE",
"245 228 CURVE SMOOTH",
"260 336 OFFCURVE",
"301 351 OFFCURVE",
"367 351 CURVE SMOOTH",
"430 351 OFFCURVE",
"468 336 OFFCURVE",
"453 228 CURVE SMOOTH"
);
},
{
closed = 1;
nodes = (
"210 -86 LINE",
"532 525 LINE",
"474 525 LINE",
"153 -86 LINE"
);
}
);
width = 697;
},
{
anchors = (
{
name = bottom;
position = "{239, 0}";
},
{
name = top;
position = "{304, 460}";
}
);
background = {
anchors = (
{
name = bottom;
position = "{239, 0}";
},
{
name = top;
position = "{304, 460}";
}
);
paths = (
{
closed = 1;
nodes = (
"12 15 OFFCURVE",
"106 -7 OFFCURVE",
"229 -7 CURVE SMOOTH",
"351 -7 OFFCURVE",
"463 9 OFFCURVE",
"494 231 CURVE SMOOTH",
"525 447 OFFCURVE",
"431 469 OFFCURVE",
"308 469 CURVE SMOOTH",
"186 469 OFFCURVE",
"74 453 OFFCURVE",
"42 231 CURVE SMOOTH"
);
},
{
closed = 1;
nodes = (
"446 35 OFFCURVE",
"365 9 OFFCURVE",
"236 9 CURVE SMOOTH",
"108 9 OFFCURVE",
"36 35 OFFCURVE",
"63 230 CURVE SMOOTH",
"91 426 OFFCURVE",
"171 453 OFFCURVE",
"299 453 CURVE SMOOTH",
"428 453 OFFCURVE",
"501 426 OFFCURVE",
"473 230 CURVE SMOOTH"
);
},
{
closed = 1;
nodes = (
"93 -82 LINE",
"413 525 LINE",
"395 525 LINE",
"76 -82 LINE"
);
}
);
};
layerId = "B4E8C596-9C01-4F8A-BDA4-90320E25C0E6";
paths = (
{
closed = 1;
nodes = (
"12 15 OFFCURVE",
"106 -7 OFFCURVE",
"229 -7 CURVE SMOOTH",
"351 -7 OFFCURVE",
"463 9 OFFCURVE",
"494 231 CURVE SMOOTH",
"525 447 OFFCURVE",
"431 469 OFFCURVE",
"308 469 CURVE SMOOTH",
"186 469 OFFCURVE",
"74 453 OFFCURVE",
"42 231 CURVE SMOOTH"
);
},
{
closed = 1;
nodes = (
"446 35 OFFCURVE",
"365 9 OFFCURVE",
"236 9 CURVE SMOOTH",
"108 9 OFFCURVE",
"36 35 OFFCURVE",
"63 230 CURVE SMOOTH",
"91 426 OFFCURVE",
"171 453 OFFCURVE",
"299 453 CURVE SMOOTH",
"428 453 OFFCURVE",
"501 426 OFFCURVE",
"473 230 CURVE SMOOTH"
);
},
{
closed = 1;
nodes = (
"93 -82 LINE",
"413 525 LINE",
"395 525 LINE",
"76 -82 LINE"
);
}
);
width = 534;
}
);
leftKerningGroup = C;
note = Oslash;
unicode = 00D8;
},
{
color = 7;
glyphname = P;
lastChange = "2021-09-09 18:56:22 +0000";
layers = (
{
background = {
paths = (
{
closed = 1;
nodes = (
"235 0 LINE",
"250 110 OFFCURVE",
"265 219 OFFCURVE",
"281 330 CURVE SMOOTH",
"282 334 OFFCURVE",
"289 344 OFFCURVE",
"299 344 CURVE",
"343 344 OFFCURVE",
"370 344 OFFCURVE",
"414 344 CURVE SMOOTH",
"439 344 OFFCURVE",
"447 331 OFFCURVE",
"442 296 CURVE SMOOTH",
"437 259 OFFCURVE",
"422 239 OFFCURVE",
"399 239 CURVE SMOOTH",
"349 239 OFFCURVE",
"300 239 OFFCURVE",
"250 239 CURVE",
"217 239 OFFCURVE",
"222 229 OFFCURVE",
"208 128 CURVE",
"295 127 OFFCURVE",
"396 127 OFFCURVE",
"482 126 CURVE SMOOTH",
"580 125 OFFCURVE",
"653 169 OFFCURVE",
"672 303 CURVE SMOOTH",
"690 428 OFFCURVE",
"609 460 OFFCURVE",
"512 460 CURVE SMOOTH",
"390 460 OFFCURVE",
"268 460 OFFCURVE",
"146 460 CURVE SMOOTH",
"80 460 OFFCURVE",
"67 432 OFFCURVE",
"60 376 CURVE SMOOTH",
"42 251 OFFCURVE",
"25 125 OFFCURVE",
"8 0 CURVE"
);
}
);
};
layerId = "C7668D88-AC50-4107-9C4B-DB5D26A8FA6C";
paths = (
{
closed = 1;
nodes = (
"235 0 LINE",
"250 110 OFFCURVE",
"265 219 OFFCURVE",
"281 330 CURVE SMOOTH",
"282 334 OFFCURVE",
"289 344 OFFCURVE",
"299 344 CURVE",
"343 344 OFFCURVE",
"370 344 OFFCURVE",
"414 344 CURVE SMOOTH",
"439 344 OFFCURVE",
"447 331 OFFCURVE",
"442 296 CURVE SMOOTH",
"437 259 OFFCURVE",
"422 239 OFFCURVE",
"399 239 CURVE SMOOTH",
"349 239 OFFCURVE",
"300 239 OFFCURVE",
"250 239 CURVE",
"217 239 OFFCURVE",
"222 229 OFFCURVE",
"208 128 CURVE",
"295 127 OFFCURVE",
"396 127 OFFCURVE",
"482 126 CURVE SMOOTH",
"580 125 OFFCURVE",
"653 169 OFFCURVE",
"672 303 CURVE SMOOTH",
"690 428 OFFCURVE",
"609 460 OFFCURVE",
"512 460 CURVE SMOOTH",
"390 460 OFFCURVE",
"268 460 OFFCURVE",
"146 460 CURVE SMOOTH",
"80 460 OFFCURVE",
"67 432 OFFCURVE",
"60 376 CURVE SMOOTH",
"42 251 OFFCURVE",
"25 125 OFFCURVE",
"8 0 CURVE"
);
}
);
width = 679;
},
{
background = {
paths = (
{
closed = 1;
nodes = (
"87 0 LINE",
"106 139 OFFCURVE",
"125 277 OFFCURVE",
"145 416 CURVE SMOOTH",
"149 441 OFFCURVE",
"171 443 OFFCURVE",
"176 443 CURVE SMOOTH",
"221 445 OFFCURVE",
"334 449 OFFCURVE",
"405 441 CURVE SMOOTH",
"461 435 OFFCURVE",
"481 399 OFFCURVE",
"472 340 CURVE SMOOTH",
"459 242 OFFCURVE",
"401 219 OFFCURVE",
"343 219 CURVE SMOOTH",
"291 219 OFFCURVE",
"199 219 OFFCURVE",
"175 219 CURVE SMOOTH",
"162 219 OFFCURVE",
"161 209 OFFCURVE",
"160 202 CURVE",
"221 202 OFFCURVE",
"281 202 OFFCURVE",
"342 202 CURVE",
"425 202 OFFCURVE",
"480 247 OFFCURVE",
"493 337 CURVE SMOOTH",
"503 410 OFFCURVE",
"480 453 OFFCURVE",
"404 459 CURVE SMOOTH",
"351 463 OFFCURVE",
"238 462 OFFCURVE",
"178 460 CURVE SMOOTH",
"148 459 OFFCURVE",
"130 453 OFFCURVE",
"125 414 CURVE SMOOTH",
"105 276 OFFCURVE",
"86 138 OFFCURVE",
"67 0 CURVE"
);
}
);
};
layerId = "B4E8C596-9C01-4F8A-BDA4-90320E25C0E6";
paths = (
{
closed = 1;
nodes = (
"87 0 LINE",
"106 139 OFFCURVE",
"125 277 OFFCURVE",
"145 416 CURVE SMOOTH",
"149 441 OFFCURVE",
"171 443 OFFCURVE",
"176 443 CURVE SMOOTH",
"221 445 OFFCURVE",
"334 449 OFFCURVE",
"405 441 CURVE SMOOTH",
"461 435 OFFCURVE",
"481 399 OFFCURVE",
"472 340 CURVE SMOOTH",
"459 242 OFFCURVE",
"401 219 OFFCURVE",
"343 219 CURVE SMOOTH",
"291 219 OFFCURVE",
"199 219 OFFCURVE",
"175 219 CURVE SMOOTH",
"162 219 OFFCURVE",
"161 209 OFFCURVE",
"160 202 CURVE",
"221 202 OFFCURVE",
"281 202 OFFCURVE",
"342 202 CURVE",
"425 202 OFFCURVE",
"480 247 OFFCURVE",
"493 337 CURVE SMOOTH",
"503 410 OFFCURVE",
"480 453 OFFCURVE",
"404 459 CURVE SMOOTH",
"351 463 OFFCURVE",
"238 462 OFFCURVE",
"178 460 CURVE SMOOTH",
"148 459 OFFCURVE",
"130 453 OFFCURVE",
"125 414 CURVE SMOOTH",
"105 276 OFFCURVE",
"86 138 OFFCURVE",
"67 0 CURVE"
);
}
);
width = 538;
}
);
leftKerningGroup = H;
leftMetricsKey = B;
note = P;
rightKerningGroup = P;
unicode = 0050;
},
{
glyphname = Thorn;
lastChange = "2021-09-08 23:18:03 +0000";
layers = (
{
background = {
paths = (
{
closed = 1;
nodes = (
"-8 0 LINE",
"176 0 LINE",
"191 108 LINE",
"409 108 LINE SMOOTH",
"563 108 OFFCURVE",
"608 165 OFFCURVE",
"622 264 CURVE SMOOTH",
"637 369 OFFCURVE",
"625 417 OFFCURVE",
"467 417 CURVE SMOOTH",
"234 417 LINE",
"245 495 LINE",
"134 495 LINE SMOOTH",
"76 495 OFFCURVE",
"61 489 OFFCURVE",
"53 436 CURVE SMOOTH"
);
},
{
closed = 1;
nodes = (
"422 306 LINE SMOOTH",
"440 306 OFFCURVE",
"445 301 OFFCURVE",
"439 264 CURVE SMOOTH",
"434 228 OFFCURVE",
"429 220 OFFCURVE",
"413 220 CURVE SMOOTH",
"207 220 LINE",
"219 306 LINE"
);
}
);
};
layerId = "C7668D88-AC50-4107-9C4B-DB5D26A8FA6C";
paths = (
{
closed = 1;
nodes = (
"-8 0 LINE",
"176 0 LINE",
"191 108 LINE",
"409 108 LINE SMOOTH",
"563 108 OFFCURVE",
"608 165 OFFCURVE",
"622 264 CURVE SMOOTH",
"637 369 OFFCURVE",
"625 417 OFFCURVE",
"467 417 CURVE SMOOTH",
"234 417 LINE",
"245 495 LINE",
"134 495 LINE SMOOTH",
"76 495 OFFCURVE",
"61 489 OFFCURVE",
"53 436 CURVE SMOOTH"
);
},
{
closed = 1;
nodes = (
"422 306 LINE SMOOTH",
"440 306 OFFCURVE",
"445 301 OFFCURVE",
"439 264 CURVE SMOOTH",
"434 228 OFFCURVE",
"429 220 OFFCURVE",
"413 220 CURVE SMOOTH",
"207 220 LINE",
"219 306 LINE"
);
}
);
width = 684;
},
{
background = {
paths = (
{
closed = 1;
nodes = (
"6 0 LINE",
"26 0 LINE",
"44 128 LINE",
"252 128 LINE SMOOTH",
"340 128 OFFCURVE",
"383 179 OFFCURVE",
"396 271 CURVE SMOOTH",
"409 366 OFFCURVE",
"387 410 OFFCURVE",
"301 410 CURVE SMOOTH",
"83 410 LINE",
"96 502 LINE",
"88 502 LINE SMOOTH",
"75 502 OFFCURVE",
"75 490 OFFCURVE",
"70 460 CURVE SMOOTH"
);
},
{
closed = 1;
nodes = (
"298 397 LINE SMOOTH",
"347 397 OFFCURVE",
"394 378 OFFCURVE",
"379 272 CURVE SMOOTH",
"364 165 OFFCURVE",
"314 141 OFFCURVE",
"266 141 CURVE SMOOTH",
"46 141 LINE",
"82 397 LINE"
);
}
);
};
layerId = "B4E8C596-9C01-4F8A-BDA4-90320E25C0E6";
paths = (
{
closed = 1;
nodes = (
"6 0 LINE",
"26 0 LINE",
"44 128 LINE",
"252 128 LINE SMOOTH",
"340 128 OFFCURVE",
"383 179 OFFCURVE",
"396 271 CURVE SMOOTH",
"409 366 OFFCURVE",
"387 410 OFFCURVE",
"301 410 CURVE SMOOTH",
"83 410 LINE",
"96 502 LINE",
"88 502 LINE SMOOTH",
"75 502 OFFCURVE",
"75 490 OFFCURVE",
"70 460 CURVE SMOOTH"
);
},
{
closed = 1;
nodes = (
"298 397 LINE SMOOTH",
"347 397 OFFCURVE",
"394 378 OFFCURVE",
"379 272 CURVE SMOOTH",
"364 165 OFFCURVE",
"314 141 OFFCURVE",
"266 141 CURVE SMOOTH",
"46 141 LINE",
"82 397 LINE"
);
}
);
width = 452;
}
);
note = Thorn;
unicode = 00DE;
},
{
color = 7;
glyphname = Q;
lastChange = "2021-09-10 04:16:46 +0000";
layers = (
{
background = {
paths = (
{
closed = 1;
nodes = (
"-6 16 OFFCURVE",
"142 -6 OFFCURVE",
"336 -6 CURVE SMOOTH",
"382 -6 OFFCURVE",
"427 -5 OFFCURVE",
"470 0 CURVE",
"549 -101 OFFCURVE",
"656 -107 OFFCURVE",
"756 -4 CURVE",
"713 -4 OFFCURVE",
"655 23 OFFCURVE",
"618 44 CURVE",
"674 78 OFFCURVE",
"714 135 OFFCURVE",
"727 230 CURVE SMOOTH",
"757 446 OFFCURVE",
"608 467 OFFCURVE",
"416 467 CURVE SMOOTH",
"227 467 OFFCURVE",
"55 451 OFFCURVE",
"24 230 CURVE SMOOTH"
);
},
{
closed = 1;
nodes = (
"485 196 OFFCURVE",
"477 171 OFFCURVE",
"466 154 CURVE",
"445 166 OFFCURVE",
"421 175 OFFCURVE",
"403 175 CURVE SMOOTH",
"370 175 OFFCURVE",
"338 159 OFFCURVE",
"324 136 CURVE",
"359 109 LINE",
"356 109 OFFCURVE",
"352 109 OFFCURVE",
"349 109 CURVE SMOOTH",
"322 109 OFFCURVE",
"309 111 OFFCURVE",
"292 119 CURVE SMOOTH",
"263 132 OFFCURVE",
"249 162 OFFCURVE",
"259 229 CURVE SMOOTH",
"274 337 OFFCURVE",
"320 351 OFFCURVE",
"392 351 CURVE SMOOTH",
"463 351 OFFCURVE",
"505 337 OFFCURVE",
"490 229 CURVE SMOOTH"
);
},
{
closed = 1;
nodes = (
"-6 16 OFFCURVE",
"142 -6 OFFCURVE",
"336 -6 CURVE SMOOTH",
"382 -6 OFFCURVE",
"427 -5 OFFCURVE",
"470 0 CURVE",
"549 -101 OFFCURVE",
"656 -107 OFFCURVE",
"756 -4 CURVE",
"713 -4 OFFCURVE",
"655 23 OFFCURVE",
"618 44 CURVE",
"674 78 OFFCURVE",
"714 135 OFFCURVE",
"727 230 CURVE SMOOTH",
"757 446 OFFCURVE",
"608 467 OFFCURVE",
"416 467 CURVE SMOOTH",
"227 467 OFFCURVE",
"55 451 OFFCURVE",
"24 230 CURVE SMOOTH"
);
},
{
closed = 1;
nodes = (
"485 196 OFFCURVE",
"477 171 OFFCURVE",
"466 154 CURVE",
"445 166 OFFCURVE",
"421 175 OFFCURVE",
"403 175 CURVE SMOOTH",
"370 175 OFFCURVE",
"338 159 OFFCURVE",
"324 136 CURVE",
"359 109 LINE",
"356 109 OFFCURVE",
"352 109 OFFCURVE",
"349 109 CURVE SMOOTH",
"322 109 OFFCURVE",
"309 111 OFFCURVE",
"292 119 CURVE SMOOTH",
"263 132 OFFCURVE",
"249 162 OFFCURVE",
"259 229 CURVE SMOOTH",
"274 337 OFFCURVE",
"320 351 OFFCURVE",
"392 351 CURVE SMOOTH",
"463 351 OFFCURVE",
"505 337 OFFCURVE",
"490 229 CURVE SMOOTH"
);
}
);
};
layerId = "C7668D88-AC50-4107-9C4B-DB5D26A8FA6C";
paths = (
{
closed = 1;
nodes = (
"570 -7 OFFCURVE",
"656 55 OFFCURVE",
"681 230 CURVE SMOOTH",
"706 405 OFFCURVE",
"636 467 OFFCURVE",
"386 467 CURVE SMOOTH",
"136 467 OFFCURVE",
"49 405 OFFCURVE",
"24 230 CURVE SMOOTH",
"-1 55 OFFCURVE",
"70 -7 OFFCURVE",
"320 -7 CURVE SMOOTH"
);
},
{
closed = 1;
nodes = (
"264 109 OFFCURVE",
"245 138 OFFCURVE",
"258 230 CURVE SMOOTH",
"271 322 OFFCURVE",
"298 351 OFFCURVE",
"370 351 CURVE SMOOTH",
"442 351 OFFCURVE",
"460 322 OFFCURVE",
"447 230 CURVE SMOOTH",
"434 138 OFFCURVE",
"408 109 OFFCURVE",
"336 109 CURVE SMOOTH"
);
},
{
closed = 1;
nodes = (
"591 -94 OFFCURVE",
"624 -77 OFFCURVE",
"649 -33 CURVE",
"550 15 OFFCURVE",
"523 69 OFFCURVE",
"437 146 CURVE SMOOTH",
"406 174 OFFCURVE",
"388 180 OFFCURVE",
"359 180 CURVE SMOOTH",
"337 180 OFFCURVE",
"312 168 OFFCURVE",
"301 142 CURVE",
"365 89 OFFCURVE",
"412 2 OFFCURVE",
"450 -42 CURVE SMOOTH",
"483 -80 OFFCURVE",
"517 -94 OFFCURVE",
"551 -94 CURVE SMOOTH"
);
}
);
width = 701;
},
{
background = {
hints = (
{
horizontal = 1;
place = "{-1, 97}";
type = Stem;
},
{
horizontal = 1;
place = "{180, 97}";
type = Stem;
},
{
horizontal = 1;
place = "{357, 102}";
type = Stem;
},
{
place = "{41, 82}";
type = Stem;
},
{
place = "{152, 8}";
type = Stem;
},
{
place = "{350, 81}";
type = Stem;
},
{
place = "{40, 82}";
type = Stem;
},
{
place = "{351, 81}";
type = Stem;
}
);
paths = (
{
closed = 1;
nodes = (
"24 16 OFFCURVE",
"116 -8 OFFCURVE",
"236 -8 CURVE SMOOTH",
"266 -8 OFFCURVE",
"314 -7 OFFCURVE",
"344 2 CURVE",
"369 -31 OFFCURVE",
"401 -91 OFFCURVE",
"425 -71 CURVE",
"394 -41 OFFCURVE",
"375 -9 OFFCURVE",
"363 7 CURVE",
"465 37 OFFCURVE",
"491 136 OFFCURVE",
"505 232 CURVE SMOOTH",
"535 449 OFFCURVE",
"441 471 OFFCURVE",
"318 471 CURVE SMOOTH",
"197 471 OFFCURVE",
"86 454 OFFCURVE",
"55 232 CURVE SMOOTH"
);
},
{
closed = 1;
nodes = (
"475 165 OFFCURVE",
"459 50 OFFCURVE",
"354 20 CURVE",
"350 24 OFFCURVE",
"287 116 OFFCURVE",
"278 129 CURVE SMOOTH",
"268 143 OFFCURVE",
"263 150 OFFCURVE",
"249 138 CURVE",
"334 17 LINE",
"322 14 OFFCURVE",
"310 12 OFFCURVE",
"294 10 CURVE SMOOTH",
"276 8 OFFCURVE",
"243 8 OFFCURVE",
"230 9 CURVE SMOOTH",
"133 14 OFFCURVE",
"48 28 OFFCURVE",
"76 225 CURVE SMOOTH",
"104 426 OFFCURVE",
"186 453 OFFCURVE",
"312 453 CURVE SMOOTH",
"437 453 OFFCURVE",
"512 426 OFFCURVE",
"484 225 CURVE SMOOTH"
);
},
{
closed = 1;
nodes = (
"24 16 OFFCURVE",
"116 -8 OFFCURVE",
"236 -8 CURVE SMOOTH",
"266 -8 OFFCURVE",
"314 -7 OFFCURVE",
"344 2 CURVE",
"369 -31 OFFCURVE",
"401 -91 OFFCURVE",
"425 -71 CURVE",
"394 -41 OFFCURVE",
"375 -9 OFFCURVE",
"363 7 CURVE",
"465 37 OFFCURVE",
"491 136 OFFCURVE",
"505 232 CURVE SMOOTH",
"535 449 OFFCURVE",
"441 471 OFFCURVE",
"318 471 CURVE SMOOTH",
"197 471 OFFCURVE",
"86 454 OFFCURVE",
"55 232 CURVE SMOOTH"
);
},
{
closed = 1;
nodes = (
"475 165 OFFCURVE",
"459 50 OFFCURVE",
"354 20 CURVE",
"350 24 OFFCURVE",
"287 116 OFFCURVE",
"278 129 CURVE SMOOTH",
"268 143 OFFCURVE",
"263 150 OFFCURVE",
"249 138 CURVE",
"334 17 LINE",
"322 14 OFFCURVE",
"310 12 OFFCURVE",
"294 10 CURVE SMOOTH",
"276 8 OFFCURVE",
"243 8 OFFCURVE",
"230 9 CURVE SMOOTH",
"133 14 OFFCURVE",
"48 28 OFFCURVE",
"76 225 CURVE SMOOTH",
"104 426 OFFCURVE",
"186 453 OFFCURVE",
"312 453 CURVE SMOOTH",
"437 453 OFFCURVE",
"512 426 OFFCURVE",
"484 225 CURVE SMOOTH"
);
}
);
};
layerId = "B4E8C596-9C01-4F8A-BDA4-90320E25C0E6";
paths = (
{
closed = 1;
nodes = (
"363 -7 OFFCURVE",
"475 9 OFFCURVE",
"506 231 CURVE SMOOTH",
"536 447 OFFCURVE",
"442 469 OFFCURVE",
"319 469 CURVE SMOOTH",
"197 469 OFFCURVE",
"85 453 OFFCURVE",
"54 231 CURVE SMOOTH",
"24 15 OFFCURVE",
"118 -7 OFFCURVE",
"241 -7 CURVE SMOOTH"
);
},
{
closed = 1;
nodes = (
"120 9 OFFCURVE",
"47 35 OFFCURVE",
"75 230 CURVE SMOOTH",
"102 426 OFFCURVE",
"182 453 OFFCURVE",
"310 453 CURVE SMOOTH",
"439 453 OFFCURVE",
"512 426 OFFCURVE",
"485 230 CURVE SMOOTH",
"457 35 OFFCURVE",
"377 9 OFFCURVE",
"248 9 CURVE SMOOTH"
);
},
{
closed = 1;
nodes = (
"416 -75 OFFCURVE",
"420 -73 OFFCURVE",
"423 -71 CURVE",
"393 -41 OFFCURVE",
"288 116 OFFCURVE",
"278 129 CURVE SMOOTH",
"272 139 OFFCURVE",
"267 145 OFFCURVE",
"260 145 CURVE SMOOTH",
"256 145 OFFCURVE",
"252 144 OFFCURVE",
"247 140 CURVE",
"259 121 OFFCURVE",
"369 -33 OFFCURVE",
"387 -58 CURVE SMOOTH",
"395 -69 OFFCURVE",
"403 -75 OFFCURVE",
"411 -75 CURVE SMOOTH"
);
}
);
width = 552;
}
);
leftKerningGroup = O;
leftMetricsKey = O;
note = Q;
rightKerningGroup = Q;
unicode = 0051;
},
{
color = 7;
glyphname = R;
lastChange = "2021-09-09 18:56:22 +0000";
layers = (
{
anchors = (
{
name = bottom;
position = "{337, 0}";
},
{
name = top;
position = "{369, 460}";
}
);
background = {
anchors = (
{
name = bottom;
position = "{337, 0}";
},
{
name = top;
position = "{369, 460}";
}
);
hints = (
{
horizontal = 1;
place = "{0, 190}";
type = Stem;
},
{
horizontal = 1;
place = "{344, 116}";
type = Stem;
},
{
place = "{35, 228}";
type = Stem;
},
{
horizontal = 1;
place = "{130, 106}";
type = Stem;
},
{
place = "{432, 232}";
type = Stem;
}
);
paths = (
{
closed = 1;
nodes = (
"366 130 LINE SMOOTH",
"411 130 OFFCURVE",
"427 129 OFFCURVE",
"421 88 CURVE SMOOTH",
"416 51 LINE SMOOTH",
"410 10 OFFCURVE",
"436 0 OFFCURVE",
"481 0 CURVE SMOOTH",
"654 0 LINE",
"653 1 OFFCURVE",
"643 13 OFFCURVE",
"648 46 CURVE SMOOTH",
"658 116 LINE SMOOTH",
"663 148 OFFCURVE",
"664 179 OFFCURVE",
"615 189 CURVE",
"604 190 OFFCURVE",
"588 190 OFFCURVE",
"576 190 CURVE",
"577 195 LINE",
"604 195 OFFCURVE",
"628 202 OFFCURVE",
"641 211 CURVE SMOOTH",
"664 228 OFFCURVE",
"673 253 OFFCURVE",
"685 337 CURVE SMOOTH",
"697 423 OFFCURVE",
"661 452 OFFCURVE",
"589 459 CURVE SMOOTH",
"539 464 OFFCURVE",
"210 460 OFFCURVE",
"150 460 CURVE SMOOTH",
"86 460 OFFCURVE",
"72 431 OFFCURVE",
"67 392 CURVE SMOOTH",
"12 0 LINE",
"240 0 LINE",
"258 129 LINE",
"284 129 OFFCURVE",
"333 130 OFFCURVE",
"333 130 CURVE"
);
},
{
closed = 1;
nodes = (
"286 330 LINE SMOOTH",
"288 342 OFFCURVE",
"298 343 OFFCURVE",
"300 343 CURVE SMOOTH",
"319 343 OFFCURVE",
"396 346 OFFCURVE",
"424 342 CURVE SMOOTH",
"446 339 OFFCURVE",
"453 321 OFFCURVE",
"448 291 CURVE SMOOTH",
"442 247 OFFCURVE",
"419 234 OFFCURVE",
"397 234 CURVE SMOOTH",
"377 234 OFFCURVE",
"291 234 OFFCURVE",
"273 235 CURVE"
);
}
);
};
layerId = "C7668D88-AC50-4107-9C4B-DB5D26A8FA6C";
paths = (
{
closed = 1;
nodes = (
"366 130 LINE SMOOTH",
"411 130 OFFCURVE",
"427 129 OFFCURVE",
"421 88 CURVE SMOOTH",
"416 51 LINE SMOOTH",
"410 10 OFFCURVE",
"436 0 OFFCURVE",
"481 0 CURVE SMOOTH",
"654 0 LINE",
"653 1 OFFCURVE",
"643 13 OFFCURVE",
"648 46 CURVE SMOOTH",
"658 116 LINE SMOOTH",
"663 148 OFFCURVE",
"664 179 OFFCURVE",
"615 189 CURVE",
"604 190 OFFCURVE",
"588 190 OFFCURVE",
"576 190 CURVE",
"577 195 LINE",
"604 195 OFFCURVE",
"628 202 OFFCURVE",
"641 211 CURVE SMOOTH",
"664 228 OFFCURVE",
"673 253 OFFCURVE",
"685 337 CURVE SMOOTH",
"697 423 OFFCURVE",
"661 452 OFFCURVE",
"589 459 CURVE SMOOTH",
"539 464 OFFCURVE",
"210 460 OFFCURVE",
"150 460 CURVE SMOOTH",
"86 460 OFFCURVE",
"72 431 OFFCURVE",
"67 392 CURVE SMOOTH",
"12 0 LINE",
"240 0 LINE",
"258 129 LINE",
"284 129 OFFCURVE",
"333 130 OFFCURVE",
"333 130 CURVE"
);
},
{
closed = 1;
nodes = (
"286 330 LINE SMOOTH",
"288 342 OFFCURVE",
"298 343 OFFCURVE",
"300 343 CURVE SMOOTH",
"319 343 OFFCURVE",
"396 346 OFFCURVE",
"424 342 CURVE SMOOTH",
"446 339 OFFCURVE",
"453 321 OFFCURVE",
"448 291 CURVE SMOOTH",
"442 247 OFFCURVE",
"419 234 OFFCURVE",
"397 234 CURVE SMOOTH",
"377 234 OFFCURVE",
"291 234 OFFCURVE",
"273 235 CURVE"
);
}
);
width = 716;
},
{
anchors = (
{
name = bottom;
position = "{271, 0}";
},
{
name = top;
position = "{308, 460}";
}
);
background = {
anchors = (
{
name = bottom;
position = "{271, 0}";
},
{
name = top;
position = "{308, 460}";
}
);
paths = (
{
closed = 1;
nodes = (
"412 212 LINE SMOOTH",
"457 212 OFFCURVE",
"471 193 OFFCURVE",
"465 152 CURVE SMOOTH",
"446 21 LINE SMOOTH",
"443 0 OFFCURVE",
"449 0 OFFCURVE",
"458 0 CURVE SMOOTH",
"466 0 LINE",
"465 1 OFFCURVE",
"465 11 OFFCURVE",
"466 15 CURVE SMOOTH",
"484 147 LINE SMOOTH",
"488 179 OFFCURVE",
"489 216 OFFCURVE",
"440 226 CURVE",
"438 226 OFFCURVE",
"434 226 OFFCURVE",
"432 226 CURVE",
"432 227 LINE",
"434 227 OFFCURVE",
"439 227 OFFCURVE",
"442 228 CURVE SMOOTH",
"481 246 OFFCURVE",
"507 284 OFFCURVE",
"515 337 CURVE SMOOTH",
"525 410 OFFCURVE",
"505 452 OFFCURVE",
"437 459 CURVE SMOOTH",
"387 464 OFFCURVE",
"243 462 OFFCURVE",
"183 460 CURVE SMOOTH",
"153 459 OFFCURVE",
"135 453 OFFCURVE",
"130 414 CURVE SMOOTH",
"72 0 LINE",
"92 0 LINE",
"121 211 LINE",
"268 213 OFFCURVE",
"379 212 OFFCURVE",
"379 212 CURVE"
);
},
{
closed = 1;
nodes = (
"150 416 LINE SMOOTH",
"154 441 OFFCURVE",
"176 443 OFFCURVE",
"181 443 CURVE SMOOTH",
"226 445 OFFCURVE",
"373 449 OFFCURVE",
"436 441 CURVE SMOOTH",
"486 435 OFFCURVE",
"503 399 OFFCURVE",
"494 340 CURVE SMOOTH",
"482 254 OFFCURVE",
"431 228 OFFCURVE",
"379 228 CURVE SMOOTH",
"335 228 OFFCURVE",
"168 229 OFFCURVE",
"124 230 CURVE"
);
}
);
};
layerId = "B4E8C596-9C01-4F8A-BDA4-90320E25C0E6";
paths = (
{
closed = 1;
nodes = (
"412 212 LINE SMOOTH",
"457 212 OFFCURVE",
"471 193 OFFCURVE",
"465 152 CURVE SMOOTH",
"446 21 LINE SMOOTH",
"443 0 OFFCURVE",
"449 0 OFFCURVE",
"458 0 CURVE SMOOTH",
"466 0 LINE",
"465 1 OFFCURVE",
"465 11 OFFCURVE",
"466 15 CURVE SMOOTH",
"484 147 LINE SMOOTH",
"488 179 OFFCURVE",
"489 216 OFFCURVE",
"440 226 CURVE",
"438 226 OFFCURVE",
"434 226 OFFCURVE",
"432 226 CURVE",
"432 227 LINE",
"434 227 OFFCURVE",
"439 227 OFFCURVE",
"442 228 CURVE SMOOTH",
"481 246 OFFCURVE",
"507 284 OFFCURVE",
"515 337 CURVE SMOOTH",
"525 410 OFFCURVE",
"505 452 OFFCURVE",
"437 459 CURVE SMOOTH",
"387 464 OFFCURVE",
"243 462 OFFCURVE",
"183 460 CURVE SMOOTH",
"153 459 OFFCURVE",
"135 453 OFFCURVE",
"130 414 CURVE SMOOTH",
"72 0 LINE",
"92 0 LINE",
"121 211 LINE",
"268 213 OFFCURVE",
"379 212 OFFCURVE",
"379 212 CURVE"
);
},
{
closed = 1;
nodes = (
"150 416 LINE SMOOTH",
"154 441 OFFCURVE",
"176 443 OFFCURVE",
"181 443 CURVE SMOOTH",
"226 445 OFFCURVE",
"373 449 OFFCURVE",
"436 441 CURVE SMOOTH",
"486 435 OFFCURVE",
"503 399 OFFCURVE",
"494 340 CURVE SMOOTH",
"482 254 OFFCURVE",
"431 228 OFFCURVE",
"379 228 CURVE SMOOTH",
"335 228 OFFCURVE",
"168 229 OFFCURVE",
"124 230 CURVE"
);
}
);
width = 571;
}
);
leftKerningGroup = H;
leftMetricsKey = H;
note = R;
rightKerningGroup = R;
unicode = 0052;
},
{
color = 7;
glyphname = S;
lastChange = "2021-09-09 18:56:22 +0000";
layers = (
{
anchors = (
{
name = bottom;
position = "{277, 0}";
},
{
name = top;
position = "{371, 460}";
}
);
background = {
anchors = (
{
name = bottom;
position = "{277, 0}";
},
{
name = top;
position = "{371, 460}";
}
);
hints = (
{
horizontal = 1;
place = "{-1, 150}";
type = Stem;
},
{
horizontal = 1;
place = "{150, 152}";
type = Stem;
},
{
horizontal = 1;
place = "{308, 152}";
type = Stem;
},
{
place = "{23, 226}";
type = Stem;
},
{
place = "{420, 229}";
type = Stem;
}
);
paths = (
{
closed = 1;
nodes = (
"11 65 LINE SMOOTH",
"3 9 OFFCURVE",
"56 -1 OFFCURVE",
"192 -4 CURVE SMOOTH",
"279 -6 OFFCURVE",
"350 -5 OFFCURVE",
"438 0 CURVE SMOOTH",
"539 6 OFFCURVE",
"610 46 OFFCURVE",
"626 159 CURVE SMOOTH",
"643 281 OFFCURVE",
"580 297 OFFCURVE",
"477 297 CURVE SMOOTH",
"472 297 OFFCURVE",
"415 297 OFFCURVE",
"312 297 CURVE SMOOTH",
"285 297 OFFCURVE",
"287 309 OFFCURVE",
"289 319 CURVE SMOOTH",
"290 330 OFFCURVE",
"292 343 OFFCURVE",
"335 343 CURVE SMOOTH",
"448 343 LINE SMOOTH",
"508 343 OFFCURVE",
"626 342 OFFCURVE",
"639 328 CURVE",
"639 329 OFFCURVE",
"645 373 OFFCURVE",
"646 381 CURVE SMOOTH",
"652 425 OFFCURVE",
"622 457 OFFCURVE",
"559 460 CURVE SMOOTH",
"521 462 OFFCURVE",
"420 464 OFFCURVE",
"344 464 CURVE SMOOTH",
"176 464 OFFCURVE",
"72 452 OFFCURVE",
"51 301 CURVE SMOOTH",
"33 173 OFFCURVE",
"129 168 OFFCURVE",
"225 168 CURVE SMOOTH",
"308 168 OFFCURVE",
"330 168 OFFCURVE",
"349 168 CURVE SMOOTH",
"375 168 OFFCURVE",
"385 160 OFFCURVE",
"383 146 CURVE SMOOTH",
"381 128 OFFCURVE",
"366 118 OFFCURVE",
"331 118 CURVE SMOOTH",
"314 118 OFFCURVE",
"277 117 OFFCURVE",
"259 117 CURVE SMOOTH",
"187 117 OFFCURVE",
"73 118 OFFCURVE",
"21 138 CURVE"
);
}
);
};
layerId = "C7668D88-AC50-4107-9C4B-DB5D26A8FA6C";
paths = (
{
closed = 1;
nodes = (
"11 65 LINE SMOOTH",
"3 9 OFFCURVE",
"56 -1 OFFCURVE",
"192 -4 CURVE SMOOTH",
"279 -6 OFFCURVE",
"350 -5 OFFCURVE",
"438 0 CURVE SMOOTH",
"539 6 OFFCURVE",
"610 46 OFFCURVE",
"626 159 CURVE SMOOTH",
"643 281 OFFCURVE",
"580 297 OFFCURVE",
"477 297 CURVE SMOOTH",
"472 297 OFFCURVE",
"415 297 OFFCURVE",
"312 297 CURVE SMOOTH",
"285 297 OFFCURVE",
"287 309 OFFCURVE",
"289 319 CURVE SMOOTH",
"290 330 OFFCURVE",
"292 343 OFFCURVE",
"335 343 CURVE SMOOTH",
"448 343 LINE SMOOTH",
"508 343 OFFCURVE",
"626 342 OFFCURVE",
"639 328 CURVE",
"639 329 OFFCURVE",
"645 373 OFFCURVE",
"646 381 CURVE SMOOTH",
"652 425 OFFCURVE",
"622 457 OFFCURVE",
"559 460 CURVE SMOOTH",
"521 462 OFFCURVE",
"420 464 OFFCURVE",
"344 464 CURVE SMOOTH",
"176 464 OFFCURVE",
"72 452 OFFCURVE",
"51 301 CURVE SMOOTH",
"33 173 OFFCURVE",
"129 168 OFFCURVE",
"225 168 CURVE SMOOTH",
"308 168 OFFCURVE",
"330 168 OFFCURVE",
"349 168 CURVE SMOOTH",
"375 168 OFFCURVE",
"385 160 OFFCURVE",
"383 146 CURVE SMOOTH",
"381 128 OFFCURVE",
"366 118 OFFCURVE",
"331 118 CURVE SMOOTH",
"314 118 OFFCURVE",
"277 117 OFFCURVE",
"259 117 CURVE SMOOTH",
"187 117 OFFCURVE",
"73 118 OFFCURVE",
"21 138 CURVE"
);
}
);
width = 662;
},
{
anchors = (
{
name = bottom;
position = "{218, 0}";
},
{
name = top;
position = "{302, 460}";
}
);
background = {
anchors = (
{
name = bottom;
position = "{218, 0}";
},
{
name = top;
position = "{302, 460}";
}
);
paths = (
{
closed = 1;
nodes = (
"45 34 LINE SMOOTH",
"41 -2 OFFCURVE",
"170 -6 OFFCURVE",
"206 -6 CURVE SMOOTH",
"219 -6 OFFCURVE",
"232 -6 OFFCURVE",
"245 -5 CURVE SMOOTH",
"351 0 OFFCURVE",
"435 28 OFFCURVE",
"449 132 CURVE SMOOTH",
"464 236 OFFCURVE",
"404 246 OFFCURVE",
"323 246 CURVE SMOOTH",
"289 246 OFFCURVE",
"256 246 OFFCURVE",
"222 246 CURVE SMOOTH",
"145 246 OFFCURVE",
"91 253 OFFCURVE",
"103 334 CURVE SMOOTH",
"117 437 OFFCURVE",
"203 447 OFFCURVE",
"290 447 CURVE SMOOTH",
"328 447 LINE SMOOTH",
"366 447 OFFCURVE",
"461 442 OFFCURVE",
"483 409 CURVE",
"484 415 OFFCURVE",
"485 420 OFFCURVE",
"486 426 CURVE SMOOTH",
"486 431 OFFCURVE",
"484 435 OFFCURVE",
"479 439 CURVE SMOOTH",
"448 462 OFFCURVE",
"366 464 OFFCURVE",
"316 464 CURVE SMOOTH",
"206 464 OFFCURVE",
"101 455 OFFCURVE",
"84 334 CURVE SMOOTH",
"69 231 OFFCURVE",
"151 228 OFFCURVE",
"221 228 CURVE SMOOTH",
"256 228 OFFCURVE",
"292 228 OFFCURVE",
"327 228 CURVE SMOOTH",
"401 228 OFFCURVE",
"441 215 OFFCURVE",
"430 135 CURVE SMOOTH",
"416 37 OFFCURVE",
"343 15 OFFCURVE",
"246 12 CURVE SMOOTH",
"233 11 OFFCURVE",
"221 11 OFFCURVE",
"209 11 CURVE SMOOTH",
"162 11 OFFCURVE",
"78 14 OFFCURVE",
"46 44 CURVE"
);
}
);
};
layerId = "B4E8C596-9C01-4F8A-BDA4-90320E25C0E6";
paths = (
{
closed = 1;
nodes = (
"45 34 LINE SMOOTH",
"41 -2 OFFCURVE",
"170 -6 OFFCURVE",
"206 -6 CURVE SMOOTH",
"219 -6 OFFCURVE",
"232 -6 OFFCURVE",
"245 -5 CURVE SMOOTH",
"351 0 OFFCURVE",
"435 28 OFFCURVE",
"449 132 CURVE SMOOTH",
"464 236 OFFCURVE",
"404 246 OFFCURVE",
"323 246 CURVE SMOOTH",
"289 246 OFFCURVE",
"256 246 OFFCURVE",
"222 246 CURVE SMOOTH",
"145 246 OFFCURVE",
"91 253 OFFCURVE",
"103 334 CURVE SMOOTH",
"117 437 OFFCURVE",
"203 447 OFFCURVE",
"290 447 CURVE SMOOTH",
"328 447 LINE SMOOTH",
"366 447 OFFCURVE",
"461 442 OFFCURVE",
"483 409 CURVE",
"484 415 OFFCURVE",
"485 420 OFFCURVE",
"486 426 CURVE SMOOTH",
"486 431 OFFCURVE",
"484 435 OFFCURVE",
"479 439 CURVE SMOOTH",
"448 462 OFFCURVE",
"366 464 OFFCURVE",
"316 464 CURVE SMOOTH",
"206 464 OFFCURVE",
"101 455 OFFCURVE",
"84 334 CURVE SMOOTH",
"69 231 OFFCURVE",
"151 228 OFFCURVE",
"221 228 CURVE SMOOTH",
"256 228 OFFCURVE",
"292 228 OFFCURVE",
"327 228 CURVE SMOOTH",
"401 228 OFFCURVE",
"441 215 OFFCURVE",
"430 135 CURVE SMOOTH",
"416 37 OFFCURVE",
"343 15 OFFCURVE",
"246 12 CURVE SMOOTH",
"233 11 OFFCURVE",
"221 11 OFFCURVE",
"209 11 CURVE SMOOTH",
"162 11 OFFCURVE",
"78 14 OFFCURVE",
"46 44 CURVE"
);
}
);
width = 528;
}
);
leftKerningGroup = S;
note = S;
rightKerningGroup = S;
unicode = 0053;
},
{
color = 7;
glyphname = T;
lastChange = "2021-09-09 18:56:22 +0000";
layers = (
{
anchors = (
{
name = bottom;
position = "{303, 0}";
},
{
name = center;
position = "{335, 230}";
},
{
name = top;
position = "{368, 460}";
}
);
background = {
anchors = (
{
name = bottom;
position = "{303, 0}";
},
{
name = center;
position = "{335, 230}";
},
{
name = top;
position = "{368, 460}";
}
);
paths = (
{
closed = 1;
nodes = (
"36 342 LINE",
"234 342 LINE",
"186 0 LINE",
"340 0 LINE SMOOTH",
"403 0 OFFCURVE",
"416 13 OFFCURVE",
"424 70 CURVE SMOOTH",
"462 342 LINE",
"658 342 LINE",
"674 460 LINE",
"52 460 LINE"
);
}
);
};
layerId = "C7668D88-AC50-4107-9C4B-DB5D26A8FA6C";
paths = (
{
closed = 1;
nodes = (
"36 342 LINE",
"234 342 LINE",
"186 0 LINE",
"340 0 LINE SMOOTH",
"403 0 OFFCURVE",
"416 13 OFFCURVE",
"424 70 CURVE SMOOTH",
"462 342 LINE",
"658 342 LINE",
"674 460 LINE",
"52 460 LINE"
);
}
);
width = 653;
},
{
anchors = (
{
name = bottom;
position = "{198, 7}";
},
{
name = center;
position = "{230, 230}";
},
{
name = top;
position = "{258, 460}";
}
);
background = {
anchors = (
{
name = bottom;
position = "{198, 7}";
},
{
name = center;
position = "{230, 230}";
},
{
name = top;
position = "{258, 460}";
}
);
paths = (
{
closed = 1;
nodes = (
"60 443 LINE",
"246 443 LINE",
"184 0 LINE",
"194 0 LINE SMOOTH",
"204 0 OFFCURVE",
"204 7 OFFCURVE",
"206 19 CURVE SMOOTH",
"266 443 LINE",
"452 443 LINE",
"454 460 LINE",
"62 460 LINE"
);
}
);
};
layerId = "B4E8C596-9C01-4F8A-BDA4-90320E25C0E6";
paths = (
{
closed = 1;
nodes = (
"60 443 LINE",
"246 443 LINE",
"184 0 LINE",
"194 0 LINE SMOOTH",
"204 0 OFFCURVE",
"204 7 OFFCURVE",
"206 19 CURVE SMOOTH",
"266 443 LINE",
"452 443 LINE",
"454 460 LINE",
"62 460 LINE"
);
}
);
width = 443;
}
);
leftKerningGroup = T;
note = T;
rightKerningGroup = T;
unicode = 0054;
},
{
color = 7;
glyphname = Tbar;
lastChange = "2021-09-08 23:18:03 +0000";
layers = (
{
background = {
paths = (
{
closed = 1;
nodes = (
"96 206 LINE",
"210 206 LINE",
"181 0 LINE",
"335 0 LINE SMOOTH",
"398 0 OFFCURVE",
"411 13 OFFCURVE",
"419 70 CURVE SMOOTH",
"438 206 LINE",
"558 206 LINE",
"566 266 LINE",
"446 266 LINE",
"457 342 LINE",
"653 342 LINE",
"669 460 LINE",
"47 460 LINE",
"31 342 LINE",
"229 342 LINE",
"218 266 LINE",
"104 266 LINE"
);
}
);
};
layerId = "C7668D88-AC50-4107-9C4B-DB5D26A8FA6C";
paths = (
{
closed = 1;
nodes = (
"96 206 LINE",
"210 206 LINE",
"181 0 LINE",
"335 0 LINE SMOOTH",
"398 0 OFFCURVE",
"411 13 OFFCURVE",
"419 70 CURVE SMOOTH",
"438 206 LINE",
"558 206 LINE",
"566 266 LINE",
"446 266 LINE",
"457 342 LINE",
"653 342 LINE",
"669 460 LINE",
"47 460 LINE",
"31 342 LINE",
"229 342 LINE",
"218 266 LINE",
"104 266 LINE"
);
}
);
width = 652;
},
{
background = {
paths = (
{
closed = 1;
nodes = (
"84 300 LINE",
"216 300 LINE",
"174 0 LINE",
"184 0 LINE SMOOTH",
"194 0 OFFCURVE",
"195 7 OFFCURVE",
"196 19 CURVE SMOOTH",
"236 300 LINE",
"370 300 LINE",
"371 308 LINE",
"237 308 LINE",
"256 443 LINE",
"442 443 LINE",
"444 460 LINE",
"52 460 LINE",
"50 443 LINE",
"236 443 LINE",
"217 308 LINE",
"85 308 LINE"
);
}
);
};
layerId = "B4E8C596-9C01-4F8A-BDA4-90320E25C0E6";
paths = (
{
closed = 1;
nodes = (
"84 300 LINE",
"216 300 LINE",
"174 0 LINE",
"184 0 LINE SMOOTH",
"194 0 OFFCURVE",
"195 7 OFFCURVE",
"196 19 CURVE SMOOTH",
"236 300 LINE",
"370 300 LINE",
"371 308 LINE",
"237 308 LINE",
"256 443 LINE",
"442 443 LINE",
"444 460 LINE",
"52 460 LINE",
"50 443 LINE",
"236 443 LINE",
"217 308 LINE",
"85 308 LINE"
);
}
);
width = 432;
}
);
note = Tbar;
unicode = 0166;
},
{
color = 7;
glyphname = U;
lastChange = "2021-09-09 18:56:22 +0000";
layers = (
{
anchors = (
{
name = bottom;
position = "{318, 0}";
},
{
name = ogonek;
position = "{383, 10}";
},
{
name = top;
position = "{375, 460}";
},
{
name = topright;
position = "{577, 460}";
}
);
background = {
anchors = (
{
name = bottom;
position = "{318, 0}";
},
{
name = ogonek;
position = "{383, 10}";
},
{
name = top;
position = "{375, 460}";
},
{
name = topright;
position = "{577, 460}";
}
);
paths = (
{
closed = 1;
nodes = (
"677 362 LINE SMOOTH",
"689 443 OFFCURVE",
"692 460 OFFCURVE",
"605 460 CURVE SMOOTH",
"462 460 LINE",
"426 203 LINE SMOOTH",
"417 139 OFFCURVE",
"394 120 OFFCURVE",
"330 120 CURVE SMOOTH",
"271 120 OFFCURVE",
"248 125 OFFCURVE",
"259 205 CURVE SMOOTH",
"294 460 LINE",
"149 460 LINE SMOOTH",
"62 460 OFFCURVE",
"65 443 OFFCURVE",
"53 362 CURVE SMOOTH",
"35 236 LINE SMOOTH",
"11 66 OFFCURVE",
"4 -2 OFFCURVE",
"312 -2 CURVE SMOOTH",
"607 -2 OFFCURVE",
"634 63 OFFCURVE",
"661 250 CURVE SMOOTH"
);
}
);
};
layerId = "C7668D88-AC50-4107-9C4B-DB5D26A8FA6C";
paths = (
{
closed = 1;
nodes = (
"677 362 LINE SMOOTH",
"689 443 OFFCURVE",
"692 460 OFFCURVE",
"605 460 CURVE SMOOTH",
"462 460 LINE",
"426 203 LINE SMOOTH",
"417 139 OFFCURVE",
"394 120 OFFCURVE",
"330 120 CURVE SMOOTH",
"271 120 OFFCURVE",
"248 125 OFFCURVE",
"259 205 CURVE SMOOTH",
"294 460 LINE",
"149 460 LINE SMOOTH",
"62 460 OFFCURVE",
"65 443 OFFCURVE",
"53 362 CURVE SMOOTH",
"35 236 LINE SMOOTH",
"11 66 OFFCURVE",
"4 -2 OFFCURVE",
"312 -2 CURVE SMOOTH",
"607 -2 OFFCURVE",
"634 63 OFFCURVE",
"661 250 CURVE SMOOTH"
);
}
);
width = 684;
},
{
anchors = (
{
name = bottom;
position = "{245, 0}";
},
{
name = ogonek;
position = "{263, 10}";
},
{
name = top;
position = "{319, 460}";
},
{
name = topright;
position = "{482, 460}";
}
);
background = {
anchors = (
{
name = bottom;
position = "{245, 0}";
},
{
name = ogonek;
position = "{263, 10}";
},
{
name = top;
position = "{319, 460}";
},
{
name = topright;
position = "{482, 460}";
}
);
paths = (
{
closed = 1;
nodes = (
"499 442 LINE SMOOTH",
"501 456 OFFCURVE",
"501 460 OFFCURVE",
"491 460 CURVE SMOOTH",
"482 460 LINE",
"437 140 LINE SMOOTH",
"424 51 OFFCURVE",
"369 14 OFFCURVE",
"250 14 CURVE SMOOTH",
"131 14 OFFCURVE",
"89 46 OFFCURVE",
"102 139 CURVE SMOOTH",
"148 460 LINE",
"139 460 LINE SMOOTH",
"129 460 OFFCURVE",
"127 456 OFFCURVE",
"125 442 CURVE SMOOTH",
"87 175 LINE SMOOTH",
"75 89 OFFCURVE",
"62 -3 OFFCURVE",
"247 -3 CURVE SMOOTH",
"438 -3 OFFCURVE",
"450 90 OFFCURVE",
"462 176 CURVE SMOOTH"
);
}
);
};
layerId = "B4E8C596-9C01-4F8A-BDA4-90320E25C0E6";
paths = (
{
closed = 1;
nodes = (
"499 442 LINE SMOOTH",
"501 456 OFFCURVE",
"501 460 OFFCURVE",
"491 460 CURVE SMOOTH",
"482 460 LINE",
"437 140 LINE SMOOTH",
"424 51 OFFCURVE",
"369 14 OFFCURVE",
"250 14 CURVE SMOOTH",
"131 14 OFFCURVE",
"89 46 OFFCURVE",
"102 139 CURVE SMOOTH",
"148 460 LINE",
"139 460 LINE SMOOTH",
"129 460 OFFCURVE",
"127 456 OFFCURVE",
"125 442 CURVE SMOOTH",
"87 175 LINE SMOOTH",
"75 89 OFFCURVE",
"62 -3 OFFCURVE",
"247 -3 CURVE SMOOTH",
"438 -3 OFFCURVE",
"450 90 OFFCURVE",
"462 176 CURVE SMOOTH"
);
}
);
width = 555;
}
);
leftKerningGroup = U;
leftMetricsKey = "=H-10";
note = U;
rightKerningGroup = U;
rightMetricsKey = "=H-10";
unicode = 0055;
},
{
color = 7;
glyphname = V;
lastChange = "2021-09-09 18:57:50 +0000";
layers = (
{
background = {
paths = (
{
closed = 1;
nodes = (
"515 153 OFFCURVE",
"609 307 OFFCURVE",
"703 460 CURVE",
"646 460 OFFCURVE",
"587 460 OFFCURVE",
"530 460 CURVE",
"481 381 OFFCURVE",
"432 302 OFFCURVE",
"383 223 CURVE",
"381 217 OFFCURVE",
"379 211 OFFCURVE",
"377 205 CURVE",
"376 205 OFFCURVE",
"377 205 OFFCURVE",
"376 205 CURVE",
"376 211 OFFCURVE",
"377 217 OFFCURVE",
"377 223 CURVE",
"351 302 OFFCURVE",
"325 381 OFFCURVE",
"299 460 CURVE",
"213 460 OFFCURVE",
"128 460 OFFCURVE",
"42 460 CURVE",
"85 331 OFFCURVE",
"129 203 OFFCURVE",
"172 74 CURVE",
"199 6 OFFCURVE",
"223 0 OFFCURVE",
"285 0 CURVE",
"330 0 OFFCURVE",
"376 0 OFFCURVE",
"421 0 CURVE"
);
}
);
};
layerId = "C7668D88-AC50-4107-9C4B-DB5D26A8FA6C";
paths = (
{
closed = 1;
nodes = (
"515 153 OFFCURVE",
"609 307 OFFCURVE",
"703 460 CURVE",
"646 460 OFFCURVE",
"587 460 OFFCURVE",
"530 460 CURVE",
"481 381 OFFCURVE",
"432 302 OFFCURVE",
"383 223 CURVE",
"381 217 OFFCURVE",
"379 211 OFFCURVE",
"377 205 CURVE",
"376 205 OFFCURVE",
"377 205 OFFCURVE",
"376 205 CURVE",
"376 211 OFFCURVE",
"377 217 OFFCURVE",
"377 223 CURVE",
"351 302 OFFCURVE",
"325 381 OFFCURVE",
"299 460 CURVE",
"213 460 OFFCURVE",
"128 460 OFFCURVE",
"42 460 CURVE",
"85 331 OFFCURVE",
"129 203 OFFCURVE",
"172 74 CURVE",
"199 6 OFFCURVE",
"223 0 OFFCURVE",
"285 0 CURVE",
"330 0 OFFCURVE",
"376 0 OFFCURVE",
"421 0 CURVE"
);
}
);
width = 664;
},
{
background = {
hints = (
{
horizontal = 1;
place = "{0, 171}";
type = Stem;
},
{
horizontal = 1;
place = "{460, -20}";
target = down;
type = TopGhost;
},
{
place = "{39, 437}";
type = Stem;
},
{
horizontal = 1;
place = "{75, 96}";
type = Stem;
},
{
place = "{32, 438}";
type = Stem;
}
);
paths = (
{
closed = 1;
nodes = (
"303 153 OFFCURVE",
"369 307 OFFCURVE",
"437 460 CURVE",
"431 460 OFFCURVE",
"425 460 OFFCURVE",
"420 460 CURVE",
"356 312 OFFCURVE",
"290 158 OFFCURVE",
"229 24 CURVE",
"229 24 OFFCURVE",
"225 15 OFFCURVE",
"225 15 CURVE",
"216 15 OFFCURVE",
"208 15 OFFCURVE",
"200 16 CURVE SMOOTH",
"185 18 OFFCURVE",
"159 19 OFFCURVE",
"152 64 CURVE SMOOTH",
"129 196 OFFCURVE",
"110 328 OFFCURVE",
"89 460 CURVE",
"82 460 OFFCURVE",
"74 460 OFFCURVE",
"67 460 CURVE",
"88 335 OFFCURVE",
"109 204 OFFCURVE",
"129 75 CURVE SMOOTH",
"132 55 OFFCURVE",
"140 1 OFFCURVE",
"200 0 CURVE SMOOTH",
"217 0 OFFCURVE",
"229 0 OFFCURVE",
"236 0 CURVE"
);
}
);
};
layerId = "B4E8C596-9C01-4F8A-BDA4-90320E25C0E6";
paths = (
{
closed = 1;
nodes = (
"303 153 OFFCURVE",
"369 307 OFFCURVE",
"437 460 CURVE",
"431 460 OFFCURVE",
"425 460 OFFCURVE",
"420 460 CURVE",
"356 312 OFFCURVE",
"290 158 OFFCURVE",
"229 24 CURVE",
"229 24 OFFCURVE",
"225 15 OFFCURVE",
"225 15 CURVE",
"216 15 OFFCURVE",
"208 15 OFFCURVE",
"200 16 CURVE SMOOTH",
"185 18 OFFCURVE",
"159 19 OFFCURVE",
"152 64 CURVE SMOOTH",
"129 196 OFFCURVE",
"110 328 OFFCURVE",
"89 460 CURVE",
"82 460 OFFCURVE",
"74 460 OFFCURVE",
"67 460 CURVE",
"88 335 OFFCURVE",
"109 204 OFFCURVE",
"129 75 CURVE SMOOTH",
"132 55 OFFCURVE",
"140 1 OFFCURVE",
"200 0 CURVE SMOOTH",
"217 0 OFFCURVE",
"229 0 OFFCURVE",
"236 0 CURVE"
);
}
);
width = 432;
}
);
leftKerningGroup = V;
note = V;
rightKerningGroup = V;
unicode = 0056;
},
{
color = 7;
glyphname = W;
lastChange = "2021-09-09 18:56:22 +0000";
layers = (
{
anchors = (
{
name = bottom;
position = "{408, 0}";
},
{
name = top;
position = "{487, 460}";
}
);
background = {
anchors = (
{
name = bottom;
position = "{408, 0}";
},
{
name = top;
position = "{487, 460}";
}
);
paths = (
{
closed = 1;
nodes = (
"70 82 LINE SMOOTH",
"76 4 OFFCURVE",
"117 0 OFFCURVE",
"174 0 CURVE SMOOTH",
"358 0 LINE",
"444 179 LINE",
"448 197 LINE",
"451 197 LINE",
"452 179 LINE",
"487 0 LINE",
"627 0 LINE SMOOTH",
"683 0 OFFCURVE",
"729 10 OFFCURVE",
"755 82 CURVE SMOOTH",
"894 460 LINE",
"839 460 OFFCURVE",
"784 460 OFFCURVE",
"729 460 CURVE",
"658 259 LINE",
"656 249 OFFCURVE",
"653 240 OFFCURVE",
"651 230 CURVE",
"652 269 LINE",
"615 460 LINE",
"390 460 LINE",
"300 269 LINE",
"291 230 LINE",
"291 240 OFFCURVE",
"292 249 OFFCURVE",
"292 259 CURVE",
"281 460 LINE",
"42 460 LINE"
);
}
);
};
layerId = "C7668D88-AC50-4107-9C4B-DB5D26A8FA6C";
paths = (
{
closed = 1;
nodes = (
"70 82 LINE SMOOTH",
"76 4 OFFCURVE",
"117 0 OFFCURVE",
"174 0 CURVE SMOOTH",
"358 0 LINE",
"444 179 LINE",
"448 197 LINE",
"451 197 LINE",
"452 179 LINE",
"487 0 LINE",
"627 0 LINE SMOOTH",
"683 0 OFFCURVE",
"729 10 OFFCURVE",
"755 82 CURVE SMOOTH",
"894 460 LINE",
"839 460 OFFCURVE",
"784 460 OFFCURVE",
"729 460 CURVE",
"658 259 LINE",
"656 249 OFFCURVE",
"653 240 OFFCURVE",
"651 230 CURVE",
"652 269 LINE",
"615 460 LINE",
"390 460 LINE",
"300 269 LINE",
"291 230 LINE",
"291 240 OFFCURVE",
"292 249 OFFCURVE",
"292 259 CURVE",
"281 460 LINE",
"42 460 LINE"
);
}
);
width = 862;
},
{
anchors = (
{
name = bottom;
position = "{303, 0}";
},
{
name = top;
position = "{368, 460}";
}
);
background = {
anchors = (
{
name = bottom;
position = "{303, 0}";
},
{
name = top;
position = "{368, 460}";
}
);
hints = (
{
horizontal = 1;
place = "{0, 16}";
type = Stem;
},
{
horizontal = 1;
place = "{425, 35}";
type = Stem;
},
{
place = "{70, 22}";
type = Stem;
},
{
place = "{483, 24}";
type = Stem;
}
);
paths = (
{
closed = 1;
nodes = (
"90 81 LINE SMOOTH",
"89 -2 OFFCURVE",
"110 0 OFFCURVE",
"167 0 CURVE SMOOTH",
"208 0 LINE",
"348 404 LINE",
"356 425 LINE",
"356 425 LINE",
"359 398 LINE",
"389 0 LINE",
"423 0 LINE SMOOTH",
"479 0 OFFCURVE",
"506 -3 OFFCURVE",
"527 75 CURVE SMOOTH",
"631 460 LINE",
"617 460 OFFCURVE",
"616 460 OFFCURVE",
"607 460 CURVE",
"500 55 LINE",
"492 25 OFFCURVE",
"459 16 OFFCURVE",
"446 16 CURVE",
"406 16 LINE",
"373 460 LINE",
"349 460 LINE",
"194 16 LINE",
"157 16 LINE",
"128 16 OFFCURVE",
"110 21 OFFCURVE",
"110 72 CURVE",
"115 460 LINE",
"94 460 LINE"
);
}
);
};
layerId = "B4E8C596-9C01-4F8A-BDA4-90320E25C0E6";
paths = (
{
closed = 1;
nodes = (
"90 81 LINE SMOOTH",
"89 -2 OFFCURVE",
"110 0 OFFCURVE",
"167 0 CURVE SMOOTH",
"208 0 LINE",
"348 404 LINE",
"356 425 LINE",
"356 425 LINE",
"359 398 LINE",
"389 0 LINE",
"423 0 LINE SMOOTH",
"479 0 OFFCURVE",
"506 -3 OFFCURVE",
"527 75 CURVE SMOOTH",
"631 460 LINE",
"617 460 OFFCURVE",
"616 460 OFFCURVE",
"607 460 CURVE",
"500 55 LINE",
"492 25 OFFCURVE",
"459 16 OFFCURVE",
"446 16 CURVE",
"406 16 LINE",
"373 460 LINE",
"349 460 LINE",
"194 16 LINE",
"157 16 LINE",
"128 16 OFFCURVE",
"110 21 OFFCURVE",
"110 72 CURVE",
"115 460 LINE",
"94 460 LINE"
);
}
);
width = 656;
}
);
leftKerningGroup = W;
note = W;
rightKerningGroup = W;
unicode = 0057;
},
{
color = 7;
glyphname = X;
lastChange = "2021-09-10 04:35:57 +0000";
layers = (
{
background = {
paths = (
{
closed = 1;
nodes = (
"45 460 LINE",
"50 458 OFFCURVE",
"58 448 OFFCURVE",
"61 443 CURVE SMOOTH",
"220 218 LINE",
"65 81 LINE",
"50 65 OFFCURVE",
"-1 21 OFFCURVE",
"-33 1 CURVE",
"99 0 LINE SMOOTH",
"159 0 OFFCURVE",
"191 6 OFFCURVE",
"237 48 CURVE SMOOTH",
"300 104 LINE",
"332 60 LINE SMOOTH",
"371 3 OFFCURVE",
"407 0 OFFCURVE",
"467 0 CURVE SMOOTH",
"684 0 LINE",
"664 5 OFFCURVE",
"629 65 OFFCURVE",
"629 65 CURVE",
"572 143 OFFCURVE",
"523 211 OFFCURVE",
"483 267 CURVE",
"606 377 OFFCURVE",
"653 418 OFFCURVE",
"699 460 CURVE",
"495 460 LINE",
"404 379 LINE",
"373 422 OFFCURVE",
"354 450 OFFCURVE",
"347 460 CURVE"
);
},
{
closed = 1;
nodes = (
"45 460 LINE",
"50 458 OFFCURVE",
"58 448 OFFCURVE",
"61 443 CURVE SMOOTH",
"220 218 LINE",
"65 81 LINE",
"50 65 OFFCURVE",
"-1 21 OFFCURVE",
"-33 1 CURVE",
"99 0 LINE SMOOTH",
"159 0 OFFCURVE",
"190 7 OFFCURVE",
"237 48 CURVE SMOOTH",
"300 104 LINE",
"332 60 LINE SMOOTH",
"373 4 OFFCURVE",
"407 0 OFFCURVE",
"467 0 CURVE SMOOTH",
"684 0 LINE",
"666 5 OFFCURVE",
"645 35 OFFCURVE",
"618 74 CURVE SMOOTH",
"569 143 OFFCURVE",
"523 211 OFFCURVE",
"483 267 CURVE",
"606 377 OFFCURVE",
"653 418 OFFCURVE",
"699 460 CURVE",
"495 460 LINE",
"404 379 LINE",
"373 422 OFFCURVE",
"354 450 OFFCURVE",
"347 460 CURVE"
);
}
);
};
layerId = "C7668D88-AC50-4107-9C4B-DB5D26A8FA6C";
paths = (
{
closed = 1;
nodes = (
"686 0 LINE",
"667 11 OFFCURVE",
"650 34 OFFCURVE",
"628 63 CURVE SMOOTH",
"437 320 LINE",
"349 460 LINE",
"49 460 LINE",
"257 172 LINE",
"334 60 LINE SMOOTH",
"372 4 OFFCURVE",
"409 0 OFFCURVE",
"469 0 CURVE SMOOTH"
);
},
{
closed = 1;
nodes = (
"172 -1 OFFCURVE",
"203 14 OFFCURVE",
"239 48 CURVE SMOOTH",
"392 196 LINE",
"701 460 LINE",
"497 460 LINE",
"287 283 LINE",
"67 81 LINE SMOOTH",
"40 57 OFFCURVE",
"1 21 OFFCURVE",
"-31 1 CURVE",
"101 0 LINE SMOOTH"
);
}
);
width = 699;
},
{
background = {
hints = (
{
horizontal = 1;
place = "{-1, 21}";
target = up;
type = BottomGhost;
},
{
place = "{5, 381}";
type = Stem;
}
);
paths = (
{
closed = 1;
nodes = (
"60 460 LINE",
"98 400 OFFCURVE",
"202 227 OFFCURVE",
"202 227 CURVE SMOOTH",
"202 227 LINE",
"62 74 LINE",
"62 74 OFFCURVE",
"16 19 OFFCURVE",
"-8 0 CURVE",
"10 0 LINE SMOOTH",
"16 0 OFFCURVE",
"24 9 OFFCURVE",
"29 14 CURVE SMOOTH",
"210 214 LINE",
"210 214 LINE SMOOTH",
"252 151 OFFCURVE",
"330 -2 OFFCURVE",
"353 -1 CURVE SMOOTH",
"375 0 LINE",
"354 13 OFFCURVE",
"226 232 OFFCURVE",
"226 232 CURVE",
"226 232 OFFCURVE",
"226 232 OFFCURVE",
"226 232 CURVE",
"226 232 OFFCURVE",
"435 460 OFFCURVE",
"435 460 CURVE",
"413 460 LINE",
"218 246 LINE",
"197 278 OFFCURVE",
"87 460 OFFCURVE",
"87 460 CURVE"
);
},
{
closed = 1;
nodes = (
"60 460 LINE",
"98 400 OFFCURVE",
"202 227 OFFCURVE",
"202 227 CURVE SMOOTH",
"202 227 LINE",
"62 74 LINE",
"62 74 OFFCURVE",
"16 19 OFFCURVE",
"-8 0 CURVE",
"10 0 LINE SMOOTH",
"16 0 OFFCURVE",
"24 9 OFFCURVE",
"29 14 CURVE SMOOTH",
"210 214 LINE",
"210 214 LINE SMOOTH",
"252 151 OFFCURVE",
"330 -2 OFFCURVE",
"353 -1 CURVE SMOOTH",
"375 0 LINE",
"354 13 OFFCURVE",
"226 232 OFFCURVE",
"226 232 CURVE",
"226 232 OFFCURVE",
"226 232 OFFCURVE",
"226 232 CURVE",
"226 232 OFFCURVE",
"435 460 OFFCURVE",
"435 460 CURVE",
"413 460 LINE",
"218 246 LINE",
"197 278 OFFCURVE",
"87 460 OFFCURVE",
"87 460 CURVE"
);
},
{
closed = 1;
nodes = (
"60 460 LINE",
"202 227 LINE",
"62 74 LINE",
"62 74 OFFCURVE",
"16 19 OFFCURVE",
"-8 0 CURVE",
"10 0 LINE SMOOTH",
"16 0 OFFCURVE",
"24 9 OFFCURVE",
"29 14 CURVE SMOOTH",
"210 214 LINE",
"243 165 OFFCURVE",
"330 -2 OFFCURVE",
"353 -1 CURVE SMOOTH",
"375 0 LINE",
"226 232 LINE",
"226 232 OFFCURVE",
"435 460 OFFCURVE",
"435 460 CURVE",
"413 460 LINE",
"218 246 LINE",
"197 278 OFFCURVE",
"87 460 OFFCURVE",
"87 460 CURVE"
);
}
);
};
layerId = "B4E8C596-9C01-4F8A-BDA4-90320E25C0E6";
paths = (
{
closed = 1;
nodes = (
"368 0 LINE",
"362 9 OFFCURVE",
"357 17 OFFCURVE",
"346 35 CURVE SMOOTH",
"214 241 LINE",
"81 461 LINE",
"56 461 LINE",
"201 223 LINE",
"337 10 LINE SMOOTH",
"340 5 OFFCURVE",
"347 0 OFFCURVE",
"354 0 CURVE SMOOTH"
);
},
{
closed = 1;
nodes = (
"7 0 OFFCURVE",
"14 5 OFFCURVE",
"19 10 CURVE SMOOTH",
"215 224 LINE",
"432 461 LINE",
"409 461 LINE",
"204 236 LINE",
"11 26 LINE SMOOTH",
"3 17 OFFCURVE",
"-4 9 OFFCURVE",
"-12 0 CURVE",
"0 0 LINE SMOOTH"
);
}
);
width = 428;
}
);
leftKerningGroup = X;
note = X;
rightKerningGroup = X;
unicode = 0058;
},
{
color = 7;
glyphname = Y;
lastChange = "2021-09-09 18:58:23 +0000";
layers = (
{
anchors = (
{
name = bottom;
position = "{303, 0}";
},
{
name = top;
position = "{433, 460}";
},
{
name = topleft;
position = "{47, 460}";
}
);
background = {
anchors = (
{
name = bottom;
position = "{303, 0}";
},
{
name = top;
position = "{433, 460}";
},
{
name = topleft;
position = "{47, 460}";
}
);
hints = (
{
horizontal = 1;
place = "{0, 21}";
target = up;
type = BottomGhost;
},
{
place = "{245, 228}";
type = Stem;
}
);
paths = (
{
closed = 1;
nodes = (
"332 0 LINE SMOOTH",
"410 0 OFFCURVE",
"433 10 OFFCURVE",
"442 78 CURVE SMOOTH",
"455 180 LINE",
"695 431 LINE",
"729 460 LINE",
"524 460 LINE",
"424 330 LINE",
"347 460 LINE",
"29 460 LINE",
"48 435 LINE",
"228 180 LINE",
"203 0 LINE"
);
}
);
};
layerId = "C7668D88-AC50-4107-9C4B-DB5D26A8FA6C";
paths = (
{
closed = 1;
nodes = (
"332 0 LINE SMOOTH",
"410 0 OFFCURVE",
"433 10 OFFCURVE",
"442 78 CURVE SMOOTH",
"455 180 LINE",
"695 431 LINE",
"729 460 LINE",
"524 460 LINE",
"424 330 LINE",
"347 460 LINE",
"29 460 LINE",
"48 435 LINE",
"228 180 LINE",
"203 0 LINE"
);
}
);
width = 678;
},
{
anchors = (
{
name = bottom;
position = "{173, 0}";
},
{
name = top;
position = "{254, 460}";
},
{
name = topleft;
position = "{63, 460}";
}
);
background = {
anchors = (
{
name = bottom;
position = "{173, 0}";
},
{
name = top;
position = "{254, 460}";
},
{
name = topleft;
position = "{63, 460}";
}
);
paths = (
{
closed = 1;
nodes = (
"175 0 LINE SMOOTH",
"185 0 OFFCURVE",
"185 7 OFFCURVE",
"187 19 CURVE SMOOTH",
"211 190 LINE",
"401 433 LINE",
"422 460 LINE",
"403 460 LINE",
"206 209 LINE",
"84 460 LINE",
"62 460 LINE",
"75 435 LINE",
"191 190 LINE",
"165 0 LINE"
);
}
);
};
layerId = "B4E8C596-9C01-4F8A-BDA4-90320E25C0E6";
paths = (
{
closed = 1;
nodes = (
"175 0 LINE SMOOTH",
"185 0 OFFCURVE",
"185 7 OFFCURVE",
"187 19 CURVE SMOOTH",
"211 190 LINE",
"401 433 LINE",
"422 460 LINE",
"403 460 LINE",
"206 209 LINE",
"84 460 LINE",
"62 460 LINE",
"75 435 LINE",
"191 190 LINE",
"165 0 LINE"
);
}
);
width = 413;
}
);
leftKerningGroup = Y;
note = Y;
rightKerningGroup = Y;
unicode = 0059;
},
{
color = 7;
glyphname = Z;
lastChange = "2021-09-09 18:56:22 +0000";
layers = (
{
anchors = (
{
name = bottom;
position = "{292, 0}";
},
{
name = center;
position = "{324, 230}";
},
{
name = top;
position = "{357, 460}";
}
);
background = {
anchors = (
{
name = bottom;
position = "{292, 0}";
},
{
name = center;
position = "{324, 230}";
},
{
name = top;
position = "{357, 460}";
}
);
hints = (
{
horizontal = 1;
place = "{0, 118}";
type = Stem;
},
{
horizontal = 1;
place = "{342, 118}";
type = Stem;
},
{
place = "{10, 610}";
type = Stem;
}
);
paths = (
{
closed = 1;
nodes = (
"335 122 LINE",
"539 274 LINE SMOOTH",
"636 346 OFFCURVE",
"646 456 OFFCURVE",
"646 460 CURVE",
"130 460 LINE SMOOTH",
"57 460 OFFCURVE",
"57 433 OFFCURVE",
"44 342 CURVE",
"310 342 LINE",
"306 341 OFFCURVE",
"293 339 OFFCURVE",
"290 338 CURVE",
"213 286 OFFCURVE",
"6 125 OFFCURVE",
"-1 118 CURVE",
"-17 0 LINE",
"501 0 LINE SMOOTH",
"593 0 OFFCURVE",
"593 5 OFFCURVE",
"609 118 CURVE",
"315 118 LINE"
);
}
);
};
layerId = "C7668D88-AC50-4107-9C4B-DB5D26A8FA6C";
paths = (
{
closed = 1;
nodes = (
"335 122 LINE",
"539 274 LINE SMOOTH",
"636 346 OFFCURVE",
"646 456 OFFCURVE",
"646 460 CURVE",
"130 460 LINE SMOOTH",
"57 460 OFFCURVE",
"57 433 OFFCURVE",
"44 342 CURVE",
"310 342 LINE",
"306 341 OFFCURVE",
"293 339 OFFCURVE",
"290 338 CURVE",
"213 286 OFFCURVE",
"6 125 OFFCURVE",
"-1 118 CURVE",
"-17 0 LINE",
"501 0 LINE SMOOTH",
"593 0 OFFCURVE",
"593 5 OFFCURVE",
"609 118 CURVE",
"315 118 LINE"
);
}
);
width = 630;
},
{
anchors = (
{
name = bottom;
position = "{186, 0}";
},
{
name = center;
position = "{218, 230}";
},
{
name = top;
position = "{251, 460}";
}
);
background = {
anchors = (
{
name = bottom;
position = "{186, 0}";
},
{
name = center;
position = "{218, 230}";
},
{
name = top;
position = "{251, 460}";
}
);
paths = (
{
closed = 1;
nodes = (
"28 25 LINE",
"408 418 LINE SMOOTH",
"426 436 OFFCURVE",
"429 456 OFFCURVE",
"429 460 CURVE",
"94 460 LINE SMOOTH",
"79 460 OFFCURVE",
"78 452 OFFCURVE",
"77 443 CURVE",
"407 443 LINE",
"402 438 OFFCURVE",
"388 422 OFFCURVE",
"367 401 CURVE SMOOTH",
"263 292 OFFCURVE",
"-1 21 OFFCURVE",
"-1 21 CURVE",
"-4 0 LINE",
"345 0 LINE SMOOTH",
"366 0 OFFCURVE",
"369 2 OFFCURVE",
"371 17 CURVE",
"20 17 LINE"
);
}
);
};
layerId = "B4E8C596-9C01-4F8A-BDA4-90320E25C0E6";
paths = (
{
closed = 1;
nodes = (
"28 25 LINE",
"408 418 LINE SMOOTH",
"426 436 OFFCURVE",
"429 456 OFFCURVE",
"429 460 CURVE",
"94 460 LINE SMOOTH",
"79 460 OFFCURVE",
"78 452 OFFCURVE",
"77 443 CURVE",
"407 443 LINE",
"402 438 OFFCURVE",
"388 422 OFFCURVE",
"367 401 CURVE SMOOTH",
"263 292 OFFCURVE",
"-1 21 OFFCURVE",
"-1 21 CURVE",
"-4 0 LINE",
"345 0 LINE SMOOTH",
"366 0 OFFCURVE",
"369 2 OFFCURVE",
"371 17 CURVE",
"20 17 LINE"
);
}
);
width = 422;
}
);
leftKerningGroup = Z;
note = Z;
rightKerningGroup = Z;
unicode = 005A;
},
{
color = 7;
glyphname = A.2;
lastChange = "2021-09-08 23:18:03 +0000";
layers = (
{
background = {
hints = (
{
horizontal = 1;
place = "{64, 151}";
type = Stem;
},
{
horizontal = 1;
place = "{460, -20}";
target = down;
type = TopGhost;
},
{
place = "{26, 685}";
type = Stem;
},
{
horizontal = 1;
place = "{0, 215}";
type = Stem;
}
);
paths = (
{
closed = 1;
nodes = (
"268 169 OFFCURVE",
"246 136 OFFCURVE",
"239 87 CURVE",
"376 86 LINE",
"407 0 LINE",
"654 0 LINE",
"530 374 LINE SMOOTH",
"510 434 OFFCURVE",
"460 464 OFFCURVE",
"378 464 CURVE SMOOTH",
"283 464 OFFCURVE",
"238 430 OFFCURVE",
"203 374 CURVE SMOOTH",
"-29 0 LINE",
"146 0 LINE",
"307 265 LINE SMOOTH",
"307 265 OFFCURVE",
"311 268 OFFCURVE",
"312 274 CURVE",
"311 268 OFFCURVE",
"326 228 OFFCURVE",
"336 201 CURVE SMOOTH",
"346 169 LINE",
"346 169 OFFCURVE",
"315 169 OFFCURVE",
"306 169 CURVE SMOOTH"
);
}
);
};
layerId = "C7668D88-AC50-4107-9C4B-DB5D26A8FA6C";
paths = (
{
closed = 1;
nodes = (
"268 169 OFFCURVE",
"246 136 OFFCURVE",
"239 87 CURVE",
"376 86 LINE",
"407 0 LINE",
"654 0 LINE",
"530 374 LINE SMOOTH",
"510 434 OFFCURVE",
"460 464 OFFCURVE",
"378 464 CURVE SMOOTH",
"283 464 OFFCURVE",
"238 430 OFFCURVE",
"203 374 CURVE SMOOTH",
"-29 0 LINE",
"146 0 LINE",
"307 265 LINE SMOOTH",
"307 265 OFFCURVE",
"311 268 OFFCURVE",
"312 274 CURVE",
"311 268 OFFCURVE",
"326 228 OFFCURVE",
"336 201 CURVE SMOOTH",
"346 169 LINE",
"346 169 OFFCURVE",
"315 169 OFFCURVE",
"306 169 CURVE SMOOTH"
);
}
);
width = 692;
},
{
background = {
paths = (
{
closed = 1;
nodes = (
"110 159 OFFCURVE",
"106 155 OFFCURVE",
"104 142 CURVE",
"328 142 LINE",
"351 0 LINE",
"371 0 LINE",
"307 401 LINE SMOOTH",
"299 446 OFFCURVE",
"290 465 OFFCURVE",
"235 465 CURVE SMOOTH",
"180 465 OFFCURVE",
"161 442 OFFCURVE",
"144 401 CURVE SMOOTH",
"-29 0 LINE",
"-12 0 LINE",
"161 401 LINE SMOOTH",
"171 425 OFFCURVE",
"183 450 OFFCURVE",
"233 450 CURVE SMOOTH",
"277 450 OFFCURVE",
"282 426 OFFCURVE",
"287 401 CURVE SMOOTH",
"326 159 LINE",
"326 159 OFFCURVE",
"132 159 OFFCURVE",
"127 159 CURVE SMOOTH"
);
}
);
};
layerId = "B4E8C596-9C01-4F8A-BDA4-90320E25C0E6";
paths = (
{
closed = 1;
nodes = (
"110 159 OFFCURVE",
"106 155 OFFCURVE",
"104 142 CURVE",
"328 142 LINE",
"351 0 LINE",
"371 0 LINE",
"307 401 LINE SMOOTH",
"299 446 OFFCURVE",
"290 465 OFFCURVE",
"235 465 CURVE SMOOTH",
"180 465 OFFCURVE",
"161 442 OFFCURVE",
"144 401 CURVE SMOOTH",
"-29 0 LINE",
"-12 0 LINE",
"161 401 LINE SMOOTH",
"171 425 OFFCURVE",
"183 450 OFFCURVE",
"233 450 CURVE SMOOTH",
"277 450 OFFCURVE",
"282 426 OFFCURVE",
"287 401 CURVE SMOOTH",
"326 159 LINE",
"326 159 OFFCURVE",
"132 159 OFFCURVE",
"127 159 CURVE SMOOTH"
);
}
);
width = 417;
}
);
leftKerningGroup = A;
note = A.2;
rightKerningGroup = A;
},
{
color = 7;
glyphname = C.1;
lastChange = "2021-09-08 23:18:03 +0000";
layers = (
{
background = {
paths = (
{
closed = 1;
nodes = (
"172 465 OFFCURVE",
"49 429 OFFCURVE",
"20 224 CURVE SMOOTH",
"-9 12 OFFCURVE",
"80 -9 OFFCURVE",
"318 -9 CURVE SMOOTH",
"463 -9 OFFCURVE",
"617 -6 OFFCURVE",
"634 114 CURVE SMOOTH",
"637 137 OFFCURVE",
"640 159 OFFCURVE",
"644 182 CURVE",
"446 182 LINE",
"445 177 OFFCURVE",
"444 173 OFFCURVE",
"444 168 CURVE SMOOTH",
"441 154 OFFCURVE",
"438 143 OFFCURVE",
"433 133 CURVE SMOOTH",
"416 97 OFFCURVE",
"372 88 OFFCURVE",
"334 88 CURVE SMOOTH",
"278 88 OFFCURVE",
"250 109 OFFCURVE",
"249 162 CURVE SMOOTH",
"248 185 OFFCURVE",
"249 208 OFFCURVE",
"253 232 CURVE SMOOTH",
"257 264 OFFCURVE",
"265 295 OFFCURVE",
"277 322 CURVE SMOOTH",
"293 360 OFFCURVE",
"338 372 OFFCURVE",
"375 372 CURVE SMOOTH",
"426 372 OFFCURVE",
"457 358 OFFCURVE",
"461 325 CURVE SMOOTH",
"462 313 OFFCURVE",
"462 298 OFFCURVE",
"459 280 CURVE",
"652 281 LINE",
"655 296 OFFCURVE",
"657 311 OFFCURVE",
"659 326 CURVE SMOOTH",
"676 449 OFFCURVE",
"569 465 OFFCURVE",
"397 465 CURVE SMOOTH"
);
}
);
};
layerId = "C7668D88-AC50-4107-9C4B-DB5D26A8FA6C";
paths = (
{
closed = 1;
nodes = (
"172 465 OFFCURVE",
"49 429 OFFCURVE",
"20 224 CURVE SMOOTH",
"-9 12 OFFCURVE",
"80 -9 OFFCURVE",
"318 -9 CURVE SMOOTH",
"463 -9 OFFCURVE",
"617 -6 OFFCURVE",
"634 114 CURVE SMOOTH",
"637 137 OFFCURVE",
"640 159 OFFCURVE",
"644 182 CURVE",
"446 182 LINE",
"445 177 OFFCURVE",
"444 173 OFFCURVE",
"444 168 CURVE SMOOTH",
"441 154 OFFCURVE",
"438 143 OFFCURVE",
"433 133 CURVE SMOOTH",
"416 97 OFFCURVE",
"372 88 OFFCURVE",
"334 88 CURVE SMOOTH",
"278 88 OFFCURVE",
"250 109 OFFCURVE",
"249 162 CURVE SMOOTH",
"248 185 OFFCURVE",
"249 208 OFFCURVE",
"253 232 CURVE SMOOTH",
"257 264 OFFCURVE",
"265 295 OFFCURVE",
"277 322 CURVE SMOOTH",
"293 360 OFFCURVE",
"338 372 OFFCURVE",
"375 372 CURVE SMOOTH",
"426 372 OFFCURVE",
"457 358 OFFCURVE",
"461 325 CURVE SMOOTH",
"462 313 OFFCURVE",
"462 298 OFFCURVE",
"459 280 CURVE",
"652 281 LINE",
"655 296 OFFCURVE",
"657 311 OFFCURVE",
"659 326 CURVE SMOOTH",
"676 449 OFFCURVE",
"569 465 OFFCURVE",
"397 465 CURVE SMOOTH"
);
}
);
width = 674;
},
{
background = {
paths = (
{
closed = 1;
nodes = (
"123 464 OFFCURVE",
"70 361 OFFCURVE",
"50 223 CURVE SMOOTH",
"28 68 OFFCURVE",
"75 -7 OFFCURVE",
"232 -7 CURVE SMOOTH",
"342 -7 OFFCURVE",
"425 12 OFFCURVE",
"447 139 CURVE SMOOTH",
"448 143 OFFCURVE",
"449 147 OFFCURVE",
"449 151 CURVE",
"429 151 LINE",
"428 145 OFFCURVE",
"427 139 OFFCURVE",
"427 133 CURVE SMOOTH",
"417 83 OFFCURVE",
"397 52 OFFCURVE",
"369 34 CURVE SMOOTH",
"336 12 OFFCURVE",
"290 7 OFFCURVE",
"233 7 CURVE SMOOTH",
"170 7 OFFCURVE",
"128 24 OFFCURVE",
"103 53 CURVE SMOOTH",
"68 92 OFFCURVE",
"64 154 OFFCURVE",
"73 224 CURVE SMOOTH",
"83 293 OFFCURVE",
"102 351 OFFCURVE",
"137 390 CURVE SMOOTH",
"171 428 OFFCURVE",
"222 450 OFFCURVE",
"295 450 CURVE SMOOTH",
"349 450 OFFCURVE",
"392 446 OFFCURVE",
"419 427 CURVE SMOOTH",
"448 407 OFFCURVE",
"460 369 OFFCURVE",
"450 302 CURVE",
"470 302 LINE",
"471 308 OFFCURVE",
"472 314 OFFCURVE",
"473 320 CURVE SMOOTH",
"484 449 OFFCURVE",
"406 464 OFFCURVE",
"298 464 CURVE SMOOTH"
);
}
);
};
layerId = "B4E8C596-9C01-4F8A-BDA4-90320E25C0E6";
paths = (
{
closed = 1;
nodes = (
"123 464 OFFCURVE",
"70 361 OFFCURVE",
"50 223 CURVE SMOOTH",
"28 68 OFFCURVE",
"75 -7 OFFCURVE",
"232 -7 CURVE SMOOTH",
"342 -7 OFFCURVE",
"425 12 OFFCURVE",
"447 139 CURVE SMOOTH",
"448 143 OFFCURVE",
"449 147 OFFCURVE",
"449 151 CURVE",
"429 151 LINE",
"428 145 OFFCURVE",
"427 139 OFFCURVE",
"427 133 CURVE SMOOTH",
"417 83 OFFCURVE",
"397 52 OFFCURVE",
"369 34 CURVE SMOOTH",
"336 12 OFFCURVE",
"290 7 OFFCURVE",
"233 7 CURVE SMOOTH",
"170 7 OFFCURVE",
"128 24 OFFCURVE",
"103 53 CURVE SMOOTH",
"68 92 OFFCURVE",
"64 154 OFFCURVE",
"73 224 CURVE SMOOTH",
"83 293 OFFCURVE",
"102 351 OFFCURVE",
"137 390 CURVE SMOOTH",
"171 428 OFFCURVE",
"222 450 OFFCURVE",
"295 450 CURVE SMOOTH",
"349 450 OFFCURVE",
"392 446 OFFCURVE",
"419 427 CURVE SMOOTH",
"448 407 OFFCURVE",
"460 369 OFFCURVE",
"450 302 CURVE",
"470 302 LINE",
"471 308 OFFCURVE",
"472 314 OFFCURVE",
"473 320 CURVE SMOOTH",
"484 449 OFFCURVE",
"406 464 OFFCURVE",
"298 464 CURVE SMOOTH"
);
}
);
width = 491;
}
);
leftKerningGroup = G;
note = C.1;
},
{
color = 7;
glyphname = M.1;
lastChange = "2021-09-08 23:18:03 +0000";
layers = (
{
background = {
paths = (
{
closed = 1;
nodes = (
"37 317 OFFCURVE",
"21 200 OFFCURVE",
"4 84 CURVE SMOOTH",
"-4 25 OFFCURVE",
"-7 0 OFFCURVE",
"77 0 CURVE",
"231 0 LINE",
"246 111 OFFCURVE",
"262 221 OFFCURVE",
"277 332 CURVE SMOOTH",
"279 346 OFFCURVE",
"293 348 OFFCURVE",
"309 348 CURVE SMOOTH",
"339 348 OFFCURVE",
"353 345 OFFCURVE",
"345 289 CURVE SMOOTH",
"332 193 OFFCURVE",
"318 96 OFFCURVE",
"305 0 CURVE",
"384 0 OFFCURVE",
"464 0 OFFCURVE",
"543 0 CURVE",
"558 111 OFFCURVE",
"574 223 OFFCURVE",
"590 334 CURVE SMOOTH",
"592 348 OFFCURVE",
"606 350 OFFCURVE",
"621 350 CURVE SMOOTH",
"651 350 OFFCURVE",
"665 345 OFFCURVE",
"657 284 CURVE SMOOTH",
"643 189 OFFCURVE",
"630 95 OFFCURVE",
"617 0 CURVE",
"668 0 OFFCURVE",
"720 0 OFFCURVE",
"771 0 CURVE SMOOTH",
"836 0 OFFCURVE",
"855 8 OFFCURVE",
"864 76 CURVE SMOOTH",
"874 144 OFFCURVE",
"884 213 OFFCURVE",
"893 281 CURVE SMOOTH",
"914 428 OFFCURVE",
"858 460 OFFCURVE",
"676 460 CURVE SMOOTH",
"635 460 OFFCURVE",
"550 455 OFFCURVE",
"500 394 CURVE",
"470 471 OFFCURVE",
"361 460 OFFCURVE",
"302 460 CURVE SMOOTH",
"263 460 OFFCURVE",
"117 450 OFFCURVE",
"53 433 CURVE"
);
}
);
};
layerId = "C7668D88-AC50-4107-9C4B-DB5D26A8FA6C";
paths = (
{
closed = 1;
nodes = (
"37 317 OFFCURVE",
"21 200 OFFCURVE",
"4 84 CURVE SMOOTH",
"-4 25 OFFCURVE",
"-7 0 OFFCURVE",
"77 0 CURVE",
"231 0 LINE",
"246 111 OFFCURVE",
"262 221 OFFCURVE",
"277 332 CURVE SMOOTH",
"279 346 OFFCURVE",
"293 348 OFFCURVE",
"309 348 CURVE SMOOTH",
"339 348 OFFCURVE",
"353 345 OFFCURVE",
"345 289 CURVE SMOOTH",
"332 193 OFFCURVE",
"318 96 OFFCURVE",
"305 0 CURVE",
"384 0 OFFCURVE",
"464 0 OFFCURVE",
"543 0 CURVE",
"558 111 OFFCURVE",
"574 223 OFFCURVE",
"590 334 CURVE SMOOTH",
"592 348 OFFCURVE",
"606 350 OFFCURVE",
"621 350 CURVE SMOOTH",
"651 350 OFFCURVE",
"665 345 OFFCURVE",
"657 284 CURVE SMOOTH",
"643 189 OFFCURVE",
"630 95 OFFCURVE",
"617 0 CURVE",
"668 0 OFFCURVE",
"720 0 OFFCURVE",
"771 0 CURVE SMOOTH",
"836 0 OFFCURVE",
"855 8 OFFCURVE",
"864 76 CURVE SMOOTH",
"874 144 OFFCURVE",
"884 213 OFFCURVE",
"893 281 CURVE SMOOTH",
"914 428 OFFCURVE",
"858 460 OFFCURVE",
"676 460 CURVE SMOOTH",
"635 460 OFFCURVE",
"550 455 OFFCURVE",
"500 394 CURVE",
"470 471 OFFCURVE",
"361 460 OFFCURVE",
"302 460 CURVE SMOOTH",
"263 460 OFFCURVE",
"117 450 OFFCURVE",
"53 433 CURVE"
);
}
);
width = 911;
},
{
background = {
paths = (
{
closed = 1;
nodes = (
"48 289 OFFCURVE",
"29 152 OFFCURVE",
"9 15 CURVE SMOOTH",
"7 1 OFFCURVE",
"12 0 OFFCURVE",
"22 0 CURVE SMOOTH",
"28 0 LINE",
"47 135 OFFCURVE",
"66 270 OFFCURVE",
"85 405 CURVE",
"94 435 OFFCURVE",
"166 450 OFFCURVE",
"232 450 CURVE SMOOTH",
"298 450 OFFCURVE",
"350 417 OFFCURVE",
"346 390 CURVE",
"328 260 OFFCURVE",
"308 130 OFFCURVE",
"290 0 CURVE",
"298 0 OFFCURVE",
"305 0 OFFCURVE",
"313 0 CURVE",
"331 129 OFFCURVE",
"349 259 OFFCURVE",
"367 388 CURVE",
"372 427 OFFCURVE",
"462 450 OFFCURVE",
"517 450 CURVE SMOOTH",
"597 450 OFFCURVE",
"634 422 OFFCURVE",
"624 348 CURVE SMOOTH",
"608 232 OFFCURVE",
"591 116 OFFCURVE",
"575 0 CURVE",
"576 0 OFFCURVE",
"577 0 OFFCURVE",
"579 0 CURVE SMOOTH",
"586 0 OFFCURVE",
"596 2 OFFCURVE",
"598 15 CURVE SMOOTH",
"614 126 OFFCURVE",
"629 237 OFFCURVE",
"645 348 CURVE SMOOTH",
"656 429 OFFCURVE",
"628 467 OFFCURVE",
"519 467 CURVE SMOOTH",
"463 467 OFFCURVE",
"395 446 OFFCURVE",
"363 422 CURVE",
"342 446 OFFCURVE",
"295 466 OFFCURVE",
"237 466 CURVE SMOOTH",
"121 466 OFFCURVE",
"79 433 OFFCURVE",
"67 426 CURVE"
);
}
);
};
layerId = "B4E8C596-9C01-4F8A-BDA4-90320E25C0E6";
paths = (
{
closed = 1;
nodes = (
"48 289 OFFCURVE",
"29 152 OFFCURVE",
"9 15 CURVE SMOOTH",
"7 1 OFFCURVE",
"12 0 OFFCURVE",
"22 0 CURVE SMOOTH",
"28 0 LINE",
"47 135 OFFCURVE",
"66 270 OFFCURVE",
"85 405 CURVE",
"94 435 OFFCURVE",
"166 450 OFFCURVE",
"232 450 CURVE SMOOTH",
"298 450 OFFCURVE",
"350 417 OFFCURVE",
"346 390 CURVE",
"328 260 OFFCURVE",
"308 130 OFFCURVE",
"290 0 CURVE",
"298 0 OFFCURVE",
"305 0 OFFCURVE",
"313 0 CURVE",
"331 129 OFFCURVE",
"349 259 OFFCURVE",
"367 388 CURVE",
"372 427 OFFCURVE",
"462 450 OFFCURVE",
"517 450 CURVE SMOOTH",
"597 450 OFFCURVE",
"634 422 OFFCURVE",
"624 348 CURVE SMOOTH",
"608 232 OFFCURVE",
"591 116 OFFCURVE",
"575 0 CURVE",
"576 0 OFFCURVE",
"577 0 OFFCURVE",
"579 0 CURVE SMOOTH",
"586 0 OFFCURVE",
"596 2 OFFCURVE",
"598 15 CURVE SMOOTH",
"614 126 OFFCURVE",
"629 237 OFFCURVE",
"645 348 CURVE SMOOTH",
"656 429 OFFCURVE",
"628 467 OFFCURVE",
"519 467 CURVE SMOOTH",
"463 467 OFFCURVE",
"395 446 OFFCURVE",
"363 422 CURVE",
"342 446 OFFCURVE",
"295 466 OFFCURVE",
"237 466 CURVE SMOOTH",
"121 466 OFFCURVE",
"79 433 OFFCURVE",
"67 426 CURVE"
);
}
);
width = 669;
}
);
leftKerningGroup = E;
note = M.1;
},
{
color = 7;
glyphname = N.1;
lastChange = "2021-09-08 23:18:03 +0000";
layers = (
{
background = {
paths = (
{
closed = 1;
nodes = (
"285 108 OFFCURVE",
"300 215 OFFCURVE",
"315 323 CURVE",
"332 331 OFFCURVE",
"351 337 OFFCURVE",
"368 337 CURVE SMOOTH",
"395 337 OFFCURVE",
"416 323 OFFCURVE",
"410 281 CURVE SMOOTH",
"398 194 OFFCURVE",
"386 108 OFFCURVE",
"374 21 CURVE",
"373 14 OFFCURVE",
"372 7 OFFCURVE",
"371 0 CURVE",
"373 0 OFFCURVE",
"511 -1 OFFCURVE",
"519 -1 CURVE SMOOTH",
"602 -1 OFFCURVE",
"610 17 OFFCURVE",
"620 86 CURVE SMOOTH",
"626 132 OFFCURVE",
"632 177 OFFCURVE",
"639 223 CURVE SMOOTH",
"665 411 OFFCURVE",
"657 462 OFFCURVE",
"383 462 CURVE SMOOTH",
"260 462 OFFCURVE",
"143 448 OFFCURVE",
"93 435 CURVE",
"76 318 OFFCURVE",
"60 201 OFFCURVE",
"43 84 CURVE SMOOTH",
"36 29 OFFCURVE",
"36 -1 OFFCURVE",
"88 -1 CURVE SMOOTH",
"100 -1 OFFCURVE",
"265 0 OFFCURVE",
"270 0 CURVE"
);
}
);
};
layerId = "C7668D88-AC50-4107-9C4B-DB5D26A8FA6C";
paths = (
{
closed = 1;
nodes = (
"285 108 OFFCURVE",
"300 215 OFFCURVE",
"315 323 CURVE",
"332 331 OFFCURVE",
"351 337 OFFCURVE",
"368 337 CURVE SMOOTH",
"395 337 OFFCURVE",
"416 323 OFFCURVE",
"410 281 CURVE SMOOTH",
"398 194 OFFCURVE",
"386 108 OFFCURVE",
"374 21 CURVE",
"373 14 OFFCURVE",
"372 7 OFFCURVE",
"371 0 CURVE",
"373 0 OFFCURVE",
"511 -1 OFFCURVE",
"519 -1 CURVE SMOOTH",
"602 -1 OFFCURVE",
"610 17 OFFCURVE",
"620 86 CURVE SMOOTH",
"626 132 OFFCURVE",
"632 177 OFFCURVE",
"639 223 CURVE SMOOTH",
"665 411 OFFCURVE",
"657 462 OFFCURVE",
"383 462 CURVE SMOOTH",
"260 462 OFFCURVE",
"143 448 OFFCURVE",
"93 435 CURVE",
"76 318 OFFCURVE",
"60 201 OFFCURVE",
"43 84 CURVE SMOOTH",
"36 29 OFFCURVE",
"36 -1 OFFCURVE",
"88 -1 CURVE SMOOTH",
"100 -1 OFFCURVE",
"265 0 OFFCURVE",
"270 0 CURVE"
);
}
);
width = 698;
},
{
background = {
paths = (
{
closed = 1;
nodes = (
"50 131 OFFCURVE",
"68 263 OFFCURVE",
"86 394 CURVE",
"96 424 OFFCURVE",
"176 438 OFFCURVE",
"260 438 CURVE SMOOTH",
"358 438 OFFCURVE",
"404 407 OFFCURVE",
"394 334 CURVE SMOOTH",
"380 235 OFFCURVE",
"366 137 OFFCURVE",
"352 38 CURVE SMOOTH",
"352 34 OFFCURVE",
"349 11 OFFCURVE",
"346 0 CURVE",
"347 0 OFFCURVE",
"349 0 OFFCURVE",
"351 0 CURVE SMOOTH",
"358 0 OFFCURVE",
"368 4 OFFCURVE",
"369 15 CURVE SMOOTH",
"384 121 OFFCURVE",
"399 228 OFFCURVE",
"414 334 CURVE SMOOTH",
"425 413 OFFCURVE",
"400 454 OFFCURVE",
"265 454 CURVE SMOOTH",
"118 454 OFFCURVE",
"81 421 OFFCURVE",
"68 414 CURVE",
"50 281 OFFCURVE",
"31 148 OFFCURVE",
"12 15 CURVE SMOOTH",
"10 1 OFFCURVE",
"16 0 OFFCURVE",
"25 0 CURVE SMOOTH",
"27 0 OFFCURVE",
"29 0 OFFCURVE",
"31 0 CURVE"
);
}
);
};
layerId = "B4E8C596-9C01-4F8A-BDA4-90320E25C0E6";
paths = (
{
closed = 1;
nodes = (
"50 131 OFFCURVE",
"68 263 OFFCURVE",
"86 394 CURVE",
"96 424 OFFCURVE",
"176 438 OFFCURVE",
"260 438 CURVE SMOOTH",
"358 438 OFFCURVE",
"404 407 OFFCURVE",
"394 334 CURVE SMOOTH",
"380 235 OFFCURVE",
"366 137 OFFCURVE",
"352 38 CURVE SMOOTH",
"352 34 OFFCURVE",
"349 11 OFFCURVE",
"346 0 CURVE",
"347 0 OFFCURVE",
"349 0 OFFCURVE",
"351 0 CURVE SMOOTH",
"358 0 OFFCURVE",
"368 4 OFFCURVE",
"369 15 CURVE SMOOTH",
"384 121 OFFCURVE",
"399 228 OFFCURVE",
"414 334 CURVE SMOOTH",
"425 413 OFFCURVE",
"400 454 OFFCURVE",
"265 454 CURVE SMOOTH",
"118 454 OFFCURVE",
"81 421 OFFCURVE",
"68 414 CURVE",
"50 281 OFFCURVE",
"31 148 OFFCURVE",
"12 15 CURVE SMOOTH",
"10 1 OFFCURVE",
"16 0 OFFCURVE",
"25 0 CURVE SMOOTH",
"27 0 OFFCURVE",
"29 0 OFFCURVE",
"31 0 CURVE"
);
}
);
width = 460;
}
);
leftKerningGroup = E;
note = N.1;
},
{
color = 7;
glyphname = S.1;
lastChange = "2021-09-08 23:18:03 +0000";
layers = (
{
background = {
hints = (
{
horizontal = 1;
place = "{-1, 150}";
type = Stem;
},
{
horizontal = 1;
place = "{150, 152}";
type = Stem;
},
{
horizontal = 1;
place = "{308, 152}";
type = Stem;
},
{
place = "{23, 226}";
type = Stem;
},
{
place = "{420, 229}";
type = Stem;
}
);
paths = (
{
closed = 1;
nodes = (
"11 -26 OFFCURVE",
"104 -5 OFFCURVE",
"309 -5 CURVE SMOOTH",
"506 -5 OFFCURVE",
"619 2 OFFCURVE",
"641 159 CURVE SMOOTH",
"658 278 OFFCURVE",
"590 294 OFFCURVE",
"487 294 CURVE SMOOTH",
"482 294 OFFCURVE",
"402 294 OFFCURVE",
"299 294 CURVE SMOOTH",
"272 294 OFFCURVE",
"274 309 OFFCURVE",
"276 319 CURVE SMOOTH",
"277 330 OFFCURVE",
"277 343 OFFCURVE",
"347 343 CURVE SMOOTH",
"364 343 OFFCURVE",
"378 343 OFFCURVE",
"403 343 CURVE SMOOTH",
"436 343 OFFCURVE",
"444 333 OFFCURVE",
"442 322 CURVE SMOOTH",
"442 322 OFFCURVE",
"441 316 OFFCURVE",
"441 316 CURVE",
"480 316 OFFCURVE",
"632 316 OFFCURVE",
"652 316 CURVE",
"653 325 OFFCURVE",
"658 356 OFFCURVE",
"660 374 CURVE",
"663 395 OFFCURVE",
"642 426 OFFCURVE",
"634 431 CURVE SMOOTH",
"582 464 OFFCURVE",
"518 464 OFFCURVE",
"390 464 CURVE SMOOTH",
"186 464 OFFCURVE",
"88 452 OFFCURVE",
"67 301 CURVE SMOOTH",
"49 173 OFFCURVE",
"116 170 OFFCURVE",
"236 170 CURVE SMOOTH",
"338 170 OFFCURVE",
"360 170 OFFCURVE",
"379 170 CURVE SMOOTH",
"405 170 OFFCURVE",
"415 162 OFFCURVE",
"413 148 CURVE SMOOTH",
"410 130 OFFCURVE",
"396 119 OFFCURVE",
"324 119 CURVE SMOOTH",
"250 119 OFFCURVE",
"238 128 OFFCURVE",
"240 147 CURVE",
"172 147 OFFCURVE",
"103 145 OFFCURVE",
"35 145 CURVE"
);
}
);
};
layerId = "C7668D88-AC50-4107-9C4B-DB5D26A8FA6C";
paths = (
{
closed = 1;
nodes = (
"11 -26 OFFCURVE",
"104 -5 OFFCURVE",
"309 -5 CURVE SMOOTH",
"506 -5 OFFCURVE",
"619 2 OFFCURVE",
"641 159 CURVE SMOOTH",
"658 278 OFFCURVE",
"590 294 OFFCURVE",
"487 294 CURVE SMOOTH",
"482 294 OFFCURVE",
"402 294 OFFCURVE",
"299 294 CURVE SMOOTH",
"272 294 OFFCURVE",
"274 309 OFFCURVE",
"276 319 CURVE SMOOTH",
"277 330 OFFCURVE",
"277 343 OFFCURVE",
"347 343 CURVE SMOOTH",
"364 343 OFFCURVE",
"378 343 OFFCURVE",
"403 343 CURVE SMOOTH",
"436 343 OFFCURVE",
"444 333 OFFCURVE",
"442 322 CURVE SMOOTH",
"442 322 OFFCURVE",
"441 316 OFFCURVE",
"441 316 CURVE",
"480 316 OFFCURVE",
"632 316 OFFCURVE",
"652 316 CURVE",
"653 325 OFFCURVE",
"658 356 OFFCURVE",
"660 374 CURVE",
"663 395 OFFCURVE",
"642 426 OFFCURVE",
"634 431 CURVE SMOOTH",
"582 464 OFFCURVE",
"518 464 OFFCURVE",
"390 464 CURVE SMOOTH",
"186 464 OFFCURVE",
"88 452 OFFCURVE",
"67 301 CURVE SMOOTH",
"49 173 OFFCURVE",
"116 170 OFFCURVE",
"236 170 CURVE SMOOTH",
"338 170 OFFCURVE",
"360 170 OFFCURVE",
"379 170 CURVE SMOOTH",
"405 170 OFFCURVE",
"415 162 OFFCURVE",
"413 148 CURVE SMOOTH",
"410 130 OFFCURVE",
"396 119 OFFCURVE",
"324 119 CURVE SMOOTH",
"250 119 OFFCURVE",
"238 128 OFFCURVE",
"240 147 CURVE",
"172 147 OFFCURVE",
"103 145 OFFCURVE",
"35 145 CURVE"
);
}
);
width = 688;
},
{
background = {
hints = (
{
horizontal = 1;
place = "{-1, 94}";
type = Stem;
},
{
horizontal = 1;
place = "{177, 97}";
type = Stem;
},
{
horizontal = 1;
place = "{363, 97}";
type = Stem;
},
{
place = "{35, 99}";
type = Stem;
},
{
place = "{330, 100}";
type = Stem;
}
);
paths = (
{
closed = 1;
nodes = (
"26 13 OFFCURVE",
"77 -4 OFFCURVE",
"209 -5 CURVE SMOOTH",
"359 -6 OFFCURVE",
"421 28 OFFCURVE",
"435 132 CURVE SMOOTH",
"450 236 OFFCURVE",
"390 246 OFFCURVE",
"309 246 CURVE SMOOTH",
"275 246 OFFCURVE",
"245 246 OFFCURVE",
"211 246 CURVE SMOOTH",
"134 246 OFFCURVE",
"80 253 OFFCURVE",
"92 334 CURVE SMOOTH",
"106 437 OFFCURVE",
"213 449 OFFCURVE",
"286 449 CURVE SMOOTH",
"342 449 OFFCURVE",
"378 443 OFFCURVE",
"400 432 CURVE SMOOTH",
"435 415 OFFCURVE",
"439 385 OFFCURVE",
"435 346 CURVE SMOOTH",
"435 340 OFFCURVE",
"434 333 OFFCURVE",
"433 326 CURVE",
"439 326 OFFCURVE",
"445 326 OFFCURVE",
"453 326 CURVE",
"454 333 OFFCURVE",
"455 341 OFFCURVE",
"455 345 CURVE SMOOTH",
"463 399 OFFCURVE",
"449 425 OFFCURVE",
"419 444 CURVE SMOOTH",
"404 453 OFFCURVE",
"365 464 OFFCURVE",
"292 464 CURVE SMOOTH",
"195 464 OFFCURVE",
"90 455 OFFCURVE",
"73 334 CURVE SMOOTH",
"58 231 OFFCURVE",
"140 228 OFFCURVE",
"210 228 CURVE SMOOTH",
"245 228 OFFCURVE",
"278 228 OFFCURVE",
"313 228 CURVE SMOOTH",
"387 228 OFFCURVE",
"427 215 OFFCURVE",
"416 135 CURVE SMOOTH",
"402 37 OFFCURVE",
"328 12 OFFCURVE",
"221 12 CURVE SMOOTH",
"121 12 OFFCURVE",
"47 20 OFFCURVE",
"62 133 CURVE",
"55 133 OFFCURVE",
"49 133 OFFCURVE",
"42 133 CURVE"
);
}
);
};
layerId = "B4E8C596-9C01-4F8A-BDA4-90320E25C0E6";
paths = (
{
closed = 1;
nodes = (
"26 13 OFFCURVE",
"77 -4 OFFCURVE",
"209 -5 CURVE SMOOTH",
"359 -6 OFFCURVE",
"421 28 OFFCURVE",
"435 132 CURVE SMOOTH",
"450 236 OFFCURVE",
"390 246 OFFCURVE",
"309 246 CURVE SMOOTH",
"275 246 OFFCURVE",
"245 246 OFFCURVE",
"211 246 CURVE SMOOTH",
"134 246 OFFCURVE",
"80 253 OFFCURVE",
"92 334 CURVE SMOOTH",
"106 437 OFFCURVE",
"213 449 OFFCURVE",
"286 449 CURVE SMOOTH",
"342 449 OFFCURVE",
"378 443 OFFCURVE",
"400 432 CURVE SMOOTH",
"435 415 OFFCURVE",
"439 385 OFFCURVE",
"435 346 CURVE SMOOTH",
"435 340 OFFCURVE",
"434 333 OFFCURVE",
"433 326 CURVE",
"439 326 OFFCURVE",
"445 326 OFFCURVE",
"453 326 CURVE",
"454 333 OFFCURVE",
"455 341 OFFCURVE",
"455 345 CURVE SMOOTH",
"463 399 OFFCURVE",
"449 425 OFFCURVE",
"419 444 CURVE SMOOTH",
"404 453 OFFCURVE",
"365 464 OFFCURVE",
"292 464 CURVE SMOOTH",
"195 464 OFFCURVE",
"90 455 OFFCURVE",
"73 334 CURVE SMOOTH",
"58 231 OFFCURVE",
"140 228 OFFCURVE",
"210 228 CURVE SMOOTH",
"245 228 OFFCURVE",
"278 228 OFFCURVE",
"313 228 CURVE SMOOTH",
"387 228 OFFCURVE",
"427 215 OFFCURVE",
"416 135 CURVE SMOOTH",
"402 37 OFFCURVE",
"328 12 OFFCURVE",
"221 12 CURVE SMOOTH",
"121 12 OFFCURVE",
"47 20 OFFCURVE",
"62 133 CURVE",
"55 133 OFFCURVE",
"49 133 OFFCURVE",
"42 133 CURVE"
);
}
);
width = 493;
}
);
note = S.1;
},
{
color = 7;
export = 0;
glyphname = A.1;
lastChange = "2021-09-08 23:18:03 +0000";
layers = (
{
background = {
hints = (
{
horizontal = 1;
place = "{1, 123}";
type = Stem;
},
{
horizontal = 1;
place = "{184, 94}";
type = Stem;
},
{
horizontal = 1;
place = "{332, 130}";
type = Stem;
},
{
place = "{64, 601}";
type = Stem;
},
{
place = "{64, 238}";
type = Stem;
},
{
place = "{428, 237}";
type = Stem;
}
);
paths = (
{
closed = 1;
nodes = (
"241 -9 OFFCURVE",
"565 -5 OFFCURVE",
"595 23 CURVE",
"595 23 OFFCURVE",
"602 66 OFFCURVE",
"627 248 CURVE SMOOTH",
"649 403 OFFCURVE",
"608 450 OFFCURVE",
"495 461 CURVE SMOOTH",
"416 469 OFFCURVE",
"212 471 OFFCURVE",
"143 458 CURVE SMOOTH",
"103 451 OFFCURVE",
"84 427 OFFCURVE",
"78 379 CURVE SMOOTH",
"72 335 LINE",
"153 335 OFFCURVE",
"234 335 OFFCURVE",
"315 335 CURVE SMOOTH",
"396 335 OFFCURVE",
"405 313 OFFCURVE",
"398 257 CURVE",
"395 237 OFFCURVE",
"387 192 OFFCURVE",
"378 127 CURVE",
"361 125 OFFCURVE",
"290 124 OFFCURVE",
"280 124 CURVE SMOOTH",
"263 124 OFFCURVE",
"255 137 OFFCURVE",
"257 154 CURVE SMOOTH",
"261 181 OFFCURVE",
"281 185 OFFCURVE",
"298 185 CURVE SMOOTH",
"306 185 OFFCURVE",
"327 185 OFFCURVE",
"348 185 CURVE",
"358 250 OFFCURVE",
"362 278 OFFCURVE",
"285 278 CURVE SMOOTH",
"257 278 OFFCURVE",
"184 278 OFFCURVE",
"158 278 CURVE SMOOTH",
"64 278 OFFCURVE",
"32 245 OFFCURVE",
"16 129 CURVE SMOOTH",
"2 32 OFFCURVE",
"40 6 OFFCURVE",
"108 1 CURVE SMOOTH"
);
}
);
};
layerId = "C7668D88-AC50-4107-9C4B-DB5D26A8FA6C";
paths = (
{
closed = 1;
nodes = (
"241 -9 OFFCURVE",
"565 -5 OFFCURVE",
"595 23 CURVE",
"595 23 OFFCURVE",
"602 66 OFFCURVE",
"627 248 CURVE SMOOTH",
"649 403 OFFCURVE",
"608 450 OFFCURVE",
"495 461 CURVE SMOOTH",
"416 469 OFFCURVE",
"212 471 OFFCURVE",
"143 458 CURVE SMOOTH",
"103 451 OFFCURVE",
"84 427 OFFCURVE",
"78 379 CURVE SMOOTH",
"72 335 LINE",
"153 335 OFFCURVE",
"234 335 OFFCURVE",
"315 335 CURVE SMOOTH",
"396 335 OFFCURVE",
"405 313 OFFCURVE",
"398 257 CURVE",
"395 237 OFFCURVE",
"387 192 OFFCURVE",
"378 127 CURVE",
"361 125 OFFCURVE",
"290 124 OFFCURVE",
"280 124 CURVE SMOOTH",
"263 124 OFFCURVE",
"255 137 OFFCURVE",
"257 154 CURVE SMOOTH",
"261 181 OFFCURVE",
"281 185 OFFCURVE",
"298 185 CURVE SMOOTH",
"306 185 OFFCURVE",
"327 185 OFFCURVE",
"348 185 CURVE",
"358 250 OFFCURVE",
"362 278 OFFCURVE",
"285 278 CURVE SMOOTH",
"257 278 OFFCURVE",
"184 278 OFFCURVE",
"158 278 CURVE SMOOTH",
"64 278 OFFCURVE",
"32 245 OFFCURVE",
"16 129 CURVE SMOOTH",
"2 32 OFFCURVE",
"40 6 OFFCURVE",
"108 1 CURVE SMOOTH"
);
}
);
width = 655;
},
{
background = {
hints = (
{
horizontal = 1;
place = "{-3, 25}";
type = Stem;
},
{
horizontal = 1;
place = "{0, 171}";
type = Stem;
},
{
horizontal = 1;
place = "{2, 196}";
type = Stem;
},
{
horizontal = 1;
place = "{-4, 21}";
target = up;
type = BottomGhost;
},
{
horizontal = 1;
place = "{75, 96}";
type = Stem;
},
{
horizontal = 1;
place = "{88, 110}";
type = Stem;
},
{
horizontal = 1;
place = "{368, 97}";
type = Stem;
},
{
horizontal = 1;
place = "{425, 111}";
type = Stem;
},
{
horizontal = 1;
place = "{460, -20}";
target = down;
type = TopGhost;
},
{
horizontal = 1;
place = "{508, 23}";
type = Stem;
},
{
place = "{48, 383}";
type = Stem;
},
{
place = "{49, 441}";
type = Stem;
},
{
place = "{55, 98}";
type = Stem;
},
{
place = "{57, 113}";
type = Stem;
},
{
place = "{372, 98}";
type = Stem;
},
{
place = "{422, 112}";
type = Stem;
}
);
paths = (
{
closed = 1;
nodes = (
"302 -9 OFFCURVE",
"391 -6 OFFCURVE",
"398 42 CURVE",
"404 80 OFFCURVE",
"410 133 OFFCURVE",
"432 287 CURVE SMOOTH",
"455 456 OFFCURVE",
"381 469 OFFCURVE",
"260 469 CURVE SMOOTH",
"214 469 OFFCURVE",
"161 464 OFFCURVE",
"134 457 CURVE SMOOTH",
"116 452 OFFCURVE",
"88 446 OFFCURVE",
"84 421 CURVE SMOOTH",
"83 413 LINE",
"107 442 OFFCURVE",
"211 452 OFFCURVE",
"262 452 CURVE SMOOTH",
"400 452 OFFCURVE",
"431 417 OFFCURVE",
"404 245 CURVE SMOOTH",
"403 235 OFFCURVE",
"382 83 OFFCURVE",
"377 48 CURVE",
"374 27 OFFCURVE",
"329 10 OFFCURVE",
"194 10 CURVE SMOOTH",
"46 10 OFFCURVE",
"33 50 OFFCURVE",
"45 138 CURVE SMOOTH",
"62 259 OFFCURVE",
"110 264 OFFCURVE",
"214 264 CURVE SMOOTH",
"275 264 OFFCURVE",
"346 260 OFFCURVE",
"373 252 CURVE",
"374 258 OFFCURVE",
"378 272 OFFCURVE",
"364 275 CURVE",
"325 281 OFFCURVE",
"261 284 OFFCURVE",
"206 284 CURVE SMOOTH",
"83 284 OFFCURVE",
"42 256 OFFCURVE",
"25 137 CURVE SMOOTH",
"10 32 OFFCURVE",
"35 -9 OFFCURVE",
"193 -9 CURVE SMOOTH"
);
}
);
};
layerId = "B4E8C596-9C01-4F8A-BDA4-90320E25C0E6";
paths = (
{
closed = 1;
nodes = (
"302 -9 OFFCURVE",
"391 -6 OFFCURVE",
"398 42 CURVE",
"404 80 OFFCURVE",
"410 133 OFFCURVE",
"432 287 CURVE SMOOTH",
"455 456 OFFCURVE",
"381 469 OFFCURVE",
"260 469 CURVE SMOOTH",
"214 469 OFFCURVE",
"161 464 OFFCURVE",
"134 457 CURVE SMOOTH",
"116 452 OFFCURVE",
"88 446 OFFCURVE",
"84 421 CURVE SMOOTH",
"83 413 LINE",
"107 442 OFFCURVE",
"211 452 OFFCURVE",
"262 452 CURVE SMOOTH",
"400 452 OFFCURVE",
"431 417 OFFCURVE",
"404 245 CURVE SMOOTH",
"403 235 OFFCURVE",
"382 83 OFFCURVE",
"377 48 CURVE",
"374 27 OFFCURVE",
"329 10 OFFCURVE",
"194 10 CURVE SMOOTH",
"46 10 OFFCURVE",
"33 50 OFFCURVE",
"45 138 CURVE SMOOTH",
"62 259 OFFCURVE",
"110 264 OFFCURVE",
"214 264 CURVE SMOOTH",
"275 264 OFFCURVE",
"346 260 OFFCURVE",
"373 252 CURVE",
"374 258 OFFCURVE",
"378 272 OFFCURVE",
"364 275 CURVE",
"325 281 OFFCURVE",
"261 284 OFFCURVE",
"206 284 CURVE SMOOTH",
"83 284 OFFCURVE",
"42 256 OFFCURVE",
"25 137 CURVE SMOOTH",
"10 32 OFFCURVE",
"35 -9 OFFCURVE",
"193 -9 CURVE SMOOTH"
);
}
);
width = 469;
}
);
note = A.1;
},
{
color = 7;
glyphname = a;
lastChange = "2021-09-09 19:11:29 +0000";
layers = (
{
anchors = (
{
name = bottom;
position = "{260, 0}";
},
{
name = ogonek;
position = "{494, 10}";
},
{
name = top;
position = "{316, 399}";
}
);
background = {
anchors = (
{
name = bottom;
position = "{260, 0}";
},
{
name = ogonek;
position = "{494, 10}";
},
{
name = top;
position = "{316, 399}";
}
);
paths = (
{
closed = 1;
nodes = (
"522 20 OFFCURVE",
"528 57 OFFCURVE",
"550 214 CURVE SMOOTH",
"569 348 OFFCURVE",
"532 388 OFFCURVE",
"434 398 CURVE SMOOTH",
"365 405 OFFCURVE",
"185 406 OFFCURVE",
"124 395 CURVE SMOOTH",
"90 389 OFFCURVE",
"74 368 OFFCURVE",
"68 327 CURVE SMOOTH",
"63 289 LINE",
"134 289 OFFCURVE",
"205 289 OFFCURVE",
"276 289 CURVE SMOOTH",
"347 289 OFFCURVE",
"364 279 OFFCURVE",
"352 230 CURVE",
"328 239 OFFCURVE",
"197 238 OFFCURVE",
"128 238 CURVE SMOOTH",
"46 238 OFFCURVE",
"27 204 OFFCURVE",
"14 111 CURVE SMOOTH",
"3 28 OFFCURVE",
"36 5 OFFCURVE",
"94 1 CURVE SMOOTH",
"212 -8 OFFCURVE",
"495 -4 OFFCURVE",
"522 20 CURVE"
);
},
{
closed = 1;
nodes = (
"223 79 OFFCURVE",
"216 84 OFFCURVE",
"222 129 CURVE SMOOTH",
"228 174 OFFCURVE",
"236 175 OFFCURVE",
"251 175 CURVE SMOOTH",
"262 175 OFFCURVE",
"332 174 OFFCURVE",
"338 170 CURVE",
"337 166 OFFCURVE",
"329 106 OFFCURVE",
"325 84 CURVE",
"318 80 OFFCURVE",
"247 79 OFFCURVE",
"238 79 CURVE SMOOTH"
);
},
{
closed = 1;
nodes = (
"522 20 OFFCURVE",
"528 57 OFFCURVE",
"550 214 CURVE SMOOTH",
"569 348 OFFCURVE",
"532 388 OFFCURVE",
"434 398 CURVE SMOOTH",
"365 405 OFFCURVE",
"185 406 OFFCURVE",
"124 395 CURVE SMOOTH",
"90 389 OFFCURVE",
"74 368 OFFCURVE",
"68 327 CURVE SMOOTH",
"63 289 LINE",
"134 289 OFFCURVE",
"205 289 OFFCURVE",
"276 289 CURVE SMOOTH",
"347 289 OFFCURVE",
"364 279 OFFCURVE",
"352 230 CURVE",
"328 239 OFFCURVE",
"197 238 OFFCURVE",
"128 238 CURVE SMOOTH",
"46 238 OFFCURVE",
"27 204 OFFCURVE",
"14 111 CURVE SMOOTH",
"3 28 OFFCURVE",
"36 5 OFFCURVE",
"94 1 CURVE SMOOTH",
"212 -8 OFFCURVE",
"495 -4 OFFCURVE",
"522 20 CURVE"
);
},
{
closed = 1;
nodes = (
"223 79 OFFCURVE",
"216 84 OFFCURVE",
"222 129 CURVE SMOOTH",
"228 174 OFFCURVE",
"236 175 OFFCURVE",
"251 175 CURVE SMOOTH",
"262 175 OFFCURVE",
"332 174 OFFCURVE",
"338 170 CURVE",
"337 166 OFFCURVE",
"329 106 OFFCURVE",
"325 84 CURVE",
"318 80 OFFCURVE",
"247 79 OFFCURVE",
"238 79 CURVE SMOOTH"
);
}
);
};
layerId = "C7668D88-AC50-4107-9C4B-DB5D26A8FA6C";
paths = (
{
closed = 1;
nodes = (
"379 -3 OFFCURVE",
"488 4 OFFCURVE",
"522 20 CURVE",
"550 214 LINE SMOOTH",
"574 375 OFFCURVE",
"531 402 OFFCURVE",
"318 403 CURVE SMOOTH",
"234 404 OFFCURVE",
"159 401 OFFCURVE",
"124 395 CURVE SMOOTH",
"90 389 OFFCURVE",
"74 368 OFFCURVE",
"68 327 CURVE SMOOTH",
"62 289 LINE",
"133 291 OFFCURVE",
"205 293 OFFCURVE",
"276 293 CURVE SMOOTH",
"347 293 OFFCURVE",
"361 282 OFFCURVE",
"352 230 CURVE",
"328 239 OFFCURVE",
"197 238 OFFCURVE",
"128 238 CURVE SMOOTH",
"58 238 OFFCURVE",
"28 216 OFFCURVE",
"15 115 CURVE SMOOTH",
"1 7 OFFCURVE",
"32 -4 OFFCURVE",
"241 -3 CURVE SMOOTH"
);
},
{
closed = 1;
nodes = (
"230 79 OFFCURVE",
"223 88 OFFCURVE",
"229 129 CURVE SMOOTH",
"234 167 OFFCURVE",
"244 175 OFFCURVE",
"265 175 CURVE SMOOTH",
"276 175 OFFCURVE",
"322 174 OFFCURVE",
"344 170 CURVE",
"332 84 LINE",
"311 80 OFFCURVE",
"277 79 OFFCURVE",
"252 79 CURVE SMOOTH"
);
}
);
width = 571;
},
{
anchors = (
{
name = bottom;
position = "{190, 0}";
},
{
name = ogonek;
position = "{345, 10}";
},
{
name = top;
position = "{246, 399}";
}
);
background = {
anchors = (
{
name = bottom;
position = "{190, 0}";
},
{
name = ogonek;
position = "{345, 10}";
},
{
name = top;
position = "{246, 399}";
}
);
hints = (
{
horizontal = 1;
place = "{-4, 21}";
target = up;
type = BottomGhost;
},
{
horizontal = 1;
place = "{75, 96}";
type = Stem;
},
{
horizontal = 1;
place = "{460, -20}";
target = down;
type = TopGhost;
},
{
place = "{48, 383}";
type = Stem;
},
{
place = "{55, 98}";
type = Stem;
},
{
place = "{372, 98}";
type = Stem;
},
{
horizontal = 1;
place = "{0, 171}";
type = Stem;
},
{
horizontal = 1;
place = "{368, 97}";
type = Stem;
}
);
paths = (
{
closed = 1;
nodes = (
"371 69 OFFCURVE",
"376 115 OFFCURVE",
"395 248 CURVE SMOOTH",
"415 393 OFFCURVE",
"350 405 OFFCURVE",
"244 405 CURVE SMOOTH",
"204 405 OFFCURVE",
"157 400 OFFCURVE",
"133 394 CURVE SMOOTH",
"118 390 OFFCURVE",
"93 385 OFFCURVE",
"90 363 CURVE SMOOTH",
"89 356 LINE",
"110 381 OFFCURVE",
"201 390 OFFCURVE",
"246 390 CURVE SMOOTH",
"340 390 OFFCURVE",
"397 379 OFFCURVE",
"373 229 CURVE",
"359 235 OFFCURVE",
"271 243 OFFCURVE",
"204 243 CURVE SMOOTH",
"90 243 OFFCURVE",
"51 219 OFFCURVE",
"37 118 CURVE SMOOTH",
"24 28 OFFCURVE",
"48 -8 OFFCURVE",
"186 -8 CURVE SMOOTH",
"282 -8 OFFCURVE",
"360 -5 OFFCURVE",
"366 36 CURVE"
);
},
{
closed = 1;
nodes = (
"57 6 OFFCURVE",
"45 43 OFFCURVE",
"56 119 CURVE SMOOTH",
"70 222 OFFCURVE",
"113 228 OFFCURVE",
"223 228 CURVE SMOOTH",
"271 228 OFFCURVE",
"357 218 OFFCURVE",
"371 211 CURVE",
"370 203 OFFCURVE",
"352 69 OFFCURVE",
"348 39 CURVE",
"345 21 OFFCURVE",
"305 6 OFFCURVE",
"187 6 CURVE SMOOTH"
);
}
);
};
layerId = "B4E8C596-9C01-4F8A-BDA4-90320E25C0E6";
paths = (
{
closed = 1;
nodes = (
"320 -8 OFFCURVE",
"362 5 OFFCURVE",
"366 36 CURVE SMOOTH",
"395 248 LINE",
"415 393 OFFCURVE",
"350 405 OFFCURVE",
"244 405 CURVE SMOOTH",
"204 405 OFFCURVE",
"157 400 OFFCURVE",
"133 394 CURVE SMOOTH",
"118 390 OFFCURVE",
"93 385 OFFCURVE",
"90 363 CURVE SMOOTH",
"89 356 LINE",
"110 380 OFFCURVE",
"184 389 OFFCURVE",
"250 389 CURVE SMOOTH",
"340 389 OFFCURVE",
"397 378 OFFCURVE",
"373 229 CURVE",
"359 235 OFFCURVE",
"271 243 OFFCURVE",
"204 243 CURVE SMOOTH",
"90 243 OFFCURVE",
"51 219 OFFCURVE",
"37 118 CURVE SMOOTH",
"24 28 OFFCURVE",
"48 -8 OFFCURVE",
"186 -8 CURVE SMOOTH"
);
},
{
closed = 1;
nodes = (
"57 8 OFFCURVE",
"45 44 OFFCURVE",
"56 119 CURVE SMOOTH",
"70 222 OFFCURVE",
"113 228 OFFCURVE",
"223 228 CURVE SMOOTH",
"271 228 OFFCURVE",
"357 218 OFFCURVE",
"371 211 CURVE",
"348 39 LINE SMOOTH",
"345 18 OFFCURVE",
"305 8 OFFCURVE",
"188 8 CURVE SMOOTH"
);
}
);
width = 451;
}
);
leftKerningGroup = a;
note = a;
rightKerningGroup = n;
rightMetricsKey = "=n-3";
unicode = 0061;
},
{
color = 7;
glyphname = b;
lastChange = "2021-09-09 19:04:22 +0000";
layers = (
{
background = {
paths = (
{
closed = 1;
nodes = (
"32 193 LINE SMOOTH",
"12 47 OFFCURVE",
"25 -5 OFFCURVE",
"255 -5 CURVE SMOOTH",
"453 -5 OFFCURVE",
"522 3 OFFCURVE",
"547 181 CURVE SMOOTH",
"550 197 OFFCURVE",
"552 212 OFFCURVE",
"554 228 CURVE SMOOTH",
"574 371 OFFCURVE",
"527 401 OFFCURVE",
"353 401 CURVE SMOOTH",
"321 401 OFFCURVE",
"291 399 OFFCURVE",
"268 398 CURVE",
"273 434 OFFCURVE",
"278 469 OFFCURVE",
"283 505 CURVE",
"75 505 LINE"
);
},
{
closed = 1;
nodes = (
"236 102 OFFCURVE",
"227 111 OFFCURVE",
"235 165 CURVE SMOOTH",
"253 291 LINE",
"266 291 OFFCURVE",
"279 291 OFFCURVE",
"292 291 CURVE SMOOTH",
"333 291 OFFCURVE",
"341 281 OFFCURVE",
"337 237 CURVE SMOOTH",
"335 211 OFFCURVE",
"331 184 OFFCURVE",
"327 158 CURVE SMOOTH",
"319 115 OFFCURVE",
"309 102 OFFCURVE",
"276 102 CURVE SMOOTH"
);
},
{
closed = 1;
nodes = (
"32 193 LINE SMOOTH",
"12 47 OFFCURVE",
"25 -5 OFFCURVE",
"255 -5 CURVE SMOOTH",
"453 -5 OFFCURVE",
"522 3 OFFCURVE",
"547 181 CURVE SMOOTH",
"550 197 OFFCURVE",
"552 212 OFFCURVE",
"554 228 CURVE SMOOTH",
"574 371 OFFCURVE",
"527 401 OFFCURVE",
"353 401 CURVE SMOOTH",
"321 401 OFFCURVE",
"291 399 OFFCURVE",
"268 398 CURVE",
"273 434 OFFCURVE",
"278 469 OFFCURVE",
"283 505 CURVE",
"75 505 LINE"
);
},
{
closed = 1;
nodes = (
"236 102 OFFCURVE",
"227 111 OFFCURVE",
"235 165 CURVE SMOOTH",
"253 291 LINE",
"266 291 OFFCURVE",
"279 291 OFFCURVE",
"292 291 CURVE SMOOTH",
"333 291 OFFCURVE",
"341 281 OFFCURVE",
"337 237 CURVE SMOOTH",
"335 211 OFFCURVE",
"331 184 OFFCURVE",
"327 158 CURVE SMOOTH",
"319 115 OFFCURVE",
"309 102 OFFCURVE",
"276 102 CURVE SMOOTH"
);
},
{
closed = 1;
nodes = (
"475 -5 OFFCURVE",
"522 18 OFFCURVE",
"546 181 CURVE SMOOTH",
"553 228 LINE SMOOTH",
"574 372 OFFCURVE",
"522 400 OFFCURVE",
"370 400 CURVE SMOOTH",
"320 400 OFFCURVE",
"285 398 OFFCURVE",
"267 398 CURVE",
"272 434 OFFCURVE",
"277 469 OFFCURVE",
"282 505 CURVE",
"74 505 LINE",
"31 193 LINE SMOOTH",
"8 23 OFFCURVE",
"48 -5 OFFCURVE",
"267 -5 CURVE SMOOTH"
);
},
{
closed = 1;
nodes = (
"236 102 OFFCURVE",
"226 110 OFFCURVE",
"234 165 CURVE SMOOTH",
"252 291 LINE",
"265 291 OFFCURVE",
"278 291 OFFCURVE",
"291 291 CURVE SMOOTH",
"332 291 OFFCURVE",
"342 281 OFFCURVE",
"336 237 CURVE SMOOTH",
"326 158 LINE SMOOTH",
"321 115 OFFCURVE",
"308 102 OFFCURVE",
"273 102 CURVE SMOOTH"
);
}
);
};
layerId = "C7668D88-AC50-4107-9C4B-DB5D26A8FA6C";
paths = (
{
closed = 1;
nodes = (
"443 -5 OFFCURVE",
"519 20 OFFCURVE",
"543 193 CURVE SMOOTH",
"565 350 OFFCURVE",
"531 400 OFFCURVE",
"370 400 CURVE SMOOTH",
"320 400 OFFCURVE",
"285 398 OFFCURVE",
"267 398 CURVE",
"282 505 LINE",
"77 505 LINE",
"34 193 LINE SMOOTH",
"11 23 OFFCURVE",
"50 -5 OFFCURVE",
"256 -5 CURVE SMOOTH"
);
},
{
closed = 1;
nodes = (
"236 102 OFFCURVE",
"226 110 OFFCURVE",
"234 165 CURVE SMOOTH",
"252 291 LINE",
"265 291 OFFCURVE",
"278 291 OFFCURVE",
"291 291 CURVE SMOOTH",
"339 291 OFFCURVE",
"345 278 OFFCURVE",
"336 203 CURVE SMOOTH",
"323 110 OFFCURVE",
"320 102 OFFCURVE",
"273 102 CURVE SMOOTH"
);
}
);
width = 568;
},
{
background = {
paths = (
{
closed = 1;
nodes = (
"67 201 LINE SMOOTH",
"41 17 OFFCURVE",
"61 -2 OFFCURVE",
"194 -2 CURVE SMOOTH",
"297 -2 OFFCURVE",
"377 -2 OFFCURVE",
"406 203 CURVE",
"407 206 OFFCURVE",
"407 209 OFFCURVE",
"407 212 CURVE SMOOTH",
"427 365 OFFCURVE",
"372 400 OFFCURVE",
"259 400 CURVE SMOOTH",
"226 400 OFFCURVE",
"117 395 OFFCURVE",
"111 394 CURVE",
"116 431 OFFCURVE",
"121 468 OFFCURVE",
"127 505 CURVE",
"109 505 LINE"
);
},
{
closed = 1;
nodes = (
"69 12 OFFCURVE",
"62 37 OFFCURVE",
"84 193 CURVE SMOOTH",
"110 380 LINE",
"117 381 OFFCURVE",
"223 385 OFFCURVE",
"265 385 CURVE SMOOTH",
"361 385 OFFCURVE",
"407 339 OFFCURVE",
"389 208 CURVE SMOOTH",
"389 206 OFFCURVE",
"388 204 OFFCURVE",
"388 203 CURVE SMOOTH",
"364 39 OFFCURVE",
"320 12 OFFCURVE",
"196 12 CURVE SMOOTH"
);
},
{
closed = 1;
nodes = (
"67 201 LINE SMOOTH",
"41 17 OFFCURVE",
"61 -2 OFFCURVE",
"194 -2 CURVE SMOOTH",
"297 -2 OFFCURVE",
"377 -2 OFFCURVE",
"406 203 CURVE",
"407 206 OFFCURVE",
"407 209 OFFCURVE",
"407 212 CURVE SMOOTH",
"427 365 OFFCURVE",
"372 400 OFFCURVE",
"259 400 CURVE SMOOTH",
"226 400 OFFCURVE",
"117 395 OFFCURVE",
"111 394 CURVE",
"116 431 OFFCURVE",
"121 468 OFFCURVE",
"127 505 CURVE",
"109 505 LINE"
);
},
{
closed = 1;
nodes = (
"69 12 OFFCURVE",
"62 37 OFFCURVE",
"84 193 CURVE SMOOTH",
"110 380 LINE",
"117 381 OFFCURVE",
"223 385 OFFCURVE",
"265 385 CURVE SMOOTH",
"361 385 OFFCURVE",
"407 339 OFFCURVE",
"389 208 CURVE SMOOTH",
"389 206 OFFCURVE",
"388 204 OFFCURVE",
"388 203 CURVE SMOOTH",
"364 39 OFFCURVE",
"320 12 OFFCURVE",
"196 12 CURVE SMOOTH"
);
}
);
};
layerId = "B4E8C596-9C01-4F8A-BDA4-90320E25C0E6";
paths = (
{
closed = 1;
nodes = (
"298 -2 OFFCURVE",
"378 -2 OFFCURVE",
"407 203 CURVE SMOOTH",
"425 347 OFFCURVE",
"392 400 OFFCURVE",
"260 400 CURVE SMOOTH",
"227 400 OFFCURVE",
"118 395 OFFCURVE",
"112 394 CURVE",
"128 505 LINE",
"110 505 LINE",
"67 193 LINE SMOOTH",
"42 17 OFFCURVE",
"62 -2 OFFCURVE",
"195 -2 CURVE SMOOTH"
);
},
{
closed = 1;
nodes = (
"71 14 OFFCURVE",
"63 39 OFFCURVE",
"85 193 CURVE SMOOTH",
"111 379 LINE",
"118 380 OFFCURVE",
"224 384 OFFCURVE",
"266 384 CURVE SMOOTH",
"368 384 OFFCURVE",
"407 333 OFFCURVE",
"389 203 CURVE SMOOTH",
"365 41 OFFCURVE",
"322 14 OFFCURVE",
"198 14 CURVE SMOOTH"
);
}
);
width = 459;
}
);
leftKerningGroup = b;
leftMetricsKey = l;
note = b;
rightKerningGroup = o;
rightMetricsKey = o;
unicode = 0062;
},
{
color = 7;
glyphname = c;
lastChange = "2021-09-09 19:04:22 +0000";
layers = (
{
anchors = (
{
name = bottom;
position = "{242, 0}";
},
{
name = top;
position = "{299, 399}";
}
);
background = {
anchors = (
{
name = bottom;
position = "{242, 0}";
},
{
name = top;
position = "{299, 399}";
}
);
hints = (
{
horizontal = 1;
place = "{-4, 104}";
type = Stem;
},
{
horizontal = 1;
place = "{301, 99}";
type = Stem;
},
{
place = "{30, 201}";
type = Stem;
}
);
paths = (
{
closed = 1;
nodes = (
"-2 29 OFFCURVE",
"67 -7 OFFCURVE",
"263 -7 CURVE SMOOTH",
"380 -7 OFFCURVE",
"466 -7 OFFCURVE",
"476 59 CURVE SMOOTH",
"484 112 LINE",
"461 105 OFFCURVE",
"395 100 OFFCURVE",
"355 100 CURVE SMOOTH",
"242 100 OFFCURVE",
"211 125 OFFCURVE",
"221 202 CURVE SMOOTH",
"232 279 OFFCURVE",
"271 304 OFFCURVE",
"384 304 CURVE SMOOTH",
"424 304 OFFCURVE",
"488 299 OFFCURVE",
"509 292 CURVE",
"521 375 OFFCURVE",
"498 390 OFFCURVE",
"458 395 CURVE SMOOTH",
"405 402 OFFCURVE",
"376 405 OFFCURVE",
"321 405 CURVE SMOOTH",
"125 405 OFFCURVE",
"46 367 OFFCURVE",
"22 200 CURVE SMOOTH"
);
},
{
closed = 1;
nodes = (
"-2 29 OFFCURVE",
"67 -7 OFFCURVE",
"263 -7 CURVE SMOOTH",
"380 -7 OFFCURVE",
"466 -7 OFFCURVE",
"476 59 CURVE SMOOTH",
"484 112 LINE",
"461 105 OFFCURVE",
"395 100 OFFCURVE",
"355 100 CURVE SMOOTH",
"242 100 OFFCURVE",
"211 125 OFFCURVE",
"221 202 CURVE SMOOTH",
"232 279 OFFCURVE",
"271 304 OFFCURVE",
"384 304 CURVE SMOOTH",
"424 304 OFFCURVE",
"488 299 OFFCURVE",
"509 292 CURVE",
"521 375 OFFCURVE",
"498 390 OFFCURVE",
"458 395 CURVE SMOOTH",
"405 402 OFFCURVE",
"376 405 OFFCURVE",
"321 405 CURVE SMOOTH",
"125 405 OFFCURVE",
"46 367 OFFCURVE",
"22 200 CURVE SMOOTH"
);
},
{
closed = 1;
nodes = (
"362 -7 OFFCURVE",
"449 -7 OFFCURVE",
"458 59 CURVE SMOOTH",
"466 112 LINE",
"443 105 OFFCURVE",
"377 100 OFFCURVE",
"337 100 CURVE SMOOTH",
"240 100 OFFCURVE",
"214 125 OFFCURVE",
"224 202 CURVE SMOOTH",
"235 279 OFFCURVE",
"269 304 OFFCURVE",
"366 304 CURVE SMOOTH",
"406 304 OFFCURVE",
"470 299 OFFCURVE",
"491 292 CURVE",
"503 375 OFFCURVE",
"480 390 OFFCURVE",
"440 395 CURVE SMOOTH",
"387 402 OFFCURVE",
"358 405 OFFCURVE",
"323 405 CURVE SMOOTH",
"127 405 OFFCURVE",
"48 367 OFFCURVE",
"22 187 CURVE SMOOTH",
"0 29 OFFCURVE",
"69 -7 OFFCURVE",
"265 -7 CURVE SMOOTH"
);
}
);
};
layerId = "C7668D88-AC50-4107-9C4B-DB5D26A8FA6C";
paths = (
{
closed = 1;
nodes = (
"362 -7 OFFCURVE",
"449 -7 OFFCURVE",
"458 59 CURVE SMOOTH",
"466 112 LINE",
"443 105 OFFCURVE",
"377 100 OFFCURVE",
"337 100 CURVE SMOOTH",
"248 100 OFFCURVE",
"224 125 OFFCURVE",
"234 202 CURVE SMOOTH",
"245 279 OFFCURVE",
"277 304 OFFCURVE",
"366 304 CURVE SMOOTH",
"406 304 OFFCURVE",
"470 299 OFFCURVE",
"491 292 CURVE",
"503 375 OFFCURVE",
"480 390 OFFCURVE",
"440 395 CURVE SMOOTH",
"387 402 OFFCURVE",
"358 405 OFFCURVE",
"323 405 CURVE SMOOTH",
"112 405 OFFCURVE",
"49 372 OFFCURVE",
"22 187 CURVE SMOOTH",
"2 41 OFFCURVE",
"73 -7 OFFCURVE",
"265 -7 CURVE SMOOTH"
);
}
);
width = 500;
},
{
anchors = (
{
name = bottom;
position = "{219, 0}";
},
{
name = top;
position = "{269, 399}";
}
);
background = {
anchors = (
{
name = bottom;
position = "{219, 0}";
},
{
name = top;
position = "{269, 399}";
}
);
paths = (
{
closed = 1;
nodes = (
"29 29 OFFCURVE",
"78 -7 OFFCURVE",
"220 -7 CURVE SMOOTH",
"265 -7 OFFCURVE",
"369 -2 OFFCURVE",
"372 22 CURVE SMOOTH",
"373 30 LINE",
"346 17 OFFCURVE",
"267 7 OFFCURVE",
"220 7 CURVE SMOOTH",
"86 7 OFFCURVE",
"51 55 OFFCURVE",
"71 200 CURVE SMOOTH",
"91 344 OFFCURVE",
"140 391 OFFCURVE",
"274 391 CURVE SMOOTH",
"321 391 OFFCURVE",
"398 382 OFFCURVE",
"421 369 CURVE",
"423 384 OFFCURVE",
"423 390 OFFCURVE",
"394 395 CURVE SMOOTH",
"356 403 OFFCURVE",
"318 405 OFFCURVE",
"278 405 CURVE SMOOTH",
"136 405 OFFCURVE",
"77 367 OFFCURVE",
"53 200 CURVE SMOOTH"
);
},
{
closed = 1;
nodes = (
"29 29 OFFCURVE",
"78 -7 OFFCURVE",
"220 -7 CURVE SMOOTH",
"265 -7 OFFCURVE",
"369 -2 OFFCURVE",
"372 22 CURVE SMOOTH",
"373 30 LINE",
"346 17 OFFCURVE",
"267 7 OFFCURVE",
"220 7 CURVE SMOOTH",
"86 7 OFFCURVE",
"51 55 OFFCURVE",
"71 200 CURVE SMOOTH",
"91 344 OFFCURVE",
"140 391 OFFCURVE",
"274 391 CURVE SMOOTH",
"321 391 OFFCURVE",
"398 382 OFFCURVE",
"421 369 CURVE",
"423 384 OFFCURVE",
"423 390 OFFCURVE",
"394 395 CURVE SMOOTH",
"356 403 OFFCURVE",
"318 405 OFFCURVE",
"278 405 CURVE SMOOTH",
"136 405 OFFCURVE",
"77 367 OFFCURVE",
"53 200 CURVE SMOOTH"
);
},
{
closed = 1;
nodes = (
"260 -7 OFFCURVE",
"355 -2 OFFCURVE",
"358 22 CURVE SMOOTH",
"360 32 LINE",
"333 19 OFFCURVE",
"262 9 OFFCURVE",
"219 9 CURVE SMOOTH",
"85 9 OFFCURVE",
"50 57 OFFCURVE",
"70 200 CURVE SMOOTH",
"90 342 OFFCURVE",
"139 389 OFFCURVE",
"273 389 CURVE SMOOTH",
"316 389 OFFCURVE",
"383 380 OFFCURVE",
"407 367 CURVE",
"409 384 OFFCURVE",
"409 390 OFFCURVE",
"379 393 CURVE SMOOTH",
"341 401 OFFCURVE",
"313 405 OFFCURVE",
"277 405 CURVE SMOOTH",
"135 405 OFFCURVE",
"76 367 OFFCURVE",
"52 200 CURVE SMOOTH",
"28 29 OFFCURVE",
"77 -7 OFFCURVE",
"219 -7 CURVE SMOOTH"
);
}
);
};
layerId = "B4E8C596-9C01-4F8A-BDA4-90320E25C0E6";
paths = (
{
closed = 1;
nodes = (
"300 -5 OFFCURVE",
"351 9 OFFCURVE",
"353 24 CURVE SMOOTH",
"355 34 LINE",
"328 22 OFFCURVE",
"282 12 OFFCURVE",
"220 12 CURVE SMOOTH",
"85 12 OFFCURVE",
"52 58 OFFCURVE",
"72 200 CURVE SMOOTH",
"92 341 OFFCURVE",
"140 388 OFFCURVE",
"272 388 CURVE SMOOTH",
"313 388 OFFCURVE",
"378 379 OFFCURVE",
"401 367 CURVE",
"404 384 OFFCURVE",
"397 391 OFFCURVE",
"370 396 CURVE SMOOTH",
"337 402 OFFCURVE",
"311 405 OFFCURVE",
"277 405 CURVE SMOOTH",
"135 405 OFFCURVE",
"75 367 OFFCURVE",
"52 200 CURVE SMOOTH",
"29 35 OFFCURVE",
"77 -5 OFFCURVE",
"219 -5 CURVE SMOOTH"
);
}
);
width = 410;
}
);
leftKerningGroup = o;
leftMetricsKey = o;
note = c;
rightKerningGroup = c;
unicode = 0063;
},
{
color = 7;
glyphname = d;
lastChange = "2021-09-09 19:18:58 +0000";
layers = (
{
anchors = (
{
name = bottom;
position = "{260, 0}";
},
{
name = topright;
position = "{618, 505}";
}
);
background = {
anchors = (
{
name = bottom;
position = "{260, 0}";
},
{
name = center;
position = "{288, 200}";
},
{
name = top;
position = "{395, 960}";
},
{
name = topright;
position = "{618, 505}";
}
);
paths = (
{
closed = 1;
nodes = (
"-607 0 OFFCURVE",
"-528 -2 OFFCURVE",
"-355 -2 CURVE SMOOTH",
"-172 -2 OFFCURVE",
"-86 18 OFFCURVE",
"-60 201 CURVE SMOOTH",
"-17 505 LINE",
"-225 505 LINE",
"-241 394 LINE",
"-251 398 OFFCURVE",
"-288 400 OFFCURVE",
"-307 400 CURVE SMOOTH",
"-470 400 OFFCURVE",
"-556 366 OFFCURVE",
"-580 198 CURVE SMOOTH"
);
},
{
closed = 1;
nodes = (
"-362 102 OFFCURVE",
"-377 118 OFFCURVE",
"-363 215 CURVE SMOOTH",
"-354 277 OFFCURVE",
"-343 290 OFFCURVE",
"-280 290 CURVE SMOOTH",
"-268 290 OFFCURVE",
"-263 290 OFFCURVE",
"-258 290 CURVE",
"-271 178 LINE SMOOTH",
"-277 124 OFFCURVE",
"-295 102 OFFCURVE",
"-333 102 CURVE SMOOTH"
);
},
{
closed = 1;
nodes = (
"-607 0 OFFCURVE",
"-528 -2 OFFCURVE",
"-355 -2 CURVE SMOOTH",
"-172 -2 OFFCURVE",
"-86 18 OFFCURVE",
"-60 201 CURVE SMOOTH",
"-17 505 LINE",
"-225 505 LINE",
"-241 394 LINE",
"-251 398 OFFCURVE",
"-288 400 OFFCURVE",
"-307 400 CURVE SMOOTH",
"-470 400 OFFCURVE",
"-556 366 OFFCURVE",
"-580 198 CURVE SMOOTH"
);
},
{
closed = 1;
nodes = (
"-362 102 OFFCURVE",
"-377 118 OFFCURVE",
"-363 215 CURVE SMOOTH",
"-354 277 OFFCURVE",
"-343 290 OFFCURVE",
"-280 290 CURVE SMOOTH",
"-268 290 OFFCURVE",
"-263 290 OFFCURVE",
"-258 290 CURVE",
"-271 178 LINE SMOOTH",
"-277 124 OFFCURVE",
"-295 102 OFFCURVE",
"-333 102 CURVE SMOOTH"
);
},
{
closed = 1;
nodes = (
"-600 36 OFFCURVE",
"-562 -2 OFFCURVE",
"-362 -2 CURVE SMOOTH",
"-170 -2 OFFCURVE",
"-84 18 OFFCURVE",
"-58 201 CURVE SMOOTH",
"-15 505 LINE",
"-223 505 LINE",
"-239 394 LINE",
"-249 398 OFFCURVE",
"-286 400 OFFCURVE",
"-305 400 CURVE SMOOTH",
"-468 400 OFFCURVE",
"-554 366 OFFCURVE",
"-578 198 CURVE SMOOTH"
);
},
{
closed = 1;
nodes = (
"-360 102 OFFCURVE",
"-375 118 OFFCURVE",
"-364 198 CURVE SMOOTH",
"-352 277 OFFCURVE",
"-341 290 OFFCURVE",
"-278 290 CURVE SMOOTH",
"-266 290 OFFCURVE",
"-261 290 OFFCURVE",
"-256 290 CURVE",
"-269 178 LINE SMOOTH",
"-275 124 OFFCURVE",
"-293 102 OFFCURVE",
"-331 102 CURVE SMOOTH"
);
},
{
closed = 1;
nodes = (
"2 39 OFFCURVE",
"51 -2 OFFCURVE",
"234 -2 CURVE SMOOTH",
"434 -2 OFFCURVE",
"509 18 OFFCURVE",
"535 201 CURVE SMOOTH",
"578 505 LINE",
"373 505 LINE",
"351 349 LINE",
"400 367 LINE",
"378 391 OFFCURVE",
"319 405 OFFCURVE",
"260 405 CURVE SMOOTH",
"135 405 OFFCURVE",
"48 362 OFFCURVE",
"24 198 CURVE SMOOTH"
);
},
{
closed = 1;
nodes = (
"236 102 OFFCURVE",
"221 118 OFFCURVE",
"232 198 CURVE SMOOTH",
"244 277 OFFCURVE",
"255 290 OFFCURVE",
"318 290 CURVE SMOOTH",
"330 290 OFFCURVE",
"335 290 OFFCURVE",
"340 290 CURVE",
"327 178 LINE SMOOTH",
"320 124 OFFCURVE",
"303 102 OFFCURVE",
"265 102 CURVE SMOOTH"
);
}
);
};
layerId = "C7668D88-AC50-4107-9C4B-DB5D26A8FA6C";
paths = (
{
closed = 1;
nodes = (
"434 -2 OFFCURVE",
"509 18 OFFCURVE",
"535 201 CURVE SMOOTH",
"578 505 LINE",
"373 505 LINE",
"351 349 LINE",
"400 367 LINE",
"378 391 OFFCURVE",
"319 405 OFFCURVE",
"260 405 CURVE SMOOTH",
"124 405 OFFCURVE",
"47 358 OFFCURVE",
"24 198 CURVE SMOOTH",
"4 51 OFFCURVE",
"57 -2 OFFCURVE",
"234 -2 CURVE SMOOTH"
);
},
{
closed = 1;
nodes = (
"236 102 OFFCURVE",
"221 118 OFFCURVE",
"232 198 CURVE SMOOTH",
"244 277 OFFCURVE",
"255 290 OFFCURVE",
"318 290 CURVE SMOOTH",
"330 290 OFFCURVE",
"335 290 OFFCURVE",
"340 290 CURVE",
"327 178 LINE SMOOTH",
"320 124 OFFCURVE",
"303 102 OFFCURVE",
"265 102 CURVE SMOOTH"
);
}
);
width = 561;
},
{
anchors = (
{
name = bottom;
position = "{198, 0}";
},
{
name = topright;
position = "{486, 505}";
}
);
background = {
anchors = (
{
name = bottom;
position = "{198, 0}";
},
{
name = center;
position = "{226, 200}";
},
{
name = top;
position = "{333, 960}";
},
{
name = topright;
position = "{486, 505}";
}
);
paths = (
{
closed = 1;
nodes = (
"-478 11 OFFCURVE",
"-432 -2 OFFCURVE",
"-301 -2 CURVE SMOOTH",
"-164 -2 OFFCURVE",
"-139 17 OFFCURVE",
"-112 201 CURVE SMOOTH",
"-68 505 LINE",
"-85 505 LINE",
"-101 394 LINE",
"-107 395 OFFCURVE",
"-215 400 OFFCURVE",
"-248 400 CURVE SMOOTH",
"-363 400 OFFCURVE",
"-428 364 OFFCURVE",
"-451 203 CURVE SMOOTH"
);
},
{
closed = 1;
nodes = (
"-429 14 OFFCURVE",
"-456 39 OFFCURVE",
"-433 199 CURVE SMOOTH",
"-416 325 OFFCURVE",
"-381 384 OFFCURVE",
"-250 384 CURVE SMOOTH",
"-207 384 OFFCURVE",
"-110 378 OFFCURVE",
"-103 377 CURVE",
"-129 196 LINE SMOOTH",
"-154 21 OFFCURVE",
"-180 14 OFFCURVE",
"-320 14 CURVE SMOOTH"
);
},
{
closed = 1;
nodes = (
"-478 11 OFFCURVE",
"-432 -2 OFFCURVE",
"-301 -2 CURVE SMOOTH",
"-164 -2 OFFCURVE",
"-139 17 OFFCURVE",
"-112 201 CURVE SMOOTH",
"-68 505 LINE",
"-85 505 LINE",
"-101 394 LINE",
"-107 395 OFFCURVE",
"-215 400 OFFCURVE",
"-248 400 CURVE SMOOTH",
"-363 400 OFFCURVE",
"-428 364 OFFCURVE",
"-451 203 CURVE SMOOTH"
);
},
{
closed = 1;
nodes = (
"-429 14 OFFCURVE",
"-456 39 OFFCURVE",
"-433 199 CURVE SMOOTH",
"-416 325 OFFCURVE",
"-381 384 OFFCURVE",
"-250 384 CURVE SMOOTH",
"-207 384 OFFCURVE",
"-110 378 OFFCURVE",
"-103 377 CURVE",
"-129 196 LINE SMOOTH",
"-154 21 OFFCURVE",
"-180 14 OFFCURVE",
"-320 14 CURVE SMOOTH"
);
},
{
closed = 1;
nodes = (
"-477 17 OFFCURVE",
"-440 -2 OFFCURVE",
"-309 -2 CURVE SMOOTH",
"-164 -2 OFFCURVE",
"-139 17 OFFCURVE",
"-112 201 CURVE SMOOTH",
"-68 505 LINE",
"-85 505 LINE",
"-101 394 LINE",
"-135 396 OFFCURVE",
"-215 400 OFFCURVE",
"-248 400 CURVE SMOOTH",
"-363 400 OFFCURVE",
"-428 364 OFFCURVE",
"-451 203 CURVE SMOOTH"
);
},
{
closed = 1;
nodes = (
"-428 14 OFFCURVE",
"-456 39 OFFCURVE",
"-433 199 CURVE SMOOTH",
"-413 347 OFFCURVE",
"-360 384 OFFCURVE",
"-250 384 CURVE SMOOTH",
"-207 384 OFFCURVE",
"-132 379 OFFCURVE",
"-103 377 CURVE",
"-129 196 LINE SMOOTH",
"-152 35 OFFCURVE",
"-170 14 OFFCURVE",
"-319 14 CURVE SMOOTH"
);
},
{
closed = 1;
nodes = (
"339 -2 OFFCURVE",
"364 17 OFFCURVE",
"391 201 CURVE SMOOTH",
"435 505 LINE",
"418 505 LINE",
"401 385 LINE",
"412 392 LINE",
"399 394 OFFCURVE",
"295 400 OFFCURVE",
"255 400 CURVE SMOOTH",
"140 400 OFFCURVE",
"75 364 OFFCURVE",
"52 203 CURVE SMOOTH",
"26 17 OFFCURVE",
"63 -2 OFFCURVE",
"194 -2 CURVE SMOOTH"
);
},
{
closed = 1;
nodes = (
"75 14 OFFCURVE",
"47 39 OFFCURVE",
"70 199 CURVE SMOOTH",
"90 347 OFFCURVE",
"143 384 OFFCURVE",
"253 384 CURVE SMOOTH",
"296 384 OFFCURVE",
"371 379 OFFCURVE",
"400 377 CURVE",
"374 196 LINE SMOOTH",
"352 35 OFFCURVE",
"333 14 OFFCURVE",
"184 14 CURVE SMOOTH"
);
}
);
};
layerId = "B4E8C596-9C01-4F8A-BDA4-90320E25C0E6";
paths = (
{
closed = 1;
nodes = (
"339 -2 OFFCURVE",
"364 17 OFFCURVE",
"391 201 CURVE SMOOTH",
"435 505 LINE",
"418 505 LINE",
"401 385 LINE",
"412 392 LINE",
"399 394 OFFCURVE",
"295 400 OFFCURVE",
"255 400 CURVE SMOOTH",
"140 400 OFFCURVE",
"75 364 OFFCURVE",
"52 203 CURVE SMOOTH",
"28 27 OFFCURVE",
"66 -2 OFFCURVE",
"198 -2 CURVE SMOOTH"
);
},
{
closed = 1;
nodes = (
"77 14 OFFCURVE",
"48 47 OFFCURVE",
"70 199 CURVE SMOOTH",
"90 347 OFFCURVE",
"143 384 OFFCURVE",
"253 384 CURVE SMOOTH",
"296 384 OFFCURVE",
"371 379 OFFCURVE",
"400 377 CURVE",
"374 196 LINE SMOOTH",
"352 35 OFFCURVE",
"333 14 OFFCURVE",
"194 14 CURVE SMOOTH"
);
}
);
width = 452;
}
);
leftKerningGroup = o;
leftMetricsKey = o;
note = d;
rightKerningGroup = d;
rightMetricsKey = n;
unicode = 0064;
},
{
color = 7;
glyphname = eth;
lastChange = "2021-09-08 23:18:03 +0000";
layers = (
{
background = {
components = (
{
name = partialdiff;
}
);
hints = (
{
horizontal = 1;
place = "{-2, 104}";
type = Stem;
},
{
horizontal = 1;
place = "{290, 89}";
type = Stem;
},
{
place = "{35, 202}";
type = Stem;
},
{
place = "{341, 206}";
type = Stem;
}
);
paths = (
{
closed = 1;
nodes = (
"162 405 LINE",
"379 644 LINE",
"336 683 LINE",
"122 444 LINE"
);
}
);
};
components = (
{
name = partialdiff;
}
);
layerId = "C7668D88-AC50-4107-9C4B-DB5D26A8FA6C";
paths = (
{
closed = 1;
nodes = (
"162 405 LINE",
"379 644 LINE",
"336 683 LINE",
"122 444 LINE"
);
}
);
width = 593;
},
{
background = {
components = (
{
name = partialdiff;
}
);
hints = (
{
horizontal = 1;
place = "{-1, 97}";
type = Stem;
},
{
horizontal = 1;
place = "{357, 102}";
type = Stem;
},
{
place = "{594, 90}";
type = Stem;
},
{
place = "{936, 90}";
type = Stem;
}
);
paths = (
{
closed = 1;
nodes = (
"103 472 LINE",
"264 583 LINE",
"254 598 LINE",
"92 487 LINE"
);
}
);
};
components = (
{
name = partialdiff;
}
);
layerId = "B4E8C596-9C01-4F8A-BDA4-90320E25C0E6";
paths = (
{
closed = 1;
nodes = (
"103 472 LINE",
"264 583 LINE",
"254 598 LINE",
"92 487 LINE"
);
}
);
width = 424;
}
);
note = eth;
unicode = 00F0;
},
{
color = 7;
glyphname = dcroat;
lastChange = "2021-09-08 23:18:03 +0000";
layers = (
{
background = {
paths = (
{
closed = 1;
nodes = (
"305 469 LINE",
"363 469 LINE",
"353 394 LINE",
"319 398 OFFCURVE",
"332 400 OFFCURVE",
"286 400 CURVE SMOOTH",
"123 400 OFFCURVE",
"38 366 OFFCURVE",
"14 198 CURVE SMOOTH",
"-14 0 OFFCURVE",
"66 -2 OFFCURVE",
"239 -2 CURVE SMOOTH",
"422 -2 OFFCURVE",
"507 18 OFFCURVE",
"533 201 CURVE SMOOTH",
"571 469 LINE",
"627 469 LINE",
"637 542 LINE",
"581 542 LINE",
"593 626 LINE",
"385 626 LINE",
"373 542 LINE",
"315 542 LINE"
);
},
{
closed = 1;
nodes = (
"210 102 OFFCURVE",
"212 134 OFFCURVE",
"223 215 CURVE SMOOTH",
"233 285 OFFCURVE",
"260 290 OFFCURVE",
"331 290 CURVE SMOOTH",
"333 290 OFFCURVE",
"336 290 OFFCURVE",
"338 290 CURVE",
"322 178 LINE SMOOTH",
"311 102 OFFCURVE",
"275 102 OFFCURVE",
"260 102 CURVE SMOOTH"
);
}
);
};
layerId = "C7668D88-AC50-4107-9C4B-DB5D26A8FA6C";
paths = (
{
closed = 1;
nodes = (
"305 469 LINE",
"363 469 LINE",
"353 394 LINE",
"319 398 OFFCURVE",
"332 400 OFFCURVE",
"286 400 CURVE SMOOTH",
"123 400 OFFCURVE",
"38 366 OFFCURVE",
"14 198 CURVE SMOOTH",
"-14 0 OFFCURVE",
"66 -2 OFFCURVE",
"239 -2 CURVE SMOOTH",
"422 -2 OFFCURVE",
"507 18 OFFCURVE",
"533 201 CURVE SMOOTH",
"571 469 LINE",
"627 469 LINE",
"637 542 LINE",
"581 542 LINE",
"593 626 LINE",
"385 626 LINE",
"373 542 LINE",
"315 542 LINE"
);
},
{
closed = 1;
nodes = (
"210 102 OFFCURVE",
"212 134 OFFCURVE",
"223 215 CURVE SMOOTH",
"233 285 OFFCURVE",
"260 290 OFFCURVE",
"331 290 CURVE SMOOTH",
"333 290 OFFCURVE",
"336 290 OFFCURVE",
"338 290 CURVE",
"322 178 LINE SMOOTH",
"311 102 OFFCURVE",
"275 102 OFFCURVE",
"260 102 CURVE SMOOTH"
);
}
);
width = 579;
},
{
background = {
paths = (
{
closed = 1;
nodes = (
"306 505 LINE",
"395 505 LINE",
"379 394 LINE",
"373 395 OFFCURVE",
"265 400 OFFCURVE",
"232 400 CURVE SMOOTH",
"117 400 OFFCURVE",
"52 364 OFFCURVE",
"29 203 CURVE SMOOTH",
"0 -7 OFFCURVE",
"67 -2 OFFCURVE",
"183 -2 CURVE SMOOTH",
"316 -2 OFFCURVE",
"342 17 OFFCURVE",
"368 201 CURVE SMOOTH",
"412 505 LINE",
"502 505 LINE",
"504 519 LINE",
"414 519 LINE",
"424 590 LINE",
"407 590 LINE",
"397 519 LINE",
"308 519 LINE"
);
},
{
closed = 1;
nodes = (
"51 12 OFFCURVE",
"24 37 OFFCURVE",
"47 199 CURVE SMOOTH",
"64 326 OFFCURVE",
"99 385 OFFCURVE",
"230 385 CURVE SMOOTH",
"273 385 OFFCURVE",
"370 379 OFFCURVE",
"377 378 CURVE",
"351 196 LINE SMOOTH",
"326 19 OFFCURVE",
"300 12 OFFCURVE",
"160 12 CURVE SMOOTH"
);
}
);
};
layerId = "B4E8C596-9C01-4F8A-BDA4-90320E25C0E6";
paths = (
{
closed = 1;
nodes = (
"306 505 LINE",
"395 505 LINE",
"379 394 LINE",
"373 395 OFFCURVE",
"265 400 OFFCURVE",
"232 400 CURVE SMOOTH",
"117 400 OFFCURVE",
"52 364 OFFCURVE",
"29 203 CURVE SMOOTH",
"0 -7 OFFCURVE",
"67 -2 OFFCURVE",
"183 -2 CURVE SMOOTH",
"316 -2 OFFCURVE",
"342 17 OFFCURVE",
"368 201 CURVE SMOOTH",
"412 505 LINE",
"502 505 LINE",
"504 519 LINE",
"414 519 LINE",
"424 590 LINE",
"407 590 LINE",
"397 519 LINE",
"308 519 LINE"
);
},
{
closed = 1;
nodes = (
"51 12 OFFCURVE",
"24 37 OFFCURVE",
"47 199 CURVE SMOOTH",
"64 326 OFFCURVE",
"99 385 OFFCURVE",
"230 385 CURVE SMOOTH",
"273 385 OFFCURVE",
"370 379 OFFCURVE",
"377 378 CURVE",
"351 196 LINE SMOOTH",
"326 19 OFFCURVE",
"300 12 OFFCURVE",
"160 12 CURVE SMOOTH"
);
}
);
width = 452;
}
);
leftKerningGroup = o;
note = dcroat;
rightKerningGroup = l;
unicode = 0111;
},
{
color = 7;
glyphname = e;
lastChange = "2021-09-09 19:13:26 +0000";
layers = (
{
anchors = (
{
name = bottom;
position = "{262, 0}";
},
{
name = ogonek;
position = "{331, 10}";
},
{
name = top;
position = "{326, 399}";
}
);
background = {
anchors = (
{
name = bottom;
position = "{262, 0}";
},
{
name = ogonek;
position = "{331, 10}";
},
{
name = top;
position = "{326, 399}";
}
);
paths = (
{
closed = 1;
nodes = (
"343 161 OFFCURVE",
"440 161 OFFCURVE",
"538 161 CURVE",
"543 198 OFFCURVE",
"548 236 OFFCURVE",
"554 273 CURVE SMOOTH",
"571 398 OFFCURVE",
"416 400 OFFCURVE",
"331 400 CURVE SMOOTH",
"164 400 OFFCURVE",
"50 380 OFFCURVE",
"22 185 CURVE SMOOTH",
"-4 1 OFFCURVE",
"73 -5 OFFCURVE",
"262 -5 CURVE SMOOTH",
"401 -5 OFFCURVE",
"476 -2 OFFCURVE",
"499 22 CURVE SMOOTH",
"514 36 OFFCURVE",
"523 68 OFFCURVE",
"527 91 CURVE SMOOTH",
"528 101 OFFCURVE",
"530 109 OFFCURVE",
"530 114 CURVE",
"519 113 OFFCURVE",
"367 110 OFFCURVE",
"344 110 CURVE SMOOTH",
"244 110 OFFCURVE",
"220 106 OFFCURVE",
"232 189 CURVE SMOOTH",
"244 274 OFFCURVE",
"255 290 OFFCURVE",
"315 290 CURVE SMOOTH",
"371 290 OFFCURVE",
"369 265 OFFCURVE",
"364 226 CURVE",
"346 226 OFFCURVE",
"329 226 OFFCURVE",
"311 226 CURVE SMOOTH",
"256 226 OFFCURVE",
"249 188 OFFCURVE",
"245 161 CURVE"
);
},
{
closed = 1;
nodes = (
"343 161 OFFCURVE",
"440 161 OFFCURVE",
"538 161 CURVE",
"543 198 OFFCURVE",
"548 236 OFFCURVE",
"554 273 CURVE SMOOTH",
"571 398 OFFCURVE",
"416 400 OFFCURVE",
"331 400 CURVE SMOOTH",
"164 400 OFFCURVE",
"50 380 OFFCURVE",
"22 185 CURVE SMOOTH",
"-4 1 OFFCURVE",
"73 -5 OFFCURVE",
"262 -5 CURVE SMOOTH",
"401 -5 OFFCURVE",
"476 -2 OFFCURVE",
"499 22 CURVE SMOOTH",
"514 36 OFFCURVE",
"523 68 OFFCURVE",
"527 91 CURVE SMOOTH",
"528 101 OFFCURVE",
"530 109 OFFCURVE",
"530 114 CURVE",
"519 113 OFFCURVE",
"367 110 OFFCURVE",
"344 110 CURVE SMOOTH",
"244 110 OFFCURVE",
"220 106 OFFCURVE",
"232 189 CURVE SMOOTH",
"244 274 OFFCURVE",
"255 290 OFFCURVE",
"315 290 CURVE SMOOTH",
"371 290 OFFCURVE",
"369 265 OFFCURVE",
"364 226 CURVE",
"346 226 OFFCURVE",
"329 226 OFFCURVE",
"311 226 CURVE SMOOTH",
"256 226 OFFCURVE",
"249 188 OFFCURVE",
"245 161 CURVE"
);
},
{
closed = 1;
nodes = (
"401 -5 OFFCURVE",
"476 -2 OFFCURVE",
"499 22 CURVE SMOOTH",
"514 36 OFFCURVE",
"523 68 OFFCURVE",
"527 91 CURVE SMOOTH",
"528 101 OFFCURVE",
"530 109 OFFCURVE",
"530 114 CURVE",
"519 113 OFFCURVE",
"367 110 OFFCURVE",
"324 110 CURVE SMOOTH",
"234 110 OFFCURVE",
"222 119 OFFCURVE",
"232 189 CURVE SMOOTH",
"244 274 OFFCURVE",
"255 290 OFFCURVE",
"315 290 CURVE SMOOTH",
"371 290 OFFCURVE",
"369 265 OFFCURVE",
"364 226 CURVE",
"311 226 LINE SMOOTH",
"268 226 OFFCURVE",
"252 198 OFFCURVE",
"247 161 CURVE",
"538 161 LINE",
"543 198 OFFCURVE",
"548 236 OFFCURVE",
"554 273 CURVE SMOOTH",
"565 355 OFFCURVE",
"511 400 OFFCURVE",
"331 400 CURVE SMOOTH",
"114 400 OFFCURVE",
"45 348 OFFCURVE",
"22 185 CURVE SMOOTH",
"0 24 OFFCURVE",
"36 -5 OFFCURVE",
"251 -5 CURVE SMOOTH"
);
}
);
};
layerId = "C7668D88-AC50-4107-9C4B-DB5D26A8FA6C";
paths = (
{
closed = 1;
nodes = (
"394 -5 OFFCURVE",
"465 -2 OFFCURVE",
"488 22 CURVE SMOOTH",
"503 36 OFFCURVE",
"512 68 OFFCURVE",
"516 91 CURVE SMOOTH",
"519 114 LINE",
"508 113 OFFCURVE",
"356 110 OFFCURVE",
"313 110 CURVE SMOOTH",
"232 110 OFFCURVE",
"221 119 OFFCURVE",
"231 189 CURVE SMOOTH",
"244 280 OFFCURVE",
"255 297 OFFCURVE",
"307 297 CURVE SMOOTH",
"351 297 OFFCURVE",
"354 276 OFFCURVE",
"351 242 CURVE SMOOTH",
"349 226 LINE",
"315 226 LINE SMOOTH",
"271 226 OFFCURVE",
"254 198 OFFCURVE",
"249 161 CURVE",
"524 161 LINE",
"537 253 LINE SMOOTH",
"551 355 OFFCURVE",
"499 400 OFFCURVE",
"330 400 CURVE SMOOTH",
"114 400 OFFCURVE",
"45 348 OFFCURVE",
"22 185 CURVE SMOOTH",
"0 28 OFFCURVE",
"43 -5 OFFCURVE",
"250 -5 CURVE SMOOTH"
);
}
);
width = 549;
},
{
anchors = (
{
name = bottom;
position = "{206, 0}";
},
{
name = ogonek;
position = "{269, 3}";
},
{
name = top;
position = "{264, 399}";
}
);
background = {
anchors = (
{
name = bottom;
position = "{206, 0}";
},
{
name = ogonek;
position = "{269, 3}";
},
{
name = top;
position = "{264, 399}";
}
);
paths = (
{
closed = 1;
nodes = (
"-294 197 OFFCURVE",
"-195 197 OFFCURVE",
"-97 197 CURVE",
"-95 212 OFFCURVE",
"-93 226 OFFCURVE",
"-91 241 CURVE SMOOTH",
"-78 351 OFFCURVE",
"-113 405 OFFCURVE",
"-226 405 CURVE SMOOTH",
"-381 405 OFFCURVE",
"-429 338 OFFCURVE",
"-449 200 CURVE SMOOTH",
"-473 29 OFFCURVE",
"-424 -7 OFFCURVE",
"-282 -7 CURVE SMOOTH",
"-242 -7 OFFCURVE",
"-204 -4 OFFCURVE",
"-164 3 CURVE SMOOTH",
"-137 8 OFFCURVE",
"-131 14 OFFCURVE",
"-130 22 CURVE SMOOTH",
"-130 24 OFFCURVE",
"-129 27 OFFCURVE",
"-129 29 CURVE",
"-156 16 OFFCURVE",
"-234 8 OFFCURVE",
"-281 8 CURVE SMOOTH",
"-415 8 OFFCURVE",
"-452 51 OFFCURVE",
"-431 200 CURVE SMOOTH",
"-412 336 OFFCURVE",
"-362 391 OFFCURVE",
"-227 391 CURVE SMOOTH",
"-124 391 OFFCURVE",
"-94 338 OFFCURVE",
"-112 211 CURVE",
"-201 211 OFFCURVE",
"-290 211 OFFCURVE",
"-379 211 CURVE SMOOTH",
"-386 211 OFFCURVE",
"-391 204 OFFCURVE",
"-392 197 CURVE"
);
},
{
closed = 1;
nodes = (
"-294 197 OFFCURVE",
"-195 197 OFFCURVE",
"-97 197 CURVE",
"-95 212 OFFCURVE",
"-93 226 OFFCURVE",
"-91 241 CURVE SMOOTH",
"-78 351 OFFCURVE",
"-113 405 OFFCURVE",
"-226 405 CURVE SMOOTH",
"-381 405 OFFCURVE",
"-429 338 OFFCURVE",
"-449 200 CURVE SMOOTH",
"-473 29 OFFCURVE",
"-424 -7 OFFCURVE",
"-282 -7 CURVE SMOOTH",
"-242 -7 OFFCURVE",
"-204 -4 OFFCURVE",
"-164 3 CURVE SMOOTH",
"-137 8 OFFCURVE",
"-131 14 OFFCURVE",
"-130 22 CURVE SMOOTH",
"-130 24 OFFCURVE",
"-129 27 OFFCURVE",
"-129 29 CURVE",
"-156 16 OFFCURVE",
"-234 8 OFFCURVE",
"-281 8 CURVE SMOOTH",
"-415 8 OFFCURVE",
"-452 51 OFFCURVE",
"-431 200 CURVE SMOOTH",
"-412 336 OFFCURVE",
"-362 391 OFFCURVE",
"-227 391 CURVE SMOOTH",
"-124 391 OFFCURVE",
"-94 338 OFFCURVE",
"-112 211 CURVE",
"-201 211 OFFCURVE",
"-290 211 OFFCURVE",
"-379 211 CURVE SMOOTH",
"-386 211 OFFCURVE",
"-391 204 OFFCURVE",
"-392 197 CURVE"
);
},
{
closed = 1;
nodes = (
"-241 -7 OFFCURVE",
"-203 -4 OFFCURVE",
"-163 3 CURVE SMOOTH",
"-136 8 OFFCURVE",
"-130 15 OFFCURVE",
"-129 24 CURVE SMOOTH",
"-128 26 OFFCURVE",
"-128 29 OFFCURVE",
"-128 31 CURVE",
"-155 17 OFFCURVE",
"-233 9 OFFCURVE",
"-280 9 CURVE SMOOTH",
"-414 9 OFFCURVE",
"-451 52 OFFCURVE",
"-430 200 CURVE SMOOTH",
"-411 335 OFFCURVE",
"-361 389 OFFCURVE",
"-226 389 CURVE SMOOTH",
"-123 389 OFFCURVE",
"-94 338 OFFCURVE",
"-111 213 CURVE",
"-378 213 LINE SMOOTH",
"-385 213 OFFCURVE",
"-390 205 OFFCURVE",
"-391 197 CURVE",
"-96 197 LINE",
"-94 212 OFFCURVE",
"-92 226 OFFCURVE",
"-90 241 CURVE SMOOTH",
"-77 351 OFFCURVE",
"-112 405 OFFCURVE",
"-225 405 CURVE SMOOTH",
"-380 405 OFFCURVE",
"-428 338 OFFCURVE",
"-448 200 CURVE SMOOTH",
"-472 29 OFFCURVE",
"-423 -7 OFFCURVE",
"-281 -7 CURVE SMOOTH"
);
},
{
closed = 1;
nodes = (
"249 -7 OFFCURVE",
"292 -3 OFFCURVE",
"328 4 CURVE SMOOTH",
"354 9 OFFCURVE",
"360 16 OFFCURVE",
"362 25 CURVE SMOOTH",
"363 32 LINE",
"336 19 OFFCURVE",
"262 10 OFFCURVE",
"210 10 CURVE SMOOTH",
"87 10 OFFCURVE",
"49 44 OFFCURVE",
"71 200 CURVE SMOOTH",
"90 334 OFFCURVE",
"137 388 OFFCURVE",
"264 388 CURVE SMOOTH",
"362 388 OFFCURVE",
"394 346 OFFCURVE",
"383 246 CURVE SMOOTH",
"379 213 LINE",
"128 213 LINE SMOOTH",
"115 213 OFFCURVE",
"110 205 OFFCURVE",
"109 197 CURVE",
"394 197 LINE",
"400 241 LINE SMOOTH",
"416 355 OFFCURVE",
"378 405 OFFCURVE",
"266 405 CURVE SMOOTH",
"118 405 OFFCURVE",
"72 338 OFFCURVE",
"52 200 CURVE SMOOTH",
"28 29 OFFCURVE",
"74 -7 OFFCURVE",
"209 -7 CURVE SMOOTH"
);
}
);
};
layerId = "B4E8C596-9C01-4F8A-BDA4-90320E25C0E6";
paths = (
{
closed = 1;
nodes = (
"249 -7 OFFCURVE",
"292 -3 OFFCURVE",
"328 4 CURVE SMOOTH",
"354 9 OFFCURVE",
"360 16 OFFCURVE",
"362 25 CURVE SMOOTH",
"363 32 LINE",
"336 19 OFFCURVE",
"262 10 OFFCURVE",
"210 10 CURVE SMOOTH",
"89 10 OFFCURVE",
"50 48 OFFCURVE",
"71 200 CURVE SMOOTH",
"92 346 OFFCURVE",
"142 388 OFFCURVE",
"264 388 CURVE SMOOTH",
"359 388 OFFCURVE",
"394 341 OFFCURVE",
"383 246 CURVE SMOOTH",
"379 213 LINE",
"128 213 LINE SMOOTH",
"115 213 OFFCURVE",
"110 205 OFFCURVE",
"109 197 CURVE",
"394 197 LINE",
"400 241 LINE SMOOTH",
"416 352 OFFCURVE",
"375 405 OFFCURVE",
"266 405 CURVE SMOOTH",
"119 405 OFFCURVE",
"74 350 OFFCURVE",
"52 200 CURVE SMOOTH",
"29 34 OFFCURVE",
"75 -7 OFFCURVE",
"209 -7 CURVE SMOOTH"
);
}
);
width = 434;
}
);
leftKerningGroup = o;
leftMetricsKey = o;
note = e;
rightKerningGroup = e;
unicode = 0065;
},
{
color = 7;
glyphname = f;
lastChange = "2021-09-09 19:04:22 +0000";
layers = (
{
background = {
paths = (
{
closed = 1;
nodes = (
"27 246 LINE",
"65 246 LINE",
"39 59 LINE SMOOTH",
"33 18 OFFCURVE",
"41 0 OFFCURVE",
"93 0 CURVE SMOOTH",
"238 0 LINE",
"273 246 LINE",
"460 246 LINE",
"475 352 LINE",
"288 352 LINE",
"290 365 LINE SMOOTH",
"292 383 OFFCURVE",
"300 399 OFFCURVE",
"329 399 CURVE SMOOTH",
"351 399 OFFCURVE",
"456 398 OFFCURVE",
"480 391 CURVE",
"495 497 LINE",
"429 503 OFFCURVE",
"298 510 OFFCURVE",
"212 505 CURVE SMOOTH",
"126 500 OFFCURVE",
"93 447 OFFCURVE",
"83 376 CURVE SMOOTH",
"80 352 LINE",
"42 352 LINE"
);
},
{
closed = 1;
nodes = (
"27 246 LINE",
"65 246 LINE",
"39 59 LINE SMOOTH",
"33 18 OFFCURVE",
"41 0 OFFCURVE",
"93 0 CURVE SMOOTH",
"238 0 LINE",
"273 246 LINE",
"460 246 LINE",
"475 352 LINE",
"288 352 LINE",
"290 365 LINE SMOOTH",
"293 383 OFFCURVE",
"300 399 OFFCURVE",
"329 399 CURVE SMOOTH",
"351 399 OFFCURVE",
"456 398 OFFCURVE",
"480 391 CURVE",
"495 497 LINE",
"429 503 OFFCURVE",
"298 510 OFFCURVE",
"212 505 CURVE SMOOTH",
"126 500 OFFCURVE",
"92 447 OFFCURVE",
"83 376 CURVE SMOOTH",
"80 352 LINE",
"42 352 LINE"
);
}
);
};
layerId = "C7668D88-AC50-4107-9C4B-DB5D26A8FA6C";
paths = (
{
closed = 1;
nodes = (
"28 246 LINE",
"66 246 LINE",
"40 59 LINE SMOOTH",
"34 18 OFFCURVE",
"42 0 OFFCURVE",
"94 0 CURVE SMOOTH",
"239 0 LINE",
"274 246 LINE",
"441 246 LINE",
"456 352 LINE",
"289 352 LINE",
"291 365 LINE SMOOTH",
"293 383 OFFCURVE",
"301 399 OFFCURVE",
"330 399 CURVE SMOOTH",
"373 399 OFFCURVE",
"457 398 OFFCURVE",
"481 391 CURVE",
"496 497 LINE",
"430 503 OFFCURVE",
"324 507 OFFCURVE",
"239 507 CURVE SMOOTH",
"137 507 OFFCURVE",
"96 460 OFFCURVE",
"84 376 CURVE SMOOTH",
"81 352 LINE",
"43 352 LINE"
);
}
);
width = 472;
},
{
background = {
paths = (
{
closed = 1;
nodes = (
"61 338 LINE",
"92 338 LINE",
"47 15 LINE SMOOTH",
"45 2 OFFCURVE",
"48 0 OFFCURVE",
"56 0 CURVE SMOOTH",
"62 0 LINE",
"109 338 LINE",
"224 338 LINE",
"226 352 LINE",
"111 352 LINE",
"120 418 LINE SMOOTH",
"127 469 OFFCURVE",
"139 491 OFFCURVE",
"193 491 CURVE SMOOTH",
"221 491 OFFCURVE",
"245 484 OFFCURVE",
"245 484 CURVE",
"247 498 LINE",
"247 498 OFFCURVE",
"220 505 OFFCURVE",
"175 505 CURVE SMOOTH",
"123 505 OFFCURVE",
"110 467 OFFCURVE",
"104 424 CURVE SMOOTH",
"94 352 LINE",
"63 352 LINE"
);
},
{
closed = 1;
nodes = (
"61 338 LINE",
"92 338 LINE",
"47 15 LINE SMOOTH",
"45 2 OFFCURVE",
"48 0 OFFCURVE",
"56 0 CURVE SMOOTH",
"62 0 LINE",
"109 338 LINE",
"224 338 LINE",
"226 352 LINE",
"111 352 LINE",
"120 418 LINE SMOOTH",
"127 469 OFFCURVE",
"139 491 OFFCURVE",
"193 491 CURVE SMOOTH",
"221 491 OFFCURVE",
"245 484 OFFCURVE",
"245 484 CURVE",
"247 498 LINE",
"247 498 OFFCURVE",
"220 505 OFFCURVE",
"175 505 CURVE SMOOTH",
"123 505 OFFCURVE",
"110 467 OFFCURVE",
"104 424 CURVE SMOOTH",
"94 352 LINE",
"63 352 LINE"
);
}
);
};
layerId = "B4E8C596-9C01-4F8A-BDA4-90320E25C0E6";
paths = (
{
closed = 1;
nodes = (
"63 338 LINE",
"94 338 LINE",
"49 15 LINE SMOOTH",
"47 2 OFFCURVE",
"50 0 OFFCURVE",
"58 0 CURVE SMOOTH",
"64 0 LINE",
"111 338 LINE",
"206 338 LINE",
"208 352 LINE",
"113 352 LINE",
"122 418 LINE SMOOTH",
"130 474 OFFCURVE",
"144 490 OFFCURVE",
"194 490 CURVE SMOOTH",
"222 490 OFFCURVE",
"234 486 OFFCURVE",
"246 482 CURVE",
"249 498 LINE",
"237 500 OFFCURVE",
"222 505 OFFCURVE",
"187 505 CURVE SMOOTH",
"131 505 OFFCURVE",
"114 478 OFFCURVE",
"106 424 CURVE SMOOTH",
"96 352 LINE",
"65 352 LINE"
);
}
);
width = 217;
}
);
leftKerningGroup = f;
note = f;
rightKerningGroup = f;
unicode = 0066;
},
{
color = 7;
glyphname = g;
lastChange = "2021-09-09 19:04:22 +0000";
layers = (
{
anchors = (
{
name = bottom;
position = "{207, -164}";
},
{
name = top;
position = "{318, 399}";
}
);
background = {
anchors = (
{
name = bottom;
position = "{194, -350}";
},
{
name = top;
position = "{318, 399}";
}
);
paths = (
{
closed = 1;
nodes = (
"15 -16 OFFCURVE",
"10 -47 OFFCURVE",
"9 -56 CURVE SMOOTH",
"-1 -129 OFFCURVE",
"135 -118 OFFCURVE",
"216 -118 CURVE SMOOTH",
"407 -118 OFFCURVE",
"502 -86 OFFCURVE",
"521 61 CURVE SMOOTH",
"534 166 OFFCURVE",
"547 246 OFFCURVE",
"558 326 CURVE SMOOTH",
"562 355 OFFCURVE",
"566 382 OFFCURVE",
"569 387 CURVE",
"546 389 OFFCURVE",
"397 401 OFFCURVE",
"345 401 CURVE SMOOTH",
"141 401 OFFCURVE",
"39 378 OFFCURVE",
"19 228 CURVE SMOOTH",
"-5 45 OFFCURVE",
"55 24 OFFCURVE",
"196 24 CURVE SMOOTH",
"269 24 OFFCURVE",
"306 41 OFFCURVE",
"317 69 CURVE",
"300 -26 OFFCURVE",
"277 -30 OFFCURVE",
"180 -30 CURVE SMOOTH",
"121 -30 OFFCURVE",
"31 -16 OFFCURVE",
"16 -9 CURVE"
);
},
{
closed = 1;
nodes = (
"335 212 LINE",
"327 152 OFFCURVE",
"289 117 OFFCURVE",
"271 117 CURVE SMOOTH",
"237 117 OFFCURVE",
"219 119 OFFCURVE",
"232 230 CURVE SMOOTH",
"238 282 OFFCURVE",
"254 294 OFFCURVE",
"292 294 CURVE SMOOTH",
"322 294 OFFCURVE",
"339 293 OFFCURVE",
"347 293 CURVE"
);
},
{
closed = 1;
nodes = (
"15 -16 OFFCURVE",
"10 -47 OFFCURVE",
"9 -56 CURVE SMOOTH",
"-1 -129 OFFCURVE",
"135 -118 OFFCURVE",
"216 -118 CURVE SMOOTH",
"407 -118 OFFCURVE",
"502 -86 OFFCURVE",
"521 61 CURVE SMOOTH",
"534 166 OFFCURVE",
"547 246 OFFCURVE",
"558 326 CURVE SMOOTH",
"562 355 OFFCURVE",
"566 382 OFFCURVE",
"569 387 CURVE",
"546 389 OFFCURVE",
"397 401 OFFCURVE",
"345 401 CURVE SMOOTH",
"141 401 OFFCURVE",
"39 378 OFFCURVE",
"19 228 CURVE SMOOTH",
"-5 45 OFFCURVE",
"55 24 OFFCURVE",
"196 24 CURVE SMOOTH",
"269 24 OFFCURVE",
"306 41 OFFCURVE",
"317 69 CURVE",
"300 -26 OFFCURVE",
"277 -30 OFFCURVE",
"180 -30 CURVE SMOOTH",
"121 -30 OFFCURVE",
"31 -16 OFFCURVE",
"16 -9 CURVE"
);
},
{
closed = 1;
nodes = (
"335 212 LINE",
"327 152 OFFCURVE",
"289 117 OFFCURVE",
"271 117 CURVE SMOOTH",
"237 117 OFFCURVE",
"219 119 OFFCURVE",
"232 230 CURVE SMOOTH",
"238 282 OFFCURVE",
"254 294 OFFCURVE",
"292 294 CURVE SMOOTH",
"322 294 OFFCURVE",
"339 293 OFFCURVE",
"347 293 CURVE"
);
},
{
closed = 1;
nodes = (
"406 -124 OFFCURVE",
"502 -92 OFFCURVE",
"525 86 CURVE SMOOTH",
"558 326 LINE SMOOTH",
"562 355 OFFCURVE",
"566 382 OFFCURVE",
"569 387 CURVE",
"546 389 OFFCURVE",
"397 401 OFFCURVE",
"337 401 CURVE SMOOTH",
"105 401 OFFCURVE",
"37 360 OFFCURVE",
"16 207 CURVE SMOOTH",
"-4 65 OFFCURVE",
"40 22 OFFCURVE",
"179 22 CURVE SMOOTH",
"285 22 OFFCURVE",
"304 42 OFFCURVE",
"335 98 CURVE",
"317 101 LINE",
"313 14 OFFCURVE",
"292 -36 OFFCURVE",
"179 -36 CURVE SMOOTH",
"120 -36 OFFCURVE",
"29 -22 OFFCURVE",
"14 -15 CURVE",
"13 -22 OFFCURVE",
"9 -53 OFFCURVE",
"8 -62 CURVE SMOOTH",
"-2 -135 OFFCURVE",
"134 -124 OFFCURVE",
"215 -124 CURVE SMOOTH"
);
},
{
closed = 1;
nodes = (
"232 134 OFFCURVE",
"220 148 OFFCURVE",
"229 212 CURVE SMOOTH",
"239 281 OFFCURVE",
"253 294 OFFCURVE",
"292 294 CURVE SMOOTH",
"322 294 OFFCURVE",
"339 293 OFFCURVE",
"347 293 CURVE",
"335 212 LINE SMOOTH",
"326 144 OFFCURVE",
"289 134 OFFCURVE",
"271 134 CURVE SMOOTH"
);
}
);
};
guideLines = (
{
position = "{604, -109}";
}
);
layerId = "C7668D88-AC50-4107-9C4B-DB5D26A8FA6C";
paths = (
{
closed = 1;
nodes = (
"402 -124 OFFCURVE",
"495 -92 OFFCURVE",
"520 86 CURVE SMOOTH",
"553 326 LINE SMOOTH",
"557 355 OFFCURVE",
"561 382 OFFCURVE",
"564 387 CURVE",
"541 389 OFFCURVE",
"393 401 OFFCURVE",
"334 401 CURVE SMOOTH",
"111 401 OFFCURVE",
"46 360 OFFCURVE",
"24 199 CURVE SMOOTH",
"5 65 OFFCURVE",
"46 22 OFFCURVE",
"176 22 CURVE SMOOTH",
"282 22 OFFCURVE",
"301 42 OFFCURVE",
"332 98 CURVE",
"314 101 LINE",
"312 7 OFFCURVE",
"288 -36 OFFCURVE",
"175 -36 CURVE SMOOTH",
"120 -36 OFFCURVE",
"38 -22 OFFCURVE",
"23 -15 CURVE",
"22 -22 OFFCURVE",
"19 -44 OFFCURVE",
"18 -53 CURVE SMOOTH",
"10 -114 OFFCURVE",
"52 -124 OFFCURVE",
"203 -124 CURVE SMOOTH"
);
},
{
closed = 1;
nodes = (
"239 134 OFFCURVE",
"224 148 OFFCURVE",
"233 212 CURVE SMOOTH",
"243 281 OFFCURVE",
"255 294 OFFCURVE",
"289 294 CURVE SMOOTH",
"309 294 OFFCURVE",
"336 293 OFFCURVE",
"344 293 CURVE",
"332 212 LINE SMOOTH",
"323 144 OFFCURVE",
"291 134 OFFCURVE",
"268 134 CURVE SMOOTH"
);
}
);
width = 564;
},
{
anchors = (
{
name = bottom;
position = "{141, -350}";
},
{
name = top;
position = "{268, 402}";
}
);
background = {
anchors = (
{
name = bottom;
position = "{141, -350}";
},
{
name = top;
position = "{268, 402}";
}
);
paths = (
{
closed = 1;
nodes = (
"39 -72 OFFCURVE",
"39 -76 OFFCURVE",
"38 -79 CURVE SMOOTH",
"35 -105 OFFCURVE",
"157 -111 OFFCURVE",
"181 -111 CURVE SMOOTH",
"242 -111 OFFCURVE",
"284 -99 OFFCURVE",
"312 -74 CURVE SMOOTH",
"368 -25 OFFCURVE",
"368 38 OFFCURVE",
"396 218 CURVE SMOOTH",
"406 286 OFFCURVE",
"419 382 OFFCURVE",
"423 390 CURVE",
"405 394 OFFCURVE",
"323 402 OFFCURVE",
"268 402 CURVE SMOOTH",
"139 402 OFFCURVE",
"79 379 OFFCURVE",
"57 222 CURVE SMOOTH",
"27 37 OFFCURVE",
"80 13 OFFCURVE",
"191 13 CURVE SMOOTH",
"222 13 OFFCURVE",
"309 18 OFFCURVE",
"354 68 CURVE",
"339 -60 OFFCURVE",
"282 -96 OFFCURVE",
"182 -96 CURVE SMOOTH",
"142 -96 OFFCURVE",
"69 -87 OFFCURVE",
"40 -69 CURVE"
);
},
{
closed = 1;
nodes = (
"356 108 LINE",
"338 36 OFFCURVE",
"230 28 OFFCURVE",
"186 28 CURVE SMOOTH",
"81 28 OFFCURVE",
"49 62 OFFCURVE",
"75 227 CURVE SMOOTH",
"93 351 OFFCURVE",
"140 387 OFFCURVE",
"263 387 CURVE SMOOTH",
"332 387 OFFCURVE",
"386 379 OFFCURVE",
"400 375 CURVE"
);
},
{
closed = 1;
nodes = (
"39 -72 OFFCURVE",
"39 -76 OFFCURVE",
"38 -79 CURVE SMOOTH",
"35 -105 OFFCURVE",
"157 -111 OFFCURVE",
"181 -111 CURVE SMOOTH",
"242 -111 OFFCURVE",
"284 -99 OFFCURVE",
"312 -74 CURVE SMOOTH",
"368 -25 OFFCURVE",
"368 38 OFFCURVE",
"396 218 CURVE SMOOTH",
"406 286 OFFCURVE",
"419 382 OFFCURVE",
"423 390 CURVE",
"405 394 OFFCURVE",
"323 402 OFFCURVE",
"268 402 CURVE SMOOTH",
"139 402 OFFCURVE",
"79 379 OFFCURVE",
"57 222 CURVE SMOOTH",
"27 37 OFFCURVE",
"80 13 OFFCURVE",
"191 13 CURVE SMOOTH",
"222 13 OFFCURVE",
"309 18 OFFCURVE",
"354 68 CURVE",
"339 -60 OFFCURVE",
"282 -96 OFFCURVE",
"182 -96 CURVE SMOOTH",
"142 -96 OFFCURVE",
"69 -87 OFFCURVE",
"40 -69 CURVE"
);
},
{
closed = 1;
nodes = (
"356 108 LINE",
"338 36 OFFCURVE",
"230 28 OFFCURVE",
"186 28 CURVE SMOOTH",
"81 28 OFFCURVE",
"49 62 OFFCURVE",
"75 227 CURVE SMOOTH",
"93 351 OFFCURVE",
"140 387 OFFCURVE",
"263 387 CURVE SMOOTH",
"332 387 OFFCURVE",
"386 379 OFFCURVE",
"400 375 CURVE"
);
},
{
closed = 1;
nodes = (
"302 -111 OFFCURVE",
"353 -60 OFFCURVE",
"372 66 CURVE SMOOTH",
"406 301 LINE SMOOTH",
"410 334 OFFCURVE",
"417 382 OFFCURVE",
"421 390 CURVE",
"403 394 OFFCURVE",
"321 402 OFFCURVE",
"266 402 CURVE SMOOTH",
"137 402 OFFCURVE",
"77 379 OFFCURVE",
"52 203 CURVE SMOOTH",
"29 36 OFFCURVE",
"81 12 OFFCURVE",
"192 12 CURVE SMOOTH",
"255 12 OFFCURVE",
"342 28 OFFCURVE",
"372 99 CURVE",
"358 98 LINE",
"343 -46 OFFCURVE",
"298 -95 OFFCURVE",
"180 -95 CURVE SMOOTH",
"140 -95 OFFCURVE",
"67 -86 OFFCURVE",
"38 -68 CURVE",
"38 -71 OFFCURVE",
"37 -76 OFFCURVE",
"36 -79 CURVE SMOOTH",
"33 -105 OFFCURVE",
"155 -111 OFFCURVE",
"179 -111 CURVE SMOOTH"
);
},
{
closed = 1;
nodes = (
"83 28 OFFCURVE",
"52 62 OFFCURVE",
"73 209 CURVE SMOOTH",
"93 350 OFFCURVE",
"139 386 OFFCURVE",
"261 386 CURVE SMOOTH",
"330 386 OFFCURVE",
"383 378 OFFCURVE",
"397 374 CURVE",
"362 121 LINE SMOOTH",
"349 55 OFFCURVE",
"279 28 OFFCURVE",
"187 28 CURVE SMOOTH"
);
}
);
};
layerId = "B4E8C596-9C01-4F8A-BDA4-90320E25C0E6";
paths = (
{
closed = 1;
nodes = (
"302 -111 OFFCURVE",
"353 -60 OFFCURVE",
"372 66 CURVE SMOOTH",
"406 301 LINE SMOOTH",
"410 334 OFFCURVE",
"417 382 OFFCURVE",
"421 390 CURVE",
"403 394 OFFCURVE",
"321 402 OFFCURVE",
"266 402 CURVE SMOOTH",
"137 402 OFFCURVE",
"77 379 OFFCURVE",
"52 203 CURVE SMOOTH",
"29 41 OFFCURVE",
"82 12 OFFCURVE",
"192 12 CURVE SMOOTH",
"255 12 OFFCURVE",
"342 28 OFFCURVE",
"372 99 CURVE",
"358 98 LINE",
"343 -46 OFFCURVE",
"298 -95 OFFCURVE",
"180 -95 CURVE SMOOTH",
"140 -95 OFFCURVE",
"67 -86 OFFCURVE",
"38 -68 CURVE",
"38 -71 OFFCURVE",
"37 -76 OFFCURVE",
"36 -79 CURVE SMOOTH",
"33 -105 OFFCURVE",
"155 -111 OFFCURVE",
"179 -111 CURVE SMOOTH"
);
},
{
closed = 1;
nodes = (
"83 28 OFFCURVE",
"53 67 OFFCURVE",
"73 209 CURVE SMOOTH",
"93 350 OFFCURVE",
"139 386 OFFCURVE",
"261 386 CURVE SMOOTH",
"330 386 OFFCURVE",
"383 378 OFFCURVE",
"397 374 CURVE",
"362 121 LINE SMOOTH",
"349 55 OFFCURVE",
"279 28 OFFCURVE",
"187 28 CURVE SMOOTH"
);
}
);
width = 459;
}
);
leftKerningGroup = g;
leftMetricsKey = o;
note = g;
rightKerningGroup = g;
rightMetricsKey = n;
unicode = 0067;
},
{
color = 7;
glyphname = h;
lastChange = "2021-09-16 21:20:29 +0000";
layers = (
{
anchors = (
{
name = bottom;
position = "{274, 0}";
},
{
name = center;
position = "{341, 480}";
},
{
name = top;
position = "{185, 505}";
}
);
background = {
anchors = (
{
name = bottom;
position = "{274, 0}";
},
{
name = center;
position = "{341, 480}";
},
{
name = top;
position = "{185, 505}";
}
);
paths = (
{
closed = 1;
nodes = (
"214 0 LINE",
"227 99 OFFCURVE",
"242 199 OFFCURVE",
"255 298 CURVE",
"257 302 OFFCURVE",
"292 306 OFFCURVE",
"301 306 CURVE SMOOTH",
"367 306 OFFCURVE",
"363 281 OFFCURVE",
"355 225 CURVE SMOOTH",
"345 150 OFFCURVE",
"334 75 OFFCURVE",
"324 0 CURVE",
"399 -1 LINE SMOOTH",
"516 -2 OFFCURVE",
"527 11 OFFCURVE",
"537 80 CURVE SMOOTH",
"553 198 LINE SMOOTH",
"575 350 OFFCURVE",
"567 398 OFFCURVE",
"341 398 CURVE SMOOTH",
"326 398 OFFCURVE",
"290 398 OFFCURVE",
"269 396 CURVE",
"274 432 OFFCURVE",
"279 469 OFFCURVE",
"285 505 CURVE",
"216 505 OFFCURVE",
"147 505 OFFCURVE",
"78 505 CURVE",
"57 356 OFFCURVE",
"36 206 OFFCURVE",
"15 57 CURVE SMOOTH",
"7 7 OFFCURVE",
"20 -1 OFFCURVE",
"100 -1 CURVE SMOOTH"
);
},
{
closed = 1;
nodes = (
"214 0 LINE",
"227 99 OFFCURVE",
"242 199 OFFCURVE",
"255 298 CURVE",
"257 302 OFFCURVE",
"292 306 OFFCURVE",
"301 306 CURVE SMOOTH",
"367 306 OFFCURVE",
"363 281 OFFCURVE",
"355 225 CURVE SMOOTH",
"345 150 OFFCURVE",
"334 75 OFFCURVE",
"324 0 CURVE",
"399 -1 LINE SMOOTH",
"516 -3 OFFCURVE",
"528 11 OFFCURVE",
"537 80 CURVE SMOOTH",
"553 198 LINE SMOOTH",
"574 350 OFFCURVE",
"567 398 OFFCURVE",
"341 398 CURVE SMOOTH",
"326 398 OFFCURVE",
"290 398 OFFCURVE",
"269 396 CURVE",
"274 432 OFFCURVE",
"279 469 OFFCURVE",
"285 505 CURVE",
"216 505 OFFCURVE",
"147 505 OFFCURVE",
"78 505 CURVE",
"57 356 OFFCURVE",
"36 206 OFFCURVE",
"15 57 CURVE SMOOTH",
"7 7 OFFCURVE",
"20 -2 OFFCURVE",
"100 -1 CURVE SMOOTH"
);
}
);
};
layerId = "C7668D88-AC50-4107-9C4B-DB5D26A8FA6C";
paths = (
{
closed = 1;
nodes = (
"214 0 LINE",
"255 298 LINE",
"266 302 OFFCURVE",
"285 306 OFFCURVE",
"301 306 CURVE SMOOTH",
"354 306 OFFCURVE",
"365 294 OFFCURVE",
"356 234 CURVE SMOOTH",
"324 0 LINE",
"438 0 LINE SMOOTH",
"509 0 OFFCURVE",
"527 12 OFFCURVE",
"537 80 CURVE SMOOTH",
"555 211 LINE SMOOTH",
"576 357 OFFCURVE",
"550 398 OFFCURVE",
"353 398 CURVE SMOOTH",
"325 398 OFFCURVE",
"290 395 OFFCURVE",
"269 392 CURVE",
"284 505 LINE",
"77 505 LINE",
"15 57 LINE SMOOTH",
"8 14 OFFCURVE",
"17 0 OFFCURVE",
"78 0 CURVE SMOOTH"
);
}
);
width = 580;
},
{
anchors = (
{
name = bottom;
position = "{206, 0}";
},
{
name = center;
position = "{175, 484}";
},
{
name = top;
position = "{121, 504}";
}
);
background = {
anchors = (
{
name = bottom;
position = "{206, 0}";
},
{
name = center;
position = "{175, 484}";
},
{
name = top;
position = "{121, 504}";
}
);
paths = (
{
closed = 1;
nodes = (
"61 0 LINE",
"78 122 OFFCURVE",
"95 244 OFFCURVE",
"112 366 CURVE",
"141 378 OFFCURVE",
"196 383 OFFCURVE",
"237 383 CURVE SMOOTH",
"337 383 OFFCURVE",
"386 360 OFFCURVE",
"371 250 CURVE SMOOTH",
"359 167 OFFCURVE",
"347 83 OFFCURVE",
"336 0 CURVE",
"340 0 LINE SMOOTH",
"353 0 OFFCURVE",
"354 2 OFFCURVE",
"357 25 CURVE SMOOTH",
"387 237 LINE SMOOTH",
"400 330 OFFCURVE",
"400 399 OFFCURVE",
"238 399 CURVE SMOOTH",
"190 399 OFFCURVE",
"140 394 OFFCURVE",
"114 383 CURVE",
"120 423 OFFCURVE",
"126 464 OFFCURVE",
"131 504 CURVE",
"125 504 OFFCURVE",
"119 504 OFFCURVE",
"113 504 CURVE",
"91 343 OFFCURVE",
"68 182 OFFCURVE",
"46 21 CURVE SMOOTH",
"43 2 OFFCURVE",
"44 0 OFFCURVE",
"56 0 CURVE SMOOTH"
);
},
{
closed = 1;
nodes = (
"61 0 LINE",
"78 122 OFFCURVE",
"95 244 OFFCURVE",
"112 366 CURVE",
"141 378 OFFCURVE",
"196 383 OFFCURVE",
"237 383 CURVE SMOOTH",
"337 383 OFFCURVE",
"386 360 OFFCURVE",
"371 250 CURVE SMOOTH",
"359 167 OFFCURVE",
"347 83 OFFCURVE",
"336 0 CURVE",
"340 0 LINE SMOOTH",
"353 0 OFFCURVE",
"354 2 OFFCURVE",
"357 25 CURVE SMOOTH",
"387 237 LINE SMOOTH",
"400 330 OFFCURVE",
"400 399 OFFCURVE",
"238 399 CURVE SMOOTH",
"190 399 OFFCURVE",
"140 394 OFFCURVE",
"114 383 CURVE",
"120 423 OFFCURVE",
"126 464 OFFCURVE",
"131 504 CURVE",
"125 504 OFFCURVE",
"119 504 OFFCURVE",
"113 504 CURVE",
"91 343 OFFCURVE",
"68 182 OFFCURVE",
"46 21 CURVE SMOOTH",
"43 2 OFFCURVE",
"44 0 OFFCURVE",
"56 0 CURVE SMOOTH"
);
}
);
};
layerId = "B4E8C596-9C01-4F8A-BDA4-90320E25C0E6";
paths = (
{
closed = 1;
nodes = (
"61 0 LINE",
"112 366 LINE",
"141 378 OFFCURVE",
"213 383 OFFCURVE",
"250 383 CURVE SMOOTH",
"336 383 OFFCURVE",
"386 360 OFFCURVE",
"371 250 CURVE SMOOTH",
"336 0 LINE",
"341 0 LINE SMOOTH",
"353 0 OFFCURVE",
"354 3 OFFCURVE",
"357 24 CURVE SMOOTH",
"387 237 LINE SMOOTH",
"400 330 OFFCURVE",
"400 399 OFFCURVE",
"252 399 CURVE SMOOTH",
"208 399 OFFCURVE",
"140 392 OFFCURVE",
"114 383 CURVE",
"131 505 LINE",
"113 505 LINE",
"46 21 LINE SMOOTH",
"43 2 OFFCURVE",
"44 0 OFFCURVE",
"56 0 CURVE SMOOTH"
);
}
);
width = 447;
}
);
leftKerningGroup = h;
leftMetricsKey = n;
note = h;
rightKerningGroup = n;
rightMetricsKey = n;
unicode = 0068;
},
{
color = 7;
glyphname = i;
lastChange = "2021-09-09 19:16:42 +0000";
layers = (
{
anchors = (
{
name = bottom;
position = "{153, 0}";
}
);
background = {
anchors = (
{
name = bottom;
position = "{153, 0}";
}
);
paths = (
{
closed = 1;
nodes = (
"196 399 OFFCURVE",
"127 399 OFFCURVE",
"58 399 CURVE",
"52 360 OFFCURVE",
"30 207 OFFCURVE",
"19 132 CURVE SMOOTH",
"11 69 OFFCURVE",
"-34 -5 OFFCURVE",
"181 -5 CURVE SMOOTH",
"245 -5 OFFCURVE",
"271 5 OFFCURVE",
"282 7 CURVE",
"292 79 LINE",
"289 77 OFFCURVE",
"281 73 OFFCURVE",
"270 73 CURVE SMOOTH",
"220 73 OFFCURVE",
"223 99 OFFCURVE",
"230 152 CURVE SMOOTH",
"242 234 OFFCURVE",
"253 317 OFFCURVE",
"265 399 CURVE"
);
},
{
closed = 1;
nodes = (
"88 442 OFFCURVE",
"123 440 OFFCURVE",
"174 440 CURVE SMOOTH",
"224 440 OFFCURVE",
"259 442 OFFCURVE",
"266 494 CURVE SMOOTH",
"273 541 OFFCURVE",
"242 547 OFFCURVE",
"192 548 CURVE SMOOTH",
"142 548 OFFCURVE",
"102 543 OFFCURVE",
"95 494 CURVE SMOOTH"
);
},
{
closed = 1;
nodes = (
"196 399 OFFCURVE",
"127 399 OFFCURVE",
"58 399 CURVE",
"52 360 OFFCURVE",
"30 207 OFFCURVE",
"19 132 CURVE SMOOTH",
"11 69 OFFCURVE",
"-34 -5 OFFCURVE",
"181 -5 CURVE SMOOTH",
"245 -5 OFFCURVE",
"271 5 OFFCURVE",
"282 7 CURVE",
"292 79 LINE",
"289 77 OFFCURVE",
"281 73 OFFCURVE",
"270 73 CURVE SMOOTH",
"220 73 OFFCURVE",
"223 99 OFFCURVE",
"230 152 CURVE SMOOTH",
"242 234 OFFCURVE",
"253 317 OFFCURVE",
"265 399 CURVE"
);
},
{
closed = 1;
nodes = (
"88 442 OFFCURVE",
"123 440 OFFCURVE",
"174 440 CURVE SMOOTH",
"224 440 OFFCURVE",
"259 442 OFFCURVE",
"266 494 CURVE SMOOTH",
"273 541 OFFCURVE",
"242 547 OFFCURVE",
"192 548 CURVE SMOOTH",
"142 548 OFFCURVE",
"102 543 OFFCURVE",
"95 494 CURVE SMOOTH"
);
},
{
closed = 1;
nodes = (
"245 -5 OFFCURVE",
"271 5 OFFCURVE",
"282 7 CURVE",
"292 79 LINE",
"289 77 OFFCURVE",
"281 73 OFFCURVE",
"259 73 CURVE SMOOTH",
"231 73 OFFCURVE",
"221 90 OFFCURVE",
"226 124 CURVE SMOOTH",
"265 399 LINE",
"58 399 LINE",
"17 116 LINE SMOOTH",
"4 26 OFFCURVE",
"37 -5 OFFCURVE",
"147 -5 CURVE SMOOTH"
);
},
{
closed = 1;
nodes = (
"219 440 OFFCURVE",
"254 442 OFFCURVE",
"261 494 CURVE SMOOTH",
"268 541 OFFCURVE",
"237 547 OFFCURVE",
"187 548 CURVE SMOOTH",
"137 548 OFFCURVE",
"97 543 OFFCURVE",
"90 494 CURVE SMOOTH",
"83 442 OFFCURVE",
"118 440 OFFCURVE",
"169 440 CURVE SMOOTH"
);
}
);
};
layerId = "C7668D88-AC50-4107-9C4B-DB5D26A8FA6C";
paths = (
{
closed = 1;
nodes = (
"245 -5 OFFCURVE",
"271 5 OFFCURVE",
"282 7 CURVE",
"292 79 LINE",
"289 77 OFFCURVE",
"281 73 OFFCURVE",
"259 73 CURVE SMOOTH",
"231 73 OFFCURVE",
"221 90 OFFCURVE",
"226 124 CURVE SMOOTH",
"265 399 LINE",
"58 399 LINE",
"17 116 LINE SMOOTH",
"4 26 OFFCURVE",
"37 -5 OFFCURVE",
"147 -5 CURVE SMOOTH"
);
},
{
closed = 1;
nodes = (
"236 440 OFFCURVE",
"255 452 OFFCURVE",
"261 494 CURVE SMOOTH",
"267 533 OFFCURVE",
"248 547 OFFCURVE",
"187 548 CURVE SMOOTH",
"122 548 OFFCURVE",
"96 534 OFFCURVE",
"90 494 CURVE SMOOTH",
"84 452 OFFCURVE",
"103 440 OFFCURVE",
"169 440 CURVE SMOOTH"
);
}
);
width = 317;
},
{
anchors = (
{
name = bottom;
position = "{100, 0}";
}
);
background = {
anchors = (
{
name = bottom;
position = "{100, 0}";
}
);
paths = (
{
closed = 1;
nodes = (
"113 399 OFFCURVE",
"107 399 OFFCURVE",
"101 399 CURVE",
"86 299 OFFCURVE",
"72 198 OFFCURVE",
"58 98 CURVE SMOOTH",
"50 42 OFFCURVE",
"45 -3 OFFCURVE",
"93 -3 CURVE SMOOTH",
"101 -3 OFFCURVE",
"133 0 OFFCURVE",
"141 2 CURVE",
"143 16 LINE",
"137 13 OFFCURVE",
"113 11 OFFCURVE",
"106 11 CURVE SMOOTH",
"71 11 OFFCURVE",
"67 35 OFFCURVE",
"75 88 CURVE SMOOTH",
"89 192 OFFCURVE",
"104 295 OFFCURVE",
"119 399 CURVE"
);
},
{
closed = 1;
nodes = (
"101 465 OFFCURVE",
"112 464 OFFCURVE",
"119 464 CURVE SMOOTH",
"126 464 OFFCURVE",
"136 465 OFFCURVE",
"138 479 CURVE SMOOTH",
"140 494 OFFCURVE",
"131 495 OFFCURVE",
"122 495 CURVE SMOOTH",
"113 495 OFFCURVE",
"105 493 OFFCURVE",
"103 479 CURVE SMOOTH"
);
},
{
closed = 1;
nodes = (
"113 399 OFFCURVE",
"107 399 OFFCURVE",
"101 399 CURVE",
"86 299 OFFCURVE",
"72 198 OFFCURVE",
"58 98 CURVE SMOOTH",
"50 42 OFFCURVE",
"45 -3 OFFCURVE",
"93 -3 CURVE SMOOTH",
"101 -3 OFFCURVE",
"133 0 OFFCURVE",
"141 2 CURVE",
"143 16 LINE",
"137 13 OFFCURVE",
"113 11 OFFCURVE",
"106 11 CURVE SMOOTH",
"71 11 OFFCURVE",
"67 35 OFFCURVE",
"75 88 CURVE SMOOTH",
"89 192 OFFCURVE",
"104 295 OFFCURVE",
"119 399 CURVE"
);
},
{
closed = 1;
nodes = (
"101 465 OFFCURVE",
"112 464 OFFCURVE",
"119 464 CURVE SMOOTH",
"126 464 OFFCURVE",
"136 465 OFFCURVE",
"138 479 CURVE SMOOTH",
"140 494 OFFCURVE",
"131 495 OFFCURVE",
"122 495 CURVE SMOOTH",
"113 495 OFFCURVE",
"105 493 OFFCURVE",
"103 479 CURVE SMOOTH"
);
}
);
};
layerId = "B4E8C596-9C01-4F8A-BDA4-90320E25C0E6";
paths = (
{
closed = 1;
nodes = (
"115 -3 OFFCURVE",
"134 0 OFFCURVE",
"142 2 CURVE",
"144 18 LINE",
"139 15 OFFCURVE",
"114 13 OFFCURVE",
"107 13 CURVE SMOOTH",
"75 13 OFFCURVE",
"67 27 OFFCURVE",
"76 88 CURVE SMOOTH",
"120 399 LINE",
"102 399 LINE",
"57 85 LINE SMOOTH",
"50 31 OFFCURVE",
"53 -3 OFFCURVE",
"98 -3 CURVE SMOOTH"
);
},
{
closed = 1;
nodes = (
"127 464 OFFCURVE",
"137 465 OFFCURVE",
"139 479 CURVE SMOOTH",
"141 494 OFFCURVE",
"132 495 OFFCURVE",
"123 495 CURVE SMOOTH",
"114 495 OFFCURVE",
"106 493 OFFCURVE",
"104 479 CURVE SMOOTH",
"102 465 OFFCURVE",
"113 464 OFFCURVE",
"120 464 CURVE SMOOTH"
);
}
);
width = 178;
}
);
leftKerningGroup = i;
leftMetricsKey = "=n-5";
note = i;
rightKerningGroup = i;
unicode = 0069;
},
